<svg width="60" height="60" viewBox="0 0 60 60" fill="none" xmlns="http://www.w3.org/2000/svg">
<g clip-path="url(#clip0_274_31)">
<path d="M-0.0899963 -0.0900269H60.09V60.09H-0.0899963V-0.0900269Z" fill="#FCC30B"/>
<path d="M7.42666 6.81584H4.31V5.14417H9.56583V6.575L7.14333 16.6192H5.01833L7.42666 6.81584ZM15 5.13584H16.8417V5.69917H15.7925V6.96084H16.6158V7.51917H15.7925V8.97584H16.8492V9.52334H15V5.13584ZM17.2067 5.13584H17.7642L18.8317 7.63584V5.13584H19.4925V9.52334H18.9617L17.8892 6.90167V9.52334H17.2067V5.13584ZM20.05 5.13584H21.8917V5.69917H20.8467V6.96084H21.6667V7.51917H20.8433V8.97584H21.8992V9.52334H20.05V5.13584ZM22.26 5.13584H23.3167C24.1942 5.13584 24.6925 5.4175 24.6925 6.3025C24.6925 6.82834 24.5625 7.19667 24.1508 7.36417L24.7625 9.52584H23.9608L23.4358 7.51584H23.0567V9.52584H22.26V5.13584ZM23.3108 7.015C23.7717 7.015 23.9392 6.815 23.9392 6.34334C23.9392 5.89917 23.815 5.6825 23.3558 5.6825H23.0583V7.01584L23.3108 7.015ZM25.0983 8.07667V6.60334C25.0983 5.66084 25.3858 5.08667 26.3483 5.08667C27.2475 5.08667 27.5617 5.5525 27.5617 6.365V6.5925H26.7975V6.3425C26.7975 5.92 26.7542 5.67084 26.3592 5.67084C25.9367 5.67084 25.9042 6.0125 25.9042 6.41334V8.25C25.9042 8.705 25.9875 8.9925 26.3808 8.9925C26.7742 8.9925 26.8625 8.68917 26.8625 8.2125V7.80084H26.3917V7.30084H27.5833V9.5275H27.0633L27.0092 9.09917C26.89 9.38084 26.6758 9.58667 26.2667 9.58667C25.4017 9.58334 25.0983 9 25.0983 8.07667ZM28.11 5.13584H28.9008V9.52334H28.11V5.13584ZM30.125 5.13584H30.9808L31.8583 9.52334H31.1167L30.9433 8.51H30.1792L30 9.52334H29.25L30.125 5.13584ZM30.8567 8L30.5583 6.15834L30.2608 8H30.8567ZM33.3967 5.13584H34.1925V8.97584H35.26V9.52334H33.3967V5.13584ZM35.59 5.13584H36.3808V9.52334H35.59V5.13584ZM37.015 5.13584H37.8433L38.4667 8.17417L39.1108 5.13584H39.9167L40 9.52334H39.4042L39.3392 6.47334L38.7167 9.52334H38.2333L37.6 6.4625L37.54 9.52334H36.9392L37.015 5.13584ZM40.5408 5.13584H41.8333C42.6192 5.13584 42.955 5.59084 42.955 6.38167C42.955 7.2425 42.4892 7.57334 41.7792 7.57334H41.3408V9.52334H40.5442L40.5408 5.13584ZM41.6458 7.01C42.085 7.01 42.1983 6.84334 42.1983 6.37584C42.1983 5.90834 42.1392 5.69917 41.6458 5.69917H41.3375V7.01H41.6458ZM43.715 5.13584H44.5708L45.4483 9.52334H44.7067L44.5333 8.51H43.7692L43.5908 9.52334H42.8408L43.715 5.13584ZM44.4467 8L44.1483 6.15834L43.8508 8H44.4467ZM15 12.3025H16.8417V12.8658H15.7925V14.1275H16.6158V14.6858H15.7925V16.1425H16.8492V16.69H15V12.3025ZM19.07 12.3025H19.9258L20.8033 16.69H20.0608L19.8875 15.6767H19.1242L18.945 16.69H18.195L19.07 12.3025ZM19.8008 15.1667L19.5 13.3258L19.205 15.1667H19.8008ZM21.02 15.2867V13.7217C21.02 12.8225 21.3067 12.2533 22.27 12.2533C23.1692 12.2533 23.4567 12.7533 23.4567 13.5158V13.8842H22.6875V13.505C22.6875 13.1367 22.6817 12.8383 22.2758 12.8383C21.87 12.8383 21.8258 13.1525 21.8258 13.5533V15.455C21.8258 15.9317 21.9233 16.1592 22.2758 16.1592C22.6708 16.1592 22.6875 15.85 22.6875 15.46V15.065H23.4567V15.4167C23.4567 16.1917 23.1967 16.75 22.27 16.75C21.3067 16.75 21.02 16.1425 21.02 15.2867ZM23.9067 12.3025H25.75V12.8658H24.7033V14.1275H25.5267V14.6858H24.7033V16.1425H25.7592V16.69H23.9067V12.3025ZM26.0083 15.4117L26.6967 15.2758C26.7183 15.7958 26.8425 16.1317 27.1967 16.1317C27.4508 16.1317 27.5592 15.9583 27.5592 15.72C27.5592 15.3408 27.3642 15.13 27.0775 14.8808L26.525 14.3983C26.2108 14.1275 26.0158 13.8242 26.0158 13.3367C26.0158 12.6433 26.4492 12.2533 27.1475 12.2533C27.9708 12.2533 28.2042 12.8058 28.2475 13.445L27.5592 13.5642C27.5433 13.1525 27.4833 12.8442 27.1317 12.8442C26.8933 12.8442 26.7633 13.0225 26.7633 13.2558C26.7633 13.5533 26.8875 13.7158 27.1208 13.9167L27.6675 14.3983C28.025 14.7075 28.3233 15.0917 28.3233 15.6717C28.3233 16.305 27.8792 16.7492 27.2233 16.7492C26.4167 16.75 26.0408 16.2833 26.0083 15.4117ZM28.5325 15.4117L29.2208 15.2758C29.2425 15.7958 29.3667 16.1317 29.7208 16.1317C29.9758 16.1317 30.0842 15.9583 30.0842 15.72C30.0842 15.3408 29.8892 15.13 29.6025 14.8808L29.0492 14.3983C28.735 14.1275 28.54 13.8242 28.54 13.3367C28.54 12.6433 28.9733 12.2533 29.6725 12.2533C30.4958 12.2533 30.7292 12.8058 30.7725 13.445L30.0833 13.5642C30.0675 13.1525 30.0075 12.8442 29.6558 12.8442C29.4175 12.8442 29.2867 13.0225 29.2867 13.2558C29.2867 13.5533 29.4117 13.7158 29.645 13.9167L30.1917 14.3983C30.5492 14.7075 30.8475 15.0917 30.8475 15.6717C30.8475 16.305 30.4033 16.7492 29.7475 16.7492C28.9442 16.75 28.565 16.2833 28.5325 15.4117ZM31.23 12.3025H32.0208V16.69H31.23V12.3025ZM31.73 10.9158H32.48L31.8333 12H31.4058L31.73 10.9158ZM32.3833 12.3025H33.0875L33.6708 15.4058L34.2175 12.3025H34.9383L34.055 16.69H33.2667L32.3833 12.3025ZM35.2758 12.3025H37.1175V12.8658H36.0725V14.1275H36.8958V14.6858H36.0725V16.1425H37.1283V16.69H35.2758V12.3025ZM37.4858 12.3025H38.2825V16.1425H39.3492V16.69H37.4858V12.3025ZM30.0217 29.2292C28.2689 29.2288 26.5554 29.7483 25.0978 30.7219C23.6403 31.6954 22.5042 33.0794 21.8333 34.6987C21.1623 36.3179 20.9867 38.0998 21.3285 39.8189C21.6703 41.5381 22.5142 43.1172 23.7536 44.3567C24.9929 45.5961 26.572 46.4402 28.2911 46.7822C30.0102 47.1242 31.7921 46.9487 33.4114 46.2779C35.0307 45.6071 36.4148 44.4711 37.3885 43.0137C38.3622 41.5562 38.8818 39.8428 38.8817 38.09C38.8817 35.7401 37.9482 33.4864 36.2867 31.8247C34.6251 30.163 32.3716 29.2294 30.0217 29.2292ZM29.3658 32.7292C29.3658 32.4342 29.6617 32.1092 30.0258 32.1092C30.39 32.1092 30.6817 32.4342 30.6817 32.7292V35.7708C30.6817 36.065 30.3883 36.3858 30.0258 36.3858C29.6633 36.3858 29.3658 36.065 29.3658 35.7708V32.7292ZM30.0233 42.63C28.9213 42.6291 27.8561 42.2335 27.0207 41.5148C26.1852 40.7962 25.6349 39.802 25.4693 38.7125C25.3038 37.623 25.534 36.5103 26.1183 35.5759C26.7025 34.6415 27.6022 33.9473 28.6542 33.6192V35.3333C28.0494 35.6402 27.5656 36.1419 27.2808 36.7575C26.9961 37.3731 26.9271 38.0666 27.0849 38.7262C27.2426 39.3858 27.618 39.973 28.1505 40.3931C28.6829 40.8133 29.3414 41.0417 30.0196 41.0417C30.6978 41.0417 31.3562 40.8133 31.8887 40.3931C32.4211 39.973 32.7965 39.3858 32.9543 38.7262C33.1121 38.0666 33.043 37.3731 32.7583 36.7575C32.4736 36.1419 31.9898 35.6402 31.385 35.3333V33.6183C32.4388 33.9443 33.3407 34.6373 33.9271 35.5717C34.5134 36.506 34.7452 37.6196 34.5804 38.7102C34.4156 39.8009 33.8652 40.7963 33.029 41.5157C32.1928 42.2351 31.1264 42.6308 30.0233 42.6308M19.8508 38.0125C19.8508 37.6108 19.495 37.2858 19.17 37.2858H15.29C14.9625 37.2858 14.6033 37.6108 14.6033 38.0125C14.6033 38.4142 14.9625 38.7425 15.29 38.7425H19.1667C19.4917 38.7425 19.8475 38.415 19.8475 38.0125M45.445 38.0125C45.445 37.6108 45.0883 37.2858 44.7633 37.2858H40.8833C40.5567 37.2858 40.1975 37.6108 40.1975 38.0125C40.1975 38.4142 40.5567 38.7425 40.8833 38.7425H44.7633C45.0883 38.7425 45.445 38.415 45.445 38.0125Z" fill="white"/>
<path d="M30.0258 53.4342C30.4267 53.4342 30.7525 53.0783 30.7525 52.7533V48.8733C30.7525 48.5467 30.4267 48.1867 30.0258 48.1867C29.625 48.1867 29.295 48.5467 29.295 48.8733V52.75C29.295 53.075 29.6233 53.4308 30.0258 53.4308M43.4083 45.6725C43.6075 45.3242 43.4608 44.8642 43.1783 44.7033L39.8108 42.7758C39.5275 42.6133 39.0533 42.7175 38.8542 43.0667C38.655 43.4158 38.8033 43.8783 39.0875 44.0408L42.455 45.9675C42.7367 46.1292 43.205 46.0217 43.4083 45.6725ZM22.3658 51.3983C22.7142 51.5975 23.1733 51.45 23.335 51.1683L25.2625 47.8008C25.4292 47.5167 25.3208 47.0433 24.9717 46.8442C24.6225 46.645 24.1592 46.7933 23.9975 47.0767L22.07 50.4442C21.9092 50.7258 22.0158 51.1942 22.3658 51.3983ZM37.7125 51.3808C38.06 51.1808 38.165 50.71 38.0033 50.4283L36.0692 47.065C35.9025 46.7808 35.445 46.6325 35.0967 46.8325C34.7483 47.0325 34.6425 47.5075 34.8067 47.7917L36.74 51.155C36.9025 51.4367 37.3625 51.5817 37.7125 51.3808ZM16.6575 45.7025C16.8575 46.05 17.3242 46.155 17.61 45.9933L20.9725 44.0592C21.2567 43.8925 21.4067 43.435 21.2058 43.0867C21.005 42.7383 20.53 42.6325 20.2475 42.7958L16.8833 44.73C16.6017 44.8917 16.4567 45.3533 16.6575 45.7025ZM30.0258 27.8408C30.4267 27.8408 30.7525 27.485 30.7525 27.16V23.28C30.7525 22.9525 30.4267 22.5933 30.0258 22.5933C29.625 22.5933 29.295 22.9525 29.295 23.28V27.16C29.295 27.485 29.6233 27.8408 30.0258 27.8408ZM21.195 32.9592C21.395 32.6108 21.2483 32.1517 20.9658 31.99L17.5983 30.0633C17.3142 29.8967 16.8408 30.0042 16.6408 30.3525C16.4408 30.7008 16.5908 31.165 16.8742 31.3275L20.2417 33.255C20.5242 33.4167 20.9917 33.3092 21.195 32.9592ZM35.0783 29.1858C35.4275 29.385 35.8858 29.2375 36.0475 28.9558L37.975 25.5883C38.1375 25.3042 38.0333 24.8308 37.685 24.6308C37.3367 24.4308 36.8725 24.58 36.71 24.8642L34.7833 28.2317C34.6217 28.5142 34.7283 28.9858 35.0783 29.1858ZM24.9542 29.1942C25.3017 28.9942 25.4067 28.5233 25.245 28.2417L23.3108 24.8775C23.1442 24.5942 22.6867 24.445 22.3383 24.6458C21.99 24.8467 21.8842 25.3208 22.0475 25.6042L23.9817 28.9675C24.1483 29.2492 24.6042 29.395 24.9542 29.1942ZM38.8442 32.9433C39.0442 33.2917 39.515 33.3967 39.7967 33.235L43.16 31.3008C43.4433 31.1342 43.5933 30.6758 43.3933 30.3275C43.1933 29.9792 42.7183 29.8742 42.4342 30.0375L39.07 31.9717C38.7883 32.1333 38.6433 32.595 38.8442 32.9433Z" fill="white"/>
</g>
<defs>
<clipPath id="clip0_274_31">
<rect width="60" height="60" fill="white"/>
</clipPath>
</defs>
</svg>
