<svg width="60" height="60" viewBox="0 0 60 60" fill="none" xmlns="http://www.w3.org/2000/svg">
<g clip-path="url(#clip0_274_80)">
<path d="M-0.0899963 -0.0899658H60.09V60.09H-0.0899963V-0.0899658Z" fill="#0A97D9"/>
<path d="M4.09334 7.41086C3.75 7.59503 2.77584 7.8642 2.43584 8.0342V6.40503C2.88917 6.22086 4.15 5.6117 4.575 5.1442H6.28917V16.6192H4.09334V7.41086ZM9.83334 13.9275H6.34584V12.2275L9.335 5.1442H11.8708V12.27H12.99V13.9275H11.8708V16.6192H9.83334V13.9275ZM9.83334 12.27V7.3967L8.07417 12.27H9.83334ZM18.9383 5.13586H19.6425L20.2258 8.2392L20.7725 5.13586H21.4933L20.61 9.52336H19.825L18.9383 5.13586ZM21.7983 5.13586H22.5892V9.52336H21.7983V5.13586ZM23.1042 5.13586H24.1383C25.2058 5.13586 25.5308 5.56336 25.5308 6.50086V8.09836C25.5308 9.06253 25.1975 9.52336 24.1708 9.52336H23.1042V5.13586ZM24.1492 8.96503C24.6967 8.96503 24.7183 8.67253 24.7183 8.12586V6.4467C24.7183 5.92086 24.6642 5.7042 24.135 5.7042H23.9V8.96503H24.1492ZM26.5833 5.13586H27.4392L28.3167 9.52336H27.5742L27.4008 8.51003H26.6375L26.4583 9.52336H25.7083L26.5833 5.13586ZM27.3125 8.00003L27.015 6.15836L26.7167 8.00003H27.3125ZM29.7442 5.13586H30.3025L31.3692 7.63586V5.13586H32.0308V9.52336H31.5L30.4267 6.9017V9.52336H29.7442V5.13586ZM33.1892 5.13586H34.045L34.9233 9.52336H34.1808L34.0075 8.51003H33.2433L33.065 9.52336H32.315L33.1892 5.13586ZM33.9208 8.00003L33.6225 6.15836L33.325 8.00003H33.9208ZM19.8 12.3025H20.6558L21.5333 16.69H20.7908L20.6175 15.6767H19.8542L19.675 16.69H18.925L19.8 12.3025ZM20.5308 15.1667L20.2333 13.325L19.935 15.1667H20.5308ZM20.3333 10.9167H21.0833L20.4392 12H20.0108L20.3333 10.9167ZM21.6958 15.2434V13.77C21.6958 12.8275 21.9825 12.2534 22.9458 12.2534C23.845 12.2534 24.1592 12.7192 24.1592 13.5317V13.7592H23.3958V13.5092C23.3958 13.0867 23.3525 12.8375 22.9567 12.8375C22.5342 12.8375 22.5017 13.1792 22.5017 13.58V15.4134C22.5017 15.8684 22.585 16.1559 22.9783 16.1559C23.3717 16.1559 23.4608 15.8525 23.4608 15.3759V14.9642H22.9892V14.46H24.1808V16.6867H23.6608L23.6067 16.2584C23.5525 16.409 23.4509 16.5379 23.3172 16.6258C23.1834 16.7137 23.0247 16.7559 22.865 16.7459C22 16.75 21.6958 16.1667 21.6958 15.2434ZM24.5992 15.2709V12.3025H25.3792V15.3625C25.3792 15.7792 25.4275 16.1534 25.8342 16.1534C26.2408 16.1534 26.2942 15.78 26.2942 15.3625V12.3025H27.0692V15.2709C27.0692 16.1917 26.8142 16.7492 25.8342 16.7492C24.8542 16.7492 24.5992 16.1917 24.5992 15.2709ZM28.1667 12.3025H29.0225L29.9 16.69H29.1583L28.985 15.6767H28.2208L28.0425 16.69H27.2925L28.1667 12.3025ZM28.9 15.1667L28.6017 13.325L28.3042 15.1667H28.9ZM46.19 43.8825C45.4292 42.855 40.5142 36.5884 33.6233 36.5884C27.64 36.5884 21.2392 42.0159 21.2392 42.0159C21.2392 42.0159 18.8333 37.0942 13.9167 36.6217C13.8883 36.6217 13.8575 36.615 13.825 36.615H13.7942C13.7442 36.6181 13.6972 36.6399 13.6625 36.676C13.6277 36.7121 13.6078 36.76 13.6067 36.81C13.6211 36.8742 13.647 36.9352 13.6833 36.99C14.3175 38.0425 15.9333 41.0367 15.9333 44.0284C15.9333 47.02 14.3058 50.0284 13.6783 51.08L13.6358 51.1467C13.616 51.1775 13.6053 51.2134 13.605 51.25C13.6053 51.2993 13.6242 51.3467 13.6578 51.3827C13.6915 51.4187 13.7375 51.4406 13.7867 51.4442L13.8392 51.4392C13.8563 51.4412 13.8737 51.4412 13.8908 51.4392C18.825 50.9792 21.2383 46.0425 21.2383 46.0425C21.2383 46.0425 27.6392 51.47 33.6225 51.47C40.5133 51.47 45.4283 45.2042 46.1892 44.1784C46.21 44.1509 46.2267 44.1259 46.2417 44.1075C46.2521 44.0839 46.2575 44.0584 46.2575 44.0325C46.2575 44.0067 46.2521 43.9812 46.2417 43.9575C46.2267 43.9367 46.21 43.9125 46.1892 43.8867M37.455 44.82C37.0574 44.8195 36.6689 44.7012 36.3386 44.48C36.0083 44.2588 35.7509 43.9446 35.5991 43.5772C35.4473 43.2097 35.4077 42.8056 35.4855 42.4157C35.5634 42.0258 35.755 41.6677 36.0362 41.3867C36.3175 41.1057 36.6757 40.9144 37.0656 40.8369C37.4556 40.7594 37.8597 40.7993 38.227 40.9514C38.5943 41.1036 38.9083 41.3612 39.1292 41.6917C39.3502 42.0222 39.4682 42.4108 39.4683 42.8084C39.4683 43.0727 39.4162 43.3344 39.315 43.5786C39.2138 43.8228 39.0655 44.0446 38.8785 44.2314C38.6916 44.4182 38.4696 44.5664 38.2253 44.6674C37.9811 44.7684 37.7193 44.8203 37.455 44.82ZM20.7875 30.9717C20.8019 30.9509 20.8197 30.9326 20.84 30.9175C20.872 30.8954 20.9095 30.8827 20.9483 30.8809C20.9988 30.8808 21.0473 30.9005 21.0833 30.9359C21.0858 30.9393 21.0889 30.9421 21.0925 30.9442C24.8483 34.5275 28.7892 31.6225 29.6092 30.9442L29.6925 30.8675C29.7162 30.8587 29.7414 30.8545 29.7667 30.855C29.795 30.8539 29.8233 30.8581 29.85 30.8675L29.9333 30.9442C30.7525 31.6225 34.6917 34.5275 38.4492 30.9442C38.4492 30.9442 38.4533 30.9392 38.4567 30.9359C38.4918 30.9007 38.5395 30.8809 38.5892 30.8809C38.6284 30.8821 38.6664 30.8948 38.6983 30.9175C38.7199 30.9323 38.7388 30.9506 38.7542 30.9717C39.4825 31.6884 42.6283 34.3975 45.9575 31.5042C45.976 31.4862 45.9907 31.4647 46.0007 31.441C46.0107 31.4172 46.0159 31.3917 46.0158 31.3659V29.9909C46.0161 29.965 46.0112 29.9394 46.0014 29.9154C45.9917 29.8915 45.9773 29.8697 45.9591 29.8513C45.9409 29.833 45.9192 29.8184 45.8953 29.8084C45.8715 29.7985 45.8459 29.7934 45.82 29.7934C45.8056 29.7949 45.7914 29.7977 45.7775 29.8017L45.6775 29.8517C44.655 30.365 41.4808 31.5809 38.6017 28.8592C38.575 28.8334 38.5467 28.8084 38.5183 28.78C38.4928 28.7662 38.464 28.7595 38.435 28.7609C38.414 28.7605 38.3933 28.7657 38.375 28.7759C38.3335 28.7865 38.2977 28.8128 38.275 28.8492C37.4175 29.5025 33.4775 32.1709 29.9683 28.8975L29.9167 28.8459C29.8782 28.8096 29.827 28.7899 29.7742 28.7909C29.7232 28.7905 29.6741 28.8103 29.6375 28.8459L29.5833 28.8975C26.0767 32.1709 22.1325 29.5025 21.275 28.8492C21.2537 28.8129 21.219 28.7866 21.1783 28.7759C21.1588 28.7656 21.137 28.7605 21.115 28.7609C21.086 28.7595 21.0572 28.7662 21.0317 28.78C21.0042 28.8084 20.9758 28.8334 20.9483 28.8592C18.0692 31.5809 14.8975 30.365 13.8742 29.8517L13.7733 29.8017C13.7608 29.7981 13.748 29.7953 13.735 29.7934C13.709 29.7933 13.6833 29.7983 13.6593 29.8082C13.6353 29.8181 13.6135 29.8326 13.5951 29.851C13.5767 29.8693 13.5622 29.8911 13.5523 29.9152C13.5424 29.9392 13.5374 29.9649 13.5375 29.9909V31.3659C13.5372 31.3916 13.542 31.417 13.5517 31.4408C13.5615 31.4646 13.5759 31.4861 13.5942 31.5042C16.9208 34.3975 20.0708 31.6884 20.7992 30.9717M13.7608 24.8109C13.7487 24.8068 13.7361 24.804 13.7233 24.8025C13.6972 24.8026 13.6714 24.8079 13.6473 24.818C13.6232 24.8281 13.6014 24.8429 13.583 24.8615C13.5647 24.8801 13.5502 24.9021 13.5404 24.9263C13.5306 24.9505 13.5256 24.9764 13.5258 25.0025V26.3734C13.5253 26.3998 13.5301 26.426 13.54 26.4505C13.5498 26.475 13.5646 26.4972 13.5833 26.5159C16.9092 29.4059 20.0583 26.6975 20.7875 25.9825C20.8004 25.9601 20.8184 25.941 20.84 25.9267C20.8719 25.9045 20.9095 25.892 20.9483 25.8909C20.9982 25.8903 21.0463 25.9091 21.0825 25.9434C21.085 25.947 21.0884 25.9499 21.0925 25.9517C24.8492 29.535 28.7892 26.6334 29.6083 25.9517L29.6917 25.8784C29.7153 25.8679 29.7409 25.8628 29.7667 25.8634C29.7936 25.8626 29.8203 25.8677 29.845 25.8784L29.9283 25.9517C30.7475 26.6334 34.6875 29.535 38.4442 25.9517C38.4442 25.9517 38.4492 25.9475 38.4517 25.9434C38.4876 25.9091 38.5354 25.8903 38.585 25.8909C38.6241 25.8917 38.6622 25.9042 38.6942 25.9267C38.7163 25.9412 38.735 25.9602 38.7492 25.9825C39.4775 26.6975 42.6233 29.4059 45.9525 26.5159C45.9711 26.4971 45.9857 26.4749 45.9956 26.4504C46.0055 26.4259 46.0104 26.3997 46.01 26.3734V25C46.0104 24.9741 46.0057 24.9483 45.9962 24.9241C45.9866 24.9 45.9723 24.878 45.9542 24.8594C45.9361 24.8408 45.9144 24.826 45.8905 24.8158C45.8666 24.8056 45.841 24.8002 45.815 24.8C45.8006 24.8012 45.7863 24.804 45.7725 24.8084C45.7417 24.8259 45.7092 24.8425 45.6725 24.86C44.6492 25.3725 41.4767 26.5917 38.5967 23.8667C38.5692 23.8409 38.5408 23.8159 38.5133 23.7834C38.4871 23.7716 38.4587 23.7654 38.43 23.765C38.4098 23.7663 38.3897 23.7694 38.37 23.7742C38.3299 23.7902 38.2952 23.8174 38.27 23.8525C37.4117 24.5067 33.4725 27.1734 29.9633 23.9009L29.9125 23.8509C29.8737 23.8145 29.8231 23.7935 29.77 23.7917C29.7185 23.7939 29.6695 23.8149 29.6325 23.8509L29.5783 23.9009C26.0717 27.1734 22.1275 24.5067 21.27 23.8525C21.2462 23.8171 21.2122 23.7898 21.1725 23.7742C21.152 23.7693 21.1311 23.7663 21.11 23.765C21.0813 23.7657 21.053 23.772 21.0267 23.7834C21.0004 23.8126 20.9726 23.8405 20.9433 23.8667C18.0633 26.5917 14.8917 25.3725 13.8683 24.86C13.8325 24.8425 13.7983 24.8259 13.7667 24.8084" fill="white"/>
</g>
<defs>
<clipPath id="clip0_274_80">
<rect width="60" height="60" fill="white"/>
</clipPath>
</defs>
</svg>
