<svg width="60" height="60" viewBox="0 0 60 60" fill="none" xmlns="http://www.w3.org/2000/svg">
<g clip-path="url(#clip0_274_88)">
<path d="M-0.0899963 -0.0899658H60.09V60.09H-0.0899963V-0.0899658Z" fill="#00689D"/>
<path d="M4.09334 7.41083C3.75 7.595 2.77584 7.86417 2.43584 8.03417V6.405C2.88917 6.22083 4.15 5.61167 4.575 5.14417H6.28917V16.6192H4.09334V7.41083ZM6.7 13.0067V8.92333C6.7 6.68833 7.32334 5 9.78834 5C11.8992 5 12.6783 6.03417 12.6925 7.90417V8.1025H10.6242C10.6242 7.13917 10.525 6.67167 9.8025 6.67167C9.10834 6.67167 8.92417 7.22417 8.92417 8.995V10.1567C9.165 9.74583 9.7175 9.505 10.3975 9.49C12.225 9.46167 12.8767 10.8925 12.8767 12.7908C12.8767 15.1283 12.14 16.7717 9.8025 16.7717C7.60667 16.775 6.7 15.1742 6.7 13.0067ZM10.6808 13.1667C10.6808 12.005 10.6525 11.1667 9.8025 11.1667C9.62356 11.1719 9.44892 11.2228 9.2952 11.3146C9.14147 11.4063 9.01375 11.5358 8.92417 11.6908V13.5167C8.92417 14.3808 9.10834 15.1458 9.81667 15.1458C10.5392 15.1458 10.6808 14.4233 10.6808 13.1667ZM19.1442 5.13583H20.4333C21.2192 5.13583 21.555 5.59083 21.555 6.38167C21.555 7.2425 21.0892 7.57333 20.3792 7.57333H19.9408V9.52333H19.1442V5.13583ZM20.25 7.01C20.6892 7.01 20.8025 6.84333 20.8025 6.37583C20.8025 5.90833 20.7433 5.69917 20.25 5.69917H19.9417V7.01H20.25ZM22.3183 5.13583H23.1742L24.0517 9.52333H23.31L23.1367 8.51H22.3725L22.1942 9.52333H21.4442L22.3183 5.13583ZM23.05 8L22.75 6.15917L22.4542 8H23.05ZM24.2358 9.00833L25.4117 5.68833H24.2958V5.13583H26.2183V5.5475L24.9942 8.97583H26.2242V9.52333H24.2358V9.00833ZM26.5108 9.98917C26.6155 9.96631 26.7085 9.9068 26.7732 9.82138C26.8378 9.73596 26.8698 9.63026 26.8633 9.52333H26.4725V8.79167H27.1933V9.45833C27.1933 9.92417 26.9925 10.1783 26.5867 10.2542L26.5108 9.98917ZM28.5525 9.06833C29.0133 9.06833 29.1358 8.985 29.1358 8.52083V5.13583H29.9325V8.5425C29.9325 9.27917 29.7208 9.63167 28.9408 9.63167H28.5558L28.5525 9.06833ZM30.4542 8.10417V5.13583H31.2342V8.19583C31.2342 8.6125 31.2825 8.98667 31.6892 8.98667C32.0958 8.98667 32.1492 8.61333 32.1492 8.19583V5.13583H32.9242V8.10417C32.9242 9.02083 32.6692 9.5825 31.6892 9.5825C30.7092 9.5825 30.4542 9.025 30.4542 8.10417ZM33.3333 8.245L34.0208 8.10917C34.0425 8.62917 34.1675 8.965 34.5208 8.965C34.7758 8.965 34.8842 8.79167 34.8842 8.55333C34.8842 8.17417 34.6892 7.96333 34.4017 7.71417L33.8492 7.23167C33.535 6.96083 33.34 6.6575 33.34 6.17C33.34 5.47667 33.7733 5.08667 34.4725 5.08667C35.2958 5.08667 35.5283 5.63917 35.5717 6.27833L34.8842 6.3975C34.8675 5.98583 34.8083 5.6775 34.4558 5.6775C34.2175 5.6775 34.0875 5.85583 34.0875 6.08917C34.0875 6.38667 34.2125 6.54917 34.445 6.75L34.9925 7.23167C35.35 7.54083 35.6475 7.925 35.6475 8.505C35.6475 9.13833 35.2033 9.5825 34.5483 9.5825C33.75 9.58333 33.3683 9.11667 33.3333 8.245ZM36.45 5.72583H35.75V5.13583H37.9325V5.72583H37.25V9.52333H36.45V5.72583ZM38.25 5.13583H39.0408V9.52333H38.25V5.13583ZM41.2058 6.7175V6.33833C41.2058 5.97 41.2008 5.67167 40.7942 5.67167C40.3875 5.67167 40.345 5.98583 40.345 6.38667V8.28833C40.345 8.765 40.4425 8.9925 40.7942 8.9925C41.19 8.9925 41.2058 8.68333 41.2058 8.29333V7.89833H41.975V8.25C41.975 8.9925 41.7367 9.53917 40.8975 9.58333V9.85417C41.2983 9.85417 41.5692 10.0333 41.5692 10.3692C41.5692 10.7533 41.2275 10.9158 40.8325 10.9158C40.7004 10.9145 40.5691 10.8946 40.4425 10.8567V10.515C40.5372 10.5445 40.6358 10.5591 40.735 10.5583C40.9242 10.5583 41.0683 10.5042 41.0683 10.3583C41.0683 10.1633 40.8467 10.0925 40.5917 10.0658V9.5725C39.79 9.48917 39.5408 8.91167 39.5408 8.12083V6.555C39.5408 5.65583 39.8283 5.08667 40.7908 5.08667C41.69 5.08667 41.9767 5.58667 41.9767 6.34917V6.7175H41.2058ZM43.0833 5.13583H43.9392L44.8167 9.52333H44.075L43.9017 8.51H43.1375L42.9592 9.52333H42.2092L43.0833 5.13583ZM43.8117 8L43.5133 6.15833L43.2158 8H43.8117ZM46.3517 5.13583H48.1933V5.69917H47.1483V6.96083H47.9717V7.51917H47.1483V8.97583H48.2042V9.52333H46.3517V5.13583ZM19.1667 12.3025H19.9575V16.69H19.1667V12.3025ZM20.5258 12.3025H21.0833L22.1508 14.8025V12.3025H22.8117V16.69H22.2808L21.2083 14.0683V16.69H20.5258V12.3025ZM23.2608 15.4117L23.9492 15.2758C23.9708 15.7958 24.095 16.1317 24.4492 16.1317C24.7033 16.1317 24.8117 15.9583 24.8117 15.72C24.8117 15.3408 24.6167 15.13 24.33 14.8808L23.7775 14.3983C23.4633 14.1275 23.2683 13.8242 23.2683 13.3367C23.2683 12.6433 23.7017 12.2533 24.4 12.2533C25.2233 12.2533 25.4567 12.8058 25.5 13.445L24.8117 13.5642C24.7958 13.1525 24.7358 12.8442 24.3842 12.8442C24.1458 12.8442 24.0158 13.0225 24.0158 13.2558C24.0158 13.5533 24.14 13.7158 24.3733 13.9167L24.92 14.3983C25.2775 14.7075 25.5758 15.0917 25.5758 15.6717C25.5758 16.305 25.1317 16.7492 24.4758 16.7492C23.6725 16.75 23.2933 16.2833 23.2608 15.4117ZM26.3758 12.8925H25.6767V12.3025H27.86V12.8925H27.1775V16.69H26.3758V12.8925ZM28.1733 12.3025H28.9642V16.69H28.1733V12.3025ZM29.9717 12.8925H29.2733V12.3025H31.4558V12.8925H30.7733V16.69H29.9717V12.8925ZM31.7158 15.2708V12.3025H32.5V15.3625C32.5 15.7792 32.5492 16.1533 32.955 16.1533C33.3608 16.1533 33.4158 15.78 33.4158 15.3625V12.3025H34.19V15.2708C34.19 16.1917 33.9358 16.7492 32.955 16.7492C31.9742 16.7492 31.7158 16.1917 31.7158 15.2708ZM34.7275 12.3025H35.5183V16.69H34.7275V12.3025ZM37.685 13.8842V13.505C37.685 13.1367 37.68 12.8383 37.2733 12.8383C36.8667 12.8383 36.8242 13.1525 36.8242 13.5533V15.455C36.8242 15.9317 36.9217 16.1592 37.2733 16.1592C37.6692 16.1592 37.685 15.85 37.685 15.46V15.065H38.4542V15.4167C38.4542 16.1592 38.2158 16.7058 37.3767 16.75V17.0208C37.7775 17.0208 38.0483 17.2 38.0483 17.5358C38.0483 17.92 37.7067 18.0825 37.3117 18.0825C37.1795 18.0812 37.0482 18.0613 36.9217 18.0233V17.6817C37.0163 17.7111 37.115 17.7258 37.2142 17.725C37.4033 17.725 37.5475 17.6708 37.5475 17.525C37.5475 17.33 37.3258 17.2592 37.0708 17.2325V16.7392C36.2692 16.6558 36.02 16.0783 36.02 15.2875V13.7217C36.02 12.8225 36.3075 12.2533 37.27 12.2533C38.1692 12.2533 38.4558 12.7533 38.4558 13.5158V13.8842H37.685ZM38.8333 15.3142V13.6667C38.8333 12.7783 39.1583 12.25 40.1008 12.25C41.0433 12.25 41.3633 12.7758 41.3633 13.6667V15.3133C41.3633 16.1958 41.0383 16.7483 40.1008 16.7483C39.1633 16.7483 38.8333 16.2025 38.8333 15.3142ZM39.8333 11.4733C39.6925 11.4733 39.6433 11.5567 39.6433 11.6958H39.2667C39.2667 11.3058 39.375 11.0133 39.7275 11.0133C39.9925 11.0133 40.1717 11.2633 40.4042 11.2633C40.5292 11.2633 40.5775 11.1875 40.5775 11.0467H40.935C40.935 11.3875 40.8758 11.7292 40.5233 11.7292C40.2417 11.7283 40.0575 11.4733 39.8333 11.4733ZM40.5508 15.5V13.4833C40.5508 13.115 40.4908 12.8383 40.1008 12.8383C39.7108 12.8383 39.6458 13.115 39.6458 13.4833V15.5C39.6458 15.8633 39.7058 16.1558 40.1008 16.1558C40.4958 16.1558 40.5508 15.8667 40.5508 15.5ZM41.845 12.3025H43.6867V12.8658H42.6417V14.1275H43.465V14.6858H42.6417V16.1425H43.6975V16.69H41.845V12.3025ZM43.9467 15.4117L44.635 15.2758C44.6567 15.7958 44.7808 16.1317 45.135 16.1317C45.385 16.1317 45.4975 15.9583 45.4975 15.72C45.4975 15.3408 45.3025 15.13 45.0158 14.8808L44.4633 14.3983C44.1492 14.1275 43.9542 13.8242 43.9542 13.3367C43.9542 12.6433 44.3875 12.2533 45.0858 12.2533C45.9092 12.2533 46.1425 12.8058 46.1858 13.445L45.5 13.5642C45.4842 13.1525 45.4242 12.8442 45.0725 12.8442C44.8342 12.8442 44.7042 13.0225 44.7042 13.2558C44.7042 13.5533 44.8283 13.7158 45.0617 13.9167L45.6083 14.3983C45.9658 14.7075 46.2642 15.0917 46.2642 15.6717C46.2642 16.305 45.82 16.7492 45.1642 16.7492C44.3583 16.75 43.9792 16.2833 43.9467 15.4117ZM19.1442 19.4692H20.9858V20.0325H19.9408V21.2942H20.7642V21.8525H19.9408V23.3092H21V23.8567H19.1442V19.4692ZM21.3542 19.4692H23.1583V20.0217H22.1508V21.3H22.9742V21.8575H22.1508V23.8575H21.3542V19.4692ZM23.505 19.4692H24.2958V23.8567H23.505V19.4692ZM24.7942 22.4533V20.8883C24.7942 19.9892 25.0808 19.42 26.0442 19.42C26.9433 19.42 27.2308 19.92 27.2308 20.6825V21.0508H26.4617V20.6717C26.4617 20.3033 26.4558 20.005 26.05 20.005C25.6442 20.005 25.6 20.3192 25.6 20.72V22.6217C25.6 23.0983 25.6975 23.3258 26.05 23.3258C26.445 23.3258 26.4617 23.0167 26.4617 22.6267V22.2317H27.2308V22.5833C27.2308 23.3583 26.9708 23.9167 26.0442 23.9167C25.0833 23.9167 24.7942 23.3092 24.7942 22.4533ZM28.3333 19.4692H29.19L30.0675 23.8567H29.325L29.1517 22.8433H28.3883L28.2092 23.8567H27.4592L28.3333 19.4692ZM29.0675 22.3333L28.77 20.4917L28.4717 22.3333H29.0675ZM30.25 23.3417L31.4258 20.0217H30.3133V19.4692H32.2358V19.8808L31.0117 23.3092H32.2417V23.8567H30.25V23.3417ZM32.5933 19.4692H34.435V20.0325H33.39V21.2942H34.2133V21.8525H33.39V23.3092H34.4458V23.8567H32.5933V19.4692ZM34.695 22.5783L35.3833 22.4425C35.405 22.9625 35.5292 23.2983 35.8833 23.2983C36.1375 23.2983 36.2458 23.125 36.2458 22.8867C36.2458 22.5075 36.0508 22.2967 35.7642 22.0475L35.2117 21.565C34.8975 21.2942 34.7025 20.9908 34.7025 20.5033C34.7025 19.81 35.1358 19.42 35.8342 19.42C36.6575 19.42 36.8908 19.9725 36.9342 20.6117L36.2458 20.7308C36.23 20.3192 36.17 20.0108 35.8183 20.0108C35.58 20.0108 35.45 20.1892 35.45 20.4225C35.45 20.72 35.5742 20.8825 35.8075 21.0833L36.3542 21.565C36.7117 21.8742 37.01 22.2583 37.01 22.8383C37.01 23.4717 36.5658 23.9158 35.91 23.9158C35.1067 23.9167 34.7275 23.45 34.695 22.5783ZM39.9 27.2783C39.9 27.2783 39.3167 28.0575 39.4833 28.8167C39.65 29.5758 40.5208 30.0275 40.5208 30.0275C40.5208 30.0275 41.1083 29.2483 40.9375 28.4892C40.7667 27.73 39.9008 27.2783 39.9008 27.2783M38.9433 31.7283C38.9433 31.7283 39.5308 30.9483 39.36 30.1892C39.1892 29.43 38.3233 28.9792 38.3233 28.9792C38.3233 28.9792 37.7358 29.7575 37.9067 30.5175C38.0775 31.2775 38.9442 31.7283 38.9442 31.7283M41.355 30.8942C41.355 30.8942 41.975 31.5192 42.6808 31.4558C43.3867 31.3925 43.91 30.6667 43.91 30.6667C43.91 30.6667 43.2908 30.0417 42.5842 30.1042C41.8775 30.1667 41.355 30.8933 41.355 30.8933M42.3708 27.5558C41.7967 28.1392 41.8775 29.1692 41.8775 29.1692C41.8775 29.1692 42.89 29.2567 43.465 28.675C44.04 28.0933 43.9583 27.0617 43.9583 27.0617C43.9583 27.0617 42.945 26.9742 42.3708 27.5558ZM41.1042 33.2108C41.8067 33.2942 42.4683 32.69 42.4683 32.69C42.4683 32.69 41.9892 31.9517 41.2867 31.8683C40.5842 31.785 39.9217 32.39 39.9217 32.39C39.9217 32.39 40.4008 33.1275 41.1042 33.2108ZM41.7317 44.5158H36.4758C36.2787 44.5158 36.0896 44.5942 35.9502 44.7336C35.8108 44.873 35.7325 45.062 35.7325 45.2592C35.7325 45.4563 35.8108 45.6454 35.9502 45.7848C36.0896 45.9242 36.2787 46.0025 36.4758 46.0025H41.7317C41.9288 46.0025 42.1179 45.9242 42.2573 45.7848C42.3967 45.6454 42.475 45.4563 42.475 45.2592C42.475 45.062 42.3967 44.873 42.2573 44.7336C42.1179 44.5942 41.9288 44.5158 41.7317 44.5158ZM41.7317 52.7117H36.4758C36.3761 52.7083 36.2767 52.7251 36.1835 52.761C36.0903 52.7968 36.0054 52.8511 35.9336 52.9205C35.8619 52.9899 35.8048 53.073 35.7658 53.1649C35.7269 53.2568 35.7068 53.3556 35.7068 53.4554C35.7068 53.5552 35.7269 53.654 35.7658 53.7459C35.8048 53.8378 35.8619 53.921 35.9336 53.9904C36.0054 54.0597 36.0903 54.114 36.1835 54.1499C36.2767 54.1857 36.3761 54.2025 36.4758 54.1992H41.7317C41.9246 54.1927 42.1075 54.1115 42.2417 53.9727C42.3759 53.834 42.4509 53.6485 42.4509 53.4554C42.4509 53.2624 42.3759 53.0769 42.2417 52.9381C42.1075 52.7993 41.9246 52.7181 41.7317 52.7117ZM18.0933 42.71C17.9735 42.6721 17.8517 42.6409 17.7283 42.6167C17.7283 42.6167 17.8633 42.6583 18.0933 42.71Z" fill="white"/>
<path d="M41.5383 46.5217H36.6667C36.5545 46.5219 36.4469 46.5665 36.3676 46.6459C36.2882 46.7252 36.2436 46.8328 36.2433 46.945V48.4166L33.0642 48.7658L28.4167 48.6666V45.8258C29.0412 45.7465 29.659 45.6212 30.265 45.4508C34.7358 44.1891 35.7108 41.4042 35.6142 38.8466C35.5167 36.2416 36.35 35.23 37.5483 34.78C37.8701 34.6609 38.2024 34.5727 38.5408 34.5167C38.5542 35.1567 38.6842 35.9008 38.97 36.7866C39.0758 36.7808 39.1817 36.7725 39.2867 36.7608C38.985 35.8541 38.8558 35.1083 38.8492 34.4725C39.2007 34.428 39.5556 34.4174 39.9092 34.4408C39.5515 34.2325 39.2137 33.9918 38.9 33.7216C39.1008 32.4883 39.8358 31.7308 40.5925 30.9566C41.0092 30.53 41.4392 30.09 41.7775 29.565L41.5142 29.3983C41.1933 29.8983 40.7725 30.325 40.3675 30.74C39.6292 31.4958 38.8842 32.2675 38.6317 33.49C38.3624 33.2473 38.1068 32.99 37.8658 32.7191C36.7633 31.4833 35.3442 32.3916 33.32 34.2758C31.2958 36.16 28.7483 36.2241 26.2617 33.68C22.98 30.32 20.1175 30.3391 18.155 30.53C19.4975 31.1025 19.9675 32.3566 20.6475 35.5458C21.3592 38.8925 23.1558 40.4058 25.6125 40.615C24.4742 40.8 24.1783 40.9575 22.3475 42.2225C20.9175 43.2092 18.9058 42.8975 18.09 42.7116C19.59 43.1783 21.3608 44.7491 22.9475 45.295C23.8839 45.6144 24.8569 45.814 25.8433 45.8891V48.605L17.035 48.4166V50.3116L33.065 49.9558L36.2442 50.3058V51.78C36.2444 51.8922 36.2891 51.9997 36.3684 52.0791C36.4478 52.1584 36.5553 52.2031 36.6675 52.2033H41.5383C41.6507 52.2033 41.7585 52.1587 41.838 52.0794C41.9175 52 41.9623 51.8923 41.9625 51.78V46.9466C41.9626 46.8909 41.9517 46.8356 41.9305 46.7841C41.9092 46.7325 41.878 46.6857 41.8386 46.6462C41.7992 46.6067 41.7524 46.5754 41.7008 46.554C41.6493 46.5326 41.5941 46.5217 41.5383 46.5217ZM26.6117 45.9275C26.9583 45.9336 27.3058 45.9241 27.6542 45.8991V48.6491L26.6117 48.625V45.9275ZM16.5833 50C16.5833 50.3991 16.3042 50.7233 15.9608 50.7233H15.5833C15.24 50.7233 14.96 50.3991 14.96 50V48.6858C14.96 48.2858 15.24 47.9625 15.5833 47.9625H15.9575C16.3008 47.9625 16.58 48.2858 16.58 48.6858L16.5833 50Z" fill="white"/>
</g>
<defs>
<clipPath id="clip0_274_88">
<rect width="60" height="60" fill="white"/>
</clipPath>
</defs>
</svg>
