<svg width="60" height="60" viewBox="0 0 60 60" fill="none" xmlns="http://www.w3.org/2000/svg">
<g clip-path="url(#clip0_274_55)">
<path d="M-0.0899963 -0.0899658H60.09V60.09H-0.0899963V-0.0899658Z" fill="#BF8B2E"/>
<path d="M4.09332 7.41083C3.74999 7.595 2.77582 7.86417 2.43582 8.03417V6.405C2.88915 6.22083 4.14999 5.61167 4.57499 5.14417H6.28915V16.6192H4.09332V7.41083ZM6.52999 15.075L9.32082 10.7825C9.92999 9.83333 10.5392 9.04 10.5392 7.9775C10.5392 7.24083 10.2558 6.84417 9.70582 6.84417C8.87249 6.84417 8.67165 7.60917 8.67165 8.54417V9.06833H6.52999V8.5C6.52999 6.47417 7.40832 5 9.66082 5C11.6725 5 12.7067 6.11917 12.7067 8.0175C12.7067 9.42 11.9842 10.3975 11.2067 11.5733L8.99665 14.8883H12.3967V16.6167H6.52999V15.075ZM18.9908 8.12V6.555C18.9908 5.65583 19.2775 5.08667 20.2408 5.08667C21.14 5.08667 21.4275 5.58667 21.4275 6.34917V6.7175H20.6583V6.33833C20.6583 5.97 20.6525 5.67167 20.2467 5.67167C19.8408 5.67167 19.7967 5.98583 19.7967 6.38667V8.28833C19.7967 8.765 19.8942 8.9925 20.2467 8.9925C20.6417 8.9925 20.6583 8.68333 20.6583 8.29333V7.89833H21.4275V8.25C21.4275 9.025 21.1675 9.58333 20.2408 9.58333C19.2775 9.58333 18.9908 8.97583 18.9908 8.12ZM21.75 8.1475V6.5C21.75 5.61167 22.075 5.08333 23.0175 5.08333C23.96 5.08333 24.2792 5.60917 24.2792 6.5V8.1475C24.2792 9.03 23.9542 9.5825 23.0175 9.5825C22.0808 9.5825 21.75 9.03583 21.75 8.1475ZM23.4667 8.33667V6.31667C23.4667 5.94833 23.4075 5.67167 23.0175 5.67167C22.6275 5.67167 22.5625 5.94833 22.5625 6.31667V8.33333C22.5625 8.69667 22.6217 8.98917 23.0175 8.98917C23.4133 8.98917 23.47 8.7 23.47 8.33333L23.4667 8.33667ZM24.71 5.13583H25.2683L26.3358 7.63583V5.13583H27V9.52333H26.4692L25.3933 6.90167V9.52333H24.71V5.13583ZM27.3917 8.245L28.0833 8.10917C28.1058 8.62917 28.23 8.965 28.5833 8.965C28.8383 8.965 28.9467 8.79167 28.9467 8.55333C28.9467 8.17417 28.7517 7.96333 28.465 7.71417L27.9117 7.23167C27.5975 6.96083 27.4025 6.6575 27.4025 6.17C27.4025 5.47667 27.8358 5.08667 28.535 5.08667C29.3583 5.08667 29.5917 5.63917 29.635 6.27833L28.9467 6.3975C28.9308 5.98583 28.8708 5.6775 28.5183 5.6775C28.2808 5.6775 28.15 5.85583 28.15 6.08917C28.15 6.38667 28.275 6.54917 28.5075 6.75L29.055 7.23167C29.4125 7.54083 29.7108 7.925 29.7108 8.505C29.7108 9.13833 29.2667 9.5825 28.6108 9.5825C27.8033 9.58333 27.4242 9.11667 27.3917 8.245ZM29.9808 8.10417V5.13583H30.7608V8.19583C30.7608 8.6125 30.8092 8.98667 31.2158 8.98667C31.6225 8.98667 31.6758 8.61333 31.6758 8.19583V5.13583H32.4508V8.10417C32.4508 9.02083 32.1958 9.5825 31.2158 9.5825C30.2358 9.5825 29.9808 9.025 29.9808 8.10417ZM32.9817 5.13583H33.81L34.4333 8.17417L35.0775 5.13583H35.885L35.9683 9.52333H35.3717L35.3067 6.47333L34.6842 9.52333H34.2L33.5667 6.4625L33.5067 9.52333H32.9058L32.9817 5.13583ZM36.3833 8.1475V6.5C36.3833 5.61167 36.7083 5.08333 37.6508 5.08333C38.5933 5.08333 38.9167 5.6125 38.9167 6.5V8.1475C38.9167 9.03 38.5917 9.5825 37.655 9.5825C36.7183 9.5825 36.3833 9.03583 36.3833 8.1475ZM38.1 8.33333V6.31667C38.1 5.94833 38.0408 5.67167 37.6508 5.67167C37.2608 5.67167 37.1958 5.94833 37.1958 6.31667V8.33333C37.1958 8.69667 37.255 8.98917 37.6508 8.98917C38.0466 8.98917 38.1 8.7 38.1 8.33333ZM40.4942 5.13583H42.3333V5.69917H41.2908V6.96083H42.1142V7.51917H41.2908V8.97583H42.3467V9.52333H40.4942V5.13583ZM19.0608 12.3025H20.35C21.1358 12.3025 21.4717 12.7575 21.4717 13.5525C21.4717 14.4133 21.0058 14.7442 20.2958 14.7442H19.8575V16.6942H19.0608V12.3025ZM20.1667 14.1767C20.6058 14.1767 20.7192 14.01 20.7192 13.5425C20.7192 13.075 20.66 12.8658 20.1667 12.8658H19.8583V14.1767H20.1667ZM21.75 12.3025H22.8058C23.6833 12.3025 24.1817 12.5842 24.1817 13.4692C24.1817 13.995 24.0517 14.3633 23.64 14.5308L24.2525 16.6925H23.4508L22.925 14.6825H22.5458V16.6925H21.75V12.3025ZM22.8008 14.1817C23.2608 14.1817 23.4292 13.9817 23.4292 13.51C23.4292 13.0658 23.3042 12.8492 22.8458 12.8492H22.5475V14.1825L22.8008 14.1817ZM24.5367 15.3142V13.6667C24.5367 12.7783 24.8625 12.25 25.805 12.25C26.7475 12.25 27.0667 12.7758 27.0667 13.6667V15.3133C27.0667 16.1958 26.7417 16.7483 25.805 16.7483C24.8683 16.7483 24.5367 16.2025 24.5367 15.3142ZM26.2542 15.5V13.4833C26.2542 13.115 26.195 12.8383 25.805 12.8383C25.415 12.8383 25.35 13.115 25.35 13.4833V15.5C25.35 15.8633 25.4092 16.1558 25.805 16.1558C26.2008 16.1558 26.2542 15.8667 26.2542 15.5ZM27.4942 12.3025H28.5292C29.5958 12.3025 29.9217 12.73 29.9217 13.6675V15.265C29.9217 16.2292 29.5883 16.69 28.5617 16.69H27.4942V12.3025ZM28.54 16.1358C29.0867 16.1358 29.1092 15.8433 29.1092 15.2967V13.6133C29.1092 13.0875 29.0542 12.8708 28.5258 12.8708H28.2875V16.1317L28.54 16.1358ZM30.3167 15.2708V12.3025H31.0967V15.3625C31.0967 15.7792 31.145 16.1533 31.5517 16.1533C31.9583 16.1533 32.0117 15.78 32.0117 15.3625V12.3025H32.7867V15.2708C32.7867 16.1917 32.5317 16.7492 31.5517 16.7492C30.5717 16.7492 30.3167 16.1917 30.3167 15.2708ZM34.85 13.8842V13.505C34.85 13.1367 34.845 12.8383 34.4383 12.8383C34.0317 12.8383 33.9892 13.1525 33.9892 13.5533V15.455C33.9892 15.9317 34.0867 16.1592 34.4383 16.1592C34.8342 16.1592 34.85 15.85 34.85 15.46V15.065H35.6192V15.4167C35.6192 16.1592 35.3808 16.7058 34.5417 16.75V17.0208C34.9425 17.0208 35.2133 17.2 35.2133 17.5358C35.2133 17.92 34.8717 18.0825 34.4767 18.0825C34.3445 18.0812 34.2132 18.0613 34.0867 18.0233V17.6817C34.1813 17.7111 34.28 17.7258 34.3792 17.725C34.5683 17.725 34.7125 17.6708 34.7125 17.525C34.7125 17.33 34.4908 17.2592 34.2358 17.2325V16.7392C33.4342 16.6558 33.185 16.0783 33.185 15.2875V13.7217C33.185 12.8225 33.4725 12.2533 34.435 12.2533C35.3342 12.2533 35.6208 12.7533 35.6208 13.5158V13.8842H34.85ZM36.6667 12.3025H37.5225L38.4 16.69H37.6583L37.485 15.6767H36.7208L36.5425 16.69H35.7925L36.6667 12.3025ZM36.8333 11.4733C36.6925 11.4733 36.6433 11.5567 36.6433 11.6958H36.2642C36.2642 11.3058 36.3725 11.0133 36.725 11.0133C36.99 11.0133 37.1692 11.2633 37.4017 11.2633C37.5267 11.2633 37.575 11.1875 37.575 11.0467H37.9325C37.9325 11.3875 37.8733 11.7292 37.5208 11.7292C37.2442 11.7283 37.06 11.4733 36.8383 11.4733H36.8333ZM37.4017 15.1667L37.1033 13.325L36.8058 15.1667H37.4017ZM38.5658 15.3142V13.6667C38.5658 12.7783 38.8908 12.25 39.8333 12.25C40.7758 12.25 41.0958 12.7758 41.0958 13.6667V15.3133C41.0958 16.1958 40.7708 16.7483 39.8333 16.7483C38.8958 16.7483 38.5658 16.2025 38.5658 15.3142ZM40.2833 15.5V13.4833C40.2833 13.115 40.2233 12.8383 39.8333 12.8383C39.4433 12.8383 39.3783 13.115 39.3783 13.4833V15.5C39.3783 15.8633 39.4383 16.1558 39.8333 16.1558C40.2283 16.1558 40.2833 15.8667 40.2833 15.5ZM19.0608 19.4692H20.1175C20.995 19.4692 21.4933 19.7508 21.4933 20.6358C21.4933 21.1617 21.3633 21.53 20.9517 21.6975L21.5633 23.8592H20.7617L20.2367 21.8492H19.8575V23.8592H19.0608V19.4692ZM20.1117 21.3483C20.5725 21.3483 20.74 21.1483 20.74 20.6767C20.74 20.2325 20.6158 20.0158 20.1567 20.0158H19.8592V21.3492L20.1117 21.3483ZM21.9375 19.4692H23.7792V20.0325H22.7333V21.2942H23.5567V21.8525H22.7333V23.3092H23.79V23.8567H21.9375V19.4692ZM23.9842 22.5783L24.6725 22.4425C24.6942 22.9625 24.8183 23.2983 25.1725 23.2983C25.4267 23.2983 25.5358 23.125 25.5358 22.8867C25.5358 22.5075 25.34 22.2967 25.0533 22.0475L24.5 21.565C24.1858 21.2942 23.9908 20.9908 23.9908 20.5033C23.9908 19.81 24.4242 19.42 25.1233 19.42C25.9467 19.42 26.1792 19.9725 26.2225 20.6117L25.535 20.7308C25.5183 20.3192 25.4592 20.0108 25.1067 20.0108C24.8683 20.0108 24.7383 20.1892 24.7383 20.4225C24.7383 20.72 24.8633 20.8825 25.0958 21.0833L25.6433 21.565C26.0008 21.8742 26.2983 22.2583 26.2983 22.8383C26.2983 23.4717 25.8542 23.9158 25.1992 23.9158C24.3967 23.9167 24.0167 23.45 23.9842 22.5783ZM26.6058 19.4692H27.895C28.6808 19.4692 29.0167 19.9242 29.0167 20.7192C29.0167 21.58 28.5508 21.9108 27.8408 21.9108H27.4025V23.8608H26.6058V19.4692ZM27.7108 21.3433C28.15 21.3433 28.2633 21.1767 28.2633 20.7092C28.2633 20.2417 28.2042 20.0325 27.7108 20.0325H27.4025V21.3433H27.7108ZM29.2275 22.4808V20.8333C29.2275 19.945 29.5525 19.4167 30.495 19.4167C31.4375 19.4167 31.7575 19.9425 31.7575 20.8333V22.48C31.7575 23.3625 31.4325 23.915 30.495 23.915C29.5575 23.915 29.2275 23.3692 29.2275 22.4808ZM30.945 22.6667V20.65C30.945 20.2817 30.885 20.005 30.495 20.005C30.105 20.005 30.04 20.2817 30.04 20.65V22.6667C30.04 23.03 30.1 23.3225 30.495 23.3225C30.89 23.3225 30.945 23.0333 30.945 22.6667ZM32.185 19.4692H32.7433L33.81 21.9692V19.4692H34.4708V23.8567H33.94L32.8675 21.235V23.8567H32.185V19.4692ZM34.8666 22.5783L35.5541 22.4425C35.5758 22.9625 35.7008 23.2983 36.0541 23.2983C36.3092 23.2983 36.4175 23.125 36.4175 22.8867C36.4175 22.5075 36.2225 22.2967 35.935 22.0475L35.3825 21.565C35.0683 21.2942 34.8733 20.9908 34.8733 20.5033C34.8733 19.81 35.3067 19.42 36.0058 19.42C36.8292 19.42 37.0617 19.9725 37.105 20.6117L36.4167 20.7308C36.4 20.3192 36.3408 20.0108 35.9883 20.0108C35.75 20.0108 35.62 20.1892 35.62 20.4225C35.62 20.72 35.745 20.8825 35.9775 21.0833L36.525 21.565C36.8825 21.8742 37.18 22.2583 37.18 22.8383C37.18 23.4717 36.7358 23.9158 36.0808 23.9158C35.2783 23.9167 34.8992 23.45 34.8666 22.5783ZM38.1217 19.4692H38.9775L39.855 23.8567H39.1133L38.94 22.8433H38.1758L38 23.8567H37.25L38.1217 19.4692ZM38.8533 22.3333L38.555 20.4917L38.2575 22.3333H38.8533ZM38.6583 18.0833H39.4083L38.7633 19.1667H38.3333L38.6583 18.0833ZM39.7633 19.4692H40.4675L41.0466 22.5725L41.5942 19.4692H42.3142L41.4317 23.8567H40.6458L39.7633 19.4692ZM42.6017 19.4692H44.4433V20.0325H43.3975V21.2942H44.2208V21.8525H43.3975V23.3092H44.4542V23.8567H42.6017V19.4692ZM44.7791 19.4692H45.57V23.8567H44.7791V19.4692ZM45.9758 22.5783L46.6642 22.4425C46.6858 22.9625 46.81 23.2983 47.1642 23.2983C47.4142 23.2983 47.5267 23.125 47.5267 22.8867C47.5267 22.5075 47.3317 22.2967 47.045 22.0475L46.4925 21.565C46.1775 21.2942 45.9825 20.9908 45.9825 20.5033C45.9825 19.81 46.4167 19.42 47.115 19.42C47.9383 19.42 48.1717 19.9725 48.215 20.6117L47.5267 20.7308C47.5108 20.3192 47.4508 20.0108 47.0992 20.0108C46.8608 20.0108 46.7308 20.1892 46.7308 20.4225C46.7308 20.72 46.855 20.8825 47.0883 21.0833L47.635 21.565C47.9925 21.8742 48.2908 22.2583 48.2908 22.8383C48.2908 23.4717 47.8467 23.9158 47.1908 23.9158C46.3875 23.9167 46.0083 23.45 45.9758 22.5783ZM45.3425 31.1392C42.6758 29.0308 39.135 28.9875 37.8425 29.2958L37.6925 29.3308C36.1967 29.6842 33.82 30.2683 31.0383 33.7208C31.0225 33.74 31.0067 33.7592 30.9917 33.7792L30.9567 33.8217C30.9274 33.8604 30.9111 33.9073 30.91 33.9558C30.91 33.9964 30.9204 34.0362 30.94 34.0717L31.005 34.1783C31.3542 34.7617 31.7942 35.5117 32.1667 36.2067C32.1705 36.2134 32.1738 36.2203 32.1767 36.2275C32.1967 36.2667 32.2271 36.2996 32.2646 36.3227C32.302 36.3458 32.3451 36.3581 32.3892 36.3583C32.4513 36.359 32.5113 36.3351 32.5558 36.2917C32.5733 36.2692 32.5908 36.245 32.6067 36.2208C35.0758 32.8042 37.0167 32.335 38.33 32.0258L38.4875 31.9892C39.1692 31.8225 41.7608 31.835 43.6317 33.3125C45.0917 34.465 45.8333 36.2992 45.8333 38.7633C45.8333 42.8975 43.8225 44.5133 42.135 45.1433C39.5217 46.1208 37.015 44.81 36.9967 44.8042L36.8842 44.75C35.4483 44.1267 33.3058 42.8333 31.2858 38.7733C27.21 30.5992 23.8058 29.8333 21.5533 29.3192L21.4325 29.2925C20.4067 29.06 16.8442 28.895 14.0442 31.13C12.5808 32.2967 10.8383 34.5667 10.8383 38.7475C10.8383 41.2942 11.3617 42.9767 12.7067 44.7475C13.0017 45.1508 16.0158 49.0233 21.8433 47.9058C22.7758 47.7275 24.04 47.2825 25.4267 46.2392L26.7092 47.3958C26.7503 47.4323 26.8042 47.4513 26.8591 47.4486C26.9141 47.446 26.9658 47.422 27.0033 47.3817C27.038 47.3438 27.0565 47.2938 27.055 47.2425V47.225L27.98 41.5333V41.47C27.9797 41.4414 27.9734 41.4131 27.9617 41.387C27.9499 41.3609 27.9329 41.3375 27.9117 41.3183C27.8747 41.2844 27.826 41.2662 27.7758 41.2675H27.7358L27.6758 41.2742L22.2242 42.8L22.125 42.8167C22.0844 42.8246 22.0477 42.8461 22.0208 42.8775C22.0022 42.8977 21.9877 42.9215 21.9784 42.9473C21.969 42.9732 21.9649 43.0007 21.9663 43.0282C21.9677 43.0556 21.9746 43.0826 21.9865 43.1073C21.9984 43.1321 22.0152 43.1543 22.0358 43.1725L22.1 43.2317L23.3217 44.335C22.5325 44.8458 21.845 45.08 21.3217 45.1817C17.105 45.9858 15.0233 43.225 14.9442 43.1167L14.9167 43.0833C13.9367 41.7975 13.6058 40.7042 13.6058 38.75C13.6058 36.2783 14.3342 34.4425 15.7725 33.2958C17.5958 31.8408 20.1108 31.8325 20.8208 31.9942L20.9433 32.0217C22.7892 32.4383 25.3192 33.0117 28.8025 40.01C30.6125 43.6433 32.8783 46.0192 35.7308 47.2717C37.085 47.9273 38.5688 48.2712 40.0733 48.2783C41.1056 48.2815 42.1301 48.0998 43.0983 47.7417C44.7517 47.125 48.5983 45.0167 48.5983 38.7658C48.5983 34.5883 46.8292 32.3142 45.3483 31.1417" fill="white"/>
</g>
<defs>
<clipPath id="clip0_274_55">
<rect width="60" height="60" fill="white"/>
</clipPath>
</defs>
</svg>
