<svg width="60" height="60" viewBox="0 0 60 60" fill="none" xmlns="http://www.w3.org/2000/svg">
<g clip-path="url(#clip0_274_6)">
<path d="M-0.0899963 -0.0900269H60.09V60.09H-0.0899963V-0.0900269Z" fill="#4C9F38"/>
<path d="M4.55084 13.3467V12.95H6.73251V13.3333C6.75001 14.4517 6.94501 14.9758 7.66668 14.9758C8.40334 14.9758 8.55918 14.4092 8.55918 13.3183C8.55918 12.1708 8.29001 11.5192 7.28418 11.4908C7.15725 11.4761 7.02935 11.4713 6.90168 11.4767V9.87583H7.24168C8.26168 9.87583 8.55918 9.35167 8.55918 8.17583C8.55918 7.25917 8.34668 6.73083 7.62418 6.73083C6.90168 6.73083 6.75001 7.35417 6.73251 8.25V8.76H4.55084V8.13333C4.55084 6.12167 5.68418 4.98833 7.62501 4.98833C9.58001 4.98833 10.7133 6.065 10.7133 8.0625C10.7133 9.40833 10.09 10.3433 9.26834 10.57C10.1017 10.8817 10.7133 11.6467 10.7133 13.2758C10.7133 15.3592 9.88001 16.8175 7.63918 16.8175C5.34418 16.8175 4.55084 15.4292 4.55084 13.3467ZM15.6383 8.245L16.3267 8.10917C16.3483 8.62917 16.4725 8.965 16.8267 8.965C17.0767 8.965 17.1892 8.79167 17.1892 8.55333C17.1892 8.17417 16.9942 7.96333 16.7075 7.71417L16.155 7.23167C15.8408 6.96083 15.6458 6.6575 15.6458 6.17C15.6458 5.47667 16.0792 5.08667 16.7775 5.08667C17.6008 5.08667 17.8342 5.63917 17.8775 6.27833L17.1892 6.3975C17.1733 5.98583 17.1133 5.6775 16.7617 5.6775C16.5233 5.6775 16.3933 5.85583 16.3933 6.08917C16.3933 6.38667 16.5175 6.54917 16.7508 6.75L17.2975 7.23167C17.655 7.54083 17.9533 7.925 17.9533 8.505C17.9533 9.13833 17.5092 9.5825 16.8533 9.5825C16.05 9.58333 15.6708 9.11667 15.6383 8.245ZM19.0292 5.13583H19.885L20.7625 9.52333H20.0208L19.8475 8.51H19.0833L18.905 9.52333H18.155L19.0292 5.13583ZM19.7608 8L19.4625 6.15833L19.1667 8H19.7608ZM21.12 8.10417V5.13583H21.9V8.19583C21.9 8.6125 21.9492 8.98667 22.355 8.98667C22.7608 8.98667 22.8158 8.61333 22.8158 8.19583V5.13583H23.59V8.10417C23.59 9.02083 23.3358 9.5825 22.355 9.5825C21.3742 9.5825 21.12 9.025 21.12 8.10417ZM22.4633 3.75H23.2133L22.5667 4.83333H22.1383L22.4633 3.75ZM24.1917 5.13583H25.2258C26.2933 5.13583 26.6183 5.56333 26.6183 6.50083V8.09833C26.6183 9.0625 26.285 9.52333 25.2583 9.52333H24.1917V5.13583ZM25.2367 8.965C25.7842 8.965 25.8058 8.6725 25.8058 8.12583V6.44667C25.8058 5.92083 25.7517 5.70417 25.2225 5.70417H24.9842V8.965H25.2367ZM27.1817 5.13583H29.0233V5.69917H27.9775V6.96083H28.8008V7.51917H27.9775V8.97583H29.0342V9.52333H27.1817V5.13583ZM30.7617 5.13583H32.6033V5.69917H31.5583V6.96083H32.3817V7.51917H31.5583V8.97583H32.6142V9.52333H30.7617V5.13583ZM15.75 12.3025H16.8333C17.6025 12.3025 18.1175 12.5625 18.1175 13.4292C18.1175 13.965 17.895 14.2625 17.4833 14.3283C17.9983 14.4258 18.2417 14.7942 18.2417 15.4117C18.2417 16.2508 17.83 16.69 17.0175 16.69H15.75V12.3025ZM16.8225 14.095C17.2992 14.095 17.4242 13.8842 17.4242 13.44C17.4242 12.9742 17.1967 12.8567 16.7092 12.8567H16.5467V14.0917L16.8225 14.095ZM16.855 16.1267C17.3425 16.1267 17.4783 15.8992 17.4783 15.4058C17.4783 14.8858 17.305 14.6475 16.8283 14.6475H16.5467V16.1267H16.855ZM18.7367 12.3025H20.5783V12.8658H19.5333V14.1275H20.3567V14.6858H19.5333V16.1425H20.5892V16.69H18.7367V12.3025ZM21.0933 12.3025H21.9217L22.545 15.3408L23.1892 12.3025H24L24.0833 16.69H23.4875L23.4225 13.64L22.8 16.69H22.3175L21.6842 13.6292L21.6242 16.69H21.0233L21.0933 12.3025ZM24.6792 14.6667H25.9842V15.1667H24.6792V14.6667ZM26.5967 12.3025H28.4383V12.8658H27.3925V14.1275H28.2158V14.6858H27.3925V16.1425H28.4492V16.69H26.5967V12.3025ZM28.7792 15.4117L29.4675 15.2758C29.4892 15.7958 29.6133 16.1317 29.9675 16.1317C30.2217 16.1317 30.33 15.9583 30.33 15.72C30.33 15.3408 30.135 15.13 29.8483 14.8808L29.2958 14.3983C28.9817 14.1275 28.7867 13.8242 28.7867 13.3367C28.7867 12.6433 29.22 12.2533 29.9183 12.2533C30.7417 12.2533 30.975 12.8058 31.0183 13.445L30.33 13.5642C30.3142 13.1525 30.2542 12.8442 29.9025 12.8442C29.6642 12.8442 29.5342 13.0225 29.5342 13.2558C29.5342 13.5533 29.6583 13.7158 29.8917 13.9167L30.4383 14.3983C30.7958 14.7075 31.0942 15.0917 31.0942 15.6717C31.0942 16.305 30.65 16.7492 29.9942 16.7492C29.1908 16.75 28.8117 16.2833 28.7792 15.4117ZM31.975 12.8925H31.2767V12.3025H33.4592V12.8925H32.7767V16.69H31.975V12.8925ZM34.38 12.3025H35.2358L36.1133 16.69H35.3717L35.1983 15.6767H34.4342L34.2558 16.69H33.5058L34.38 12.3025ZM35.1117 15.1667L34.8133 13.325L34.5158 15.1667H35.1117ZM36.525 12.3025H37.5833C38.4608 12.3025 38.9592 12.5842 38.9592 13.4692C38.9592 13.995 38.8292 14.3633 38.4175 14.5308L39.0292 16.6925H38.2275L37.7025 14.6825H37.3233V16.6925H36.525V12.3025ZM37.5758 14.1817C38.0367 14.1817 38.2042 13.9817 38.2042 13.51C38.2042 13.0658 38.08 12.8492 37.6208 12.8492H37.3233V14.1825L37.5758 14.1817ZM50.3058 37.555C50.3058 35.8542 49.2142 34.4717 47.5608 34.4717C46.7342 34.4717 45.7367 35.3767 45.1958 35.9333C44.6542 35.3758 43.7225 34.47 42.8958 34.47C41.2425 34.47 40.0842 35.8492 40.0842 37.5533C40.0811 38.3662 40.396 39.1479 40.9617 39.7317L45.1992 43.9775L49.4308 39.7367C49.9962 39.1516 50.3102 38.3686 50.3058 37.555Z" fill="white"/>
<path d="M32.2625 50.9092H32.22C32.0634 50.8994 31.9147 50.8371 31.7979 50.7323C31.6812 50.6275 31.6032 50.4863 31.5767 50.3317L29.4242 37.7942L26.1667 43.84C26.0971 43.9687 25.9887 44.0722 25.8569 44.1358C25.7251 44.1994 25.5766 44.2198 25.4326 44.1942C25.2885 44.1685 25.1562 44.0981 25.0545 43.9929C24.9527 43.8877 24.8867 43.7532 24.8659 43.6083L23.4784 33.9333L20.945 39.6217C20.8909 39.7453 20.8019 39.8505 20.689 39.9245C20.5761 39.9985 20.4442 40.038 20.3092 40.0383H10.4659C10.3745 40.0383 10.284 40.0203 10.1996 39.9854C10.1151 39.9504 10.0384 39.8992 9.97382 39.8345C9.90921 39.7699 9.85796 39.6932 9.82299 39.6088C9.78802 39.5244 9.77002 39.4339 9.77002 39.3425C9.77002 39.2511 9.78802 39.1606 9.82299 39.0762C9.85796 38.9918 9.90921 38.9151 9.97382 38.8505C10.0384 38.7859 10.1151 38.7346 10.1996 38.6996C10.284 38.6647 10.3745 38.6467 10.4659 38.6467H19.8575L23.1909 31.1642C23.2524 31.0264 23.357 30.9124 23.489 30.8392C23.6209 30.7661 23.7731 30.7379 23.9225 30.7587C24.0719 30.7796 24.2105 30.8485 24.3174 30.955C24.4243 31.0615 24.4936 31.1998 24.515 31.3492L25.9425 41.325L29.1584 35.3633C29.2271 35.2359 29.3338 35.133 29.4638 35.0691C29.5937 35.0052 29.7404 34.9834 29.8833 35.0068C30.0262 35.0302 30.1582 35.0976 30.261 35.1996C30.3638 35.3016 30.4322 35.4331 30.4567 35.5758L32.45 47.1867L39.715 23.0533C39.7554 22.919 39.8354 22.8 39.9446 22.7119C40.0538 22.6239 40.187 22.5709 40.3269 22.5599C40.4667 22.5489 40.6066 22.5804 40.7282 22.6503C40.8499 22.7203 40.9475 22.8253 41.0084 22.9517L44.8334 30.8725C44.873 30.9549 44.8961 31.0442 44.9012 31.1355C44.9064 31.2267 44.8935 31.3181 44.8633 31.4044C44.8331 31.4907 44.7862 31.5702 44.7253 31.6383C44.6644 31.7065 44.5907 31.762 44.5084 31.8017C44.426 31.8413 44.3367 31.8644 44.2454 31.8695C44.1541 31.8747 44.0627 31.8618 43.9765 31.8316C43.8902 31.8014 43.8107 31.7546 43.7425 31.6937C43.6744 31.6328 43.6189 31.559 43.5792 31.4767L40.5309 25.1667L32.9292 50.4167C32.8855 50.5593 32.7971 50.6842 32.6771 50.7729C32.557 50.8615 32.4117 50.9093 32.2625 50.9092Z" fill="white"/>
</g>
<defs>
<clipPath id="clip0_274_6">
<rect width="60" height="60" fill="white"/>
</clipPath>
</defs>
</svg>
