<svg width="60" height="60" viewBox="0 0 60 60" fill="none" xmlns="http://www.w3.org/2000/svg">
<g clip-path="url(#clip0_274_11)">
<path d="M-0.00915527 -0.0900269H60.0092V60.09H-0.00915527V-0.0900269Z" fill="#E5243B"/>
<path d="M4.25003 7.41086C3.91003 7.59503 2.93253 7.8642 2.59253 8.0342V6.40503C3.04586 6.22086 4.3067 5.6117 4.7317 5.1442H6.44336V16.6192H4.25003V7.41086ZM12.2325 5.13586H14.075V5.6992H13.0292V6.96086H13.8525V7.5192H13.0292V8.97586H14.0834V9.52336H12.2325V5.13586ZM14.4425 5.13586H15.5C16.3775 5.13586 16.8759 5.41753 16.8759 6.30253C16.8759 6.82836 16.7459 7.1967 16.3342 7.3642L16.9459 9.52586H16.1442L15.6192 7.51586H15.24V9.52586H14.4434L14.4425 5.13586ZM15.4934 7.01503C15.9542 7.01503 16.1217 6.81503 16.1217 6.34336C16.1217 5.8992 15.9975 5.68253 15.5384 5.68253H15.2409V7.01586L15.4934 7.01503ZM17.3734 5.13586H18.4292C19.3067 5.13586 19.8059 5.41753 19.8059 6.30253C19.8059 6.82836 19.675 7.1967 19.2634 7.3642L19.8759 9.52586H19.0742L18.5484 7.51586H18.1667V9.52586H17.3709L17.3734 5.13586ZM18.4242 7.01503C18.8842 7.01503 19.0525 6.81503 19.0525 6.34336C19.0525 5.8992 18.9275 5.68253 18.4692 5.68253H18.1667V7.01586L18.4242 7.01503ZM20.9592 5.13586H21.815L22.6925 9.52336H21.95L21.7767 8.51003H21.0134L20.8334 9.52336H20.0834L20.9592 5.13586ZM21.69 8.00003L21.3925 6.15836L21.0942 8.00003H21.69ZM23.0225 5.13586H24.0575C25.1242 5.13586 25.4492 5.56336 25.4492 6.50086V8.09836C25.4492 9.06253 25.1159 9.52336 24.09 9.52336H23.0225V5.13586ZM24.0684 8.96503C24.615 8.96503 24.6367 8.67253 24.6367 8.12586V6.4467C24.6367 5.92086 24.5825 5.7042 24.0575 5.7042H23.8192V8.96503H24.0684ZM25.9534 5.13586H26.7442V9.52336H25.9534V5.13586ZM27.2425 8.12003V6.55503C27.2425 5.65586 27.5292 5.0867 28.4925 5.0867C29.3917 5.0867 29.6792 5.5867 29.6792 6.3492V6.71753H28.91V6.33836C28.91 5.97003 28.9042 5.6717 28.4984 5.6717C28.0925 5.6717 28.0484 5.98586 28.0484 6.3867V8.28836C28.0484 8.76503 28.1459 8.99253 28.4984 8.99253C28.8934 8.99253 28.91 8.68336 28.91 8.29336V7.89836H29.6792V8.25003C29.6792 9.02503 29.4192 9.58336 28.4925 9.58336C27.5292 9.58336 27.2425 8.97586 27.2425 8.12003ZM30.785 5.13586H31.6409L32.5184 9.52336H31.7759L31.6025 8.51003H30.8392L30.66 9.52336H29.91L30.785 5.13586ZM31.5159 8.00003L31.2184 6.15836L30.9167 8.00003H31.5159ZM34.4167 6.71753V6.33836C34.4167 5.97003 34.4117 5.6717 34.005 5.6717C33.5984 5.6717 33.5559 5.98586 33.5559 6.3867V8.28836C33.5559 8.76503 33.6534 8.99253 34.005 8.99253C34.4009 8.99253 34.4167 8.68336 34.4167 8.29336V7.89836H35.1859V8.25003C35.1859 8.99253 34.9475 9.5392 34.1084 9.58336V9.8542C34.5092 9.8542 34.78 10.0334 34.78 10.3692C34.78 10.7534 34.4384 10.9159 34.0434 10.9159C33.9112 10.9146 33.7799 10.8946 33.6534 10.8567V10.515C33.748 10.5445 33.8467 10.5591 33.9459 10.5584C34.135 10.5584 34.2792 10.5042 34.2792 10.3584C34.2792 10.1634 34.0575 10.0925 33.8025 10.0659V9.57253C33.0009 9.4892 32.7517 8.9117 32.7517 8.12086V6.55503C32.75 5.65586 33.0384 5.08336 34 5.08336C34.8992 5.08336 35.1859 5.58336 35.1859 6.34586V6.7142L34.4167 6.71753ZM36.2934 5.13586H37.1492L38.0267 9.52336H37.285L37.1117 8.51003H36.3475L36.1667 9.52336H35.4167L36.2934 5.13586ZM36.46 4.30253C36.3184 4.30253 36.27 4.38586 36.27 4.52503H35.8909C35.8909 4.13503 35.9992 3.84253 36.3517 3.84253C36.6167 3.84253 36.7959 4.09253 37.0284 4.09253C37.1534 4.09253 37.2017 4.0167 37.2017 3.87586H37.5592C37.5592 4.2167 37.5 4.55836 37.1475 4.55836C36.8675 4.5617 36.6834 4.3067 36.4617 4.3067L36.46 4.30253ZM37.025 8.00003L36.7267 6.15836L36.4292 8.00003H37.025ZM38.2434 8.14753V6.50003C38.2434 5.6117 38.5684 5.08336 39.5109 5.08336C40.4534 5.08336 40.7734 5.6092 40.7734 6.50003V8.14753C40.7734 9.03003 40.4484 9.58253 39.5109 9.58253C38.5734 9.58253 38.2434 9.03586 38.2434 8.14753ZM39.9609 8.33336V6.3167C39.9609 5.94836 39.9009 5.6717 39.5109 5.6717C39.1209 5.6717 39.0559 5.94836 39.0559 6.3167V8.33336C39.0559 8.6967 39.115 8.9892 39.5109 8.9892C39.9067 8.9892 39.9609 8.70003 39.9609 8.33336ZM12.2325 12.3025H13.2675C14.335 12.3025 14.66 12.73 14.66 13.6675V15.265C14.66 16.2292 14.3267 16.69 13.3 16.69H12.2325V12.3025ZM13.2784 16.1359C13.8259 16.1359 13.8475 15.8434 13.8475 15.2967V13.6134C13.8475 13.0875 13.7934 12.8709 13.2642 12.8709H13.0259V16.1317L13.2784 16.1359ZM15.7642 12.3025H16.62L17.5 16.69H16.7575L16.5834 15.6767H15.8192L15.6409 16.69H14.8909L15.7642 12.3025ZM16.5 15.1667L16.2025 13.325L15.9 15.1667H16.5ZM19.0359 12.3025H20.325C21.1109 12.3025 21.4467 12.7575 21.4467 13.5525C21.4467 14.4134 20.9809 14.7442 20.2709 14.7442H19.8334V16.6942H19.0367L19.0359 12.3025ZM20.1409 14.1767C20.58 14.1767 20.6934 14.01 20.6934 13.5425C20.6934 13.075 20.6342 12.8659 20.1409 12.8659H19.8334V14.1767H20.1409ZM21.7117 15.3142V13.6667C21.7117 12.7784 22.0367 12.25 22.9792 12.25C23.9217 12.25 24.2417 12.7759 24.2417 13.6667V15.3134C24.2417 16.1959 23.9167 16.7484 22.9792 16.7484C22.0417 16.7484 21.7117 16.2025 21.7117 15.3142ZM23.4292 15.5V13.4834C23.4292 13.115 23.3692 12.8384 22.9792 12.8384C22.5892 12.8384 22.5242 13.115 22.5242 13.4834V15.5C22.5242 15.8634 22.5842 16.1559 22.9792 16.1559C23.3742 16.1559 23.4292 15.8667 23.4292 15.5ZM24.7234 12.3025H25.8067C26.5759 12.3025 27.0909 12.5625 27.0909 13.4292C27.0909 13.965 26.8684 14.2625 26.4567 14.3284C26.9717 14.4259 27.215 14.7942 27.215 15.4117C27.215 16.2509 26.8034 16.69 25.9909 16.69H24.7234V12.3025ZM25.7959 14.095C26.2725 14.095 26.3975 13.8842 26.3975 13.44C26.3975 12.9742 26.17 12.8567 25.6825 12.8567H25.52V14.0917L25.7959 14.095ZM25.8284 16.1267C26.3159 16.1267 26.4517 15.8992 26.4517 15.4059C26.4517 14.8859 26.2784 14.6475 25.8017 14.6475H25.52V16.1267H25.8284ZM27.6325 12.3025H28.6884C29.5659 12.3025 30.0642 12.5842 30.0642 13.4692C30.0642 13.995 29.9342 14.3634 29.5225 14.5309L30.135 16.6925H29.3334L28.8075 14.6825H28.4284V16.6925H27.6325V12.3025ZM28.6834 14.1817C29.1434 14.1817 29.3117 13.9817 29.3117 13.51C29.3117 13.0659 29.1867 12.8492 28.7284 12.8492H28.43V14.1825L28.6834 14.1817ZM30.5625 12.3025H32.4042V12.8659H31.3592V14.1275H32.1825V14.6859H31.3592V16.1425H32.4167V16.69H30.5625V12.3025ZM32.6259 16.175L33.8017 12.855H32.6859V12.3025H34.6092V12.7142L33.385 16.1425H34.6142V16.69H32.6259V16.175ZM35.6217 12.3025H36.4775L37.355 16.69H36.6134L36.44 15.6767H35.6759L35.5 16.69H34.75L35.6217 12.3025ZM36.3534 15.1667L36.055 13.325L35.7567 15.1667H36.3534ZM46.3334 28.615C46.3334 28.2841 46.4315 27.9607 46.6153 27.6855C46.799 27.4104 47.0603 27.1959 47.366 27.0692C47.6716 26.9425 48.008 26.9093 48.3325 26.9737C48.6571 27.0382 48.9552 27.1974 49.1893 27.4312C49.4234 27.6651 49.5829 27.9631 49.6477 28.2876C49.7124 28.612 49.6795 28.9484 49.5531 29.2542C49.4267 29.56 49.2125 29.8215 48.9376 30.0055C48.6626 30.1896 48.3392 30.288 48.0084 30.2884C47.7885 30.2885 47.5708 30.2453 47.3676 30.1612C47.1645 30.0772 46.9798 29.954 46.8243 29.7986C46.6688 29.6432 46.5454 29.4587 46.4611 29.2556C46.3769 29.0526 46.3335 28.8349 46.3334 28.615ZM49.9592 30.9342C50.5133 30.9851 51.0283 31.2414 51.4031 31.6526C51.7779 32.0638 51.9855 32.6003 51.985 33.1567V37.7967C51.979 37.9647 51.908 38.1239 51.787 38.2406C51.666 38.3574 51.5044 38.4226 51.3363 38.4226C51.1681 38.4226 51.0066 38.3574 50.8856 38.2406C50.7645 38.1239 50.6936 37.9647 50.6875 37.7967V33.8117C50.6875 33.6625 50.6442 33.46 50.3709 33.46C50.1825 33.46 50.1425 33.66 50.1359 33.7875V45.7309C50.1286 45.9735 50.0271 46.2037 49.853 46.3727C49.6788 46.5418 49.4457 46.6363 49.2029 46.6363C48.9602 46.6363 48.7271 46.5418 48.5529 46.3727C48.3787 46.2037 48.2773 45.9735 48.27 45.7309V38.8484C48.2735 38.8124 48.2691 38.7761 48.2571 38.742C48.2452 38.7079 48.226 38.6768 48.2009 38.6508C48.1758 38.6248 48.1454 38.6046 48.1117 38.5915C48.078 38.5784 48.0419 38.5728 48.0059 38.575C47.9696 38.5732 47.9334 38.579 47.8996 38.5922C47.8658 38.6053 47.8352 38.6254 47.8097 38.6512C47.7842 38.677 47.7644 38.708 47.7517 38.7419C47.739 38.7759 47.7336 38.8122 47.7359 38.8484V45.7309C47.7359 45.978 47.6377 46.2149 47.463 46.3897C47.2883 46.5644 47.0513 46.6625 46.8042 46.6625C46.5571 46.6625 46.3201 46.5644 46.1454 46.3897C45.9707 46.2149 45.8725 45.978 45.8725 45.7309V33.7875C45.8667 33.66 45.8259 33.46 45.6384 33.46C45.3634 33.46 45.3217 33.6625 45.3217 33.8117V37.7967C45.3157 37.9647 45.2447 38.1239 45.1237 38.2406C45.0027 38.3574 44.8411 38.4226 44.673 38.4226C44.5048 38.4226 44.3432 38.3574 44.2222 38.2406C44.1012 38.1239 44.0302 37.9647 44.0242 37.7967V33.1567C44.024 32.5999 44.232 32.0632 44.6073 31.652C44.9826 31.2408 45.4981 30.9847 46.0525 30.9342C46.0931 30.9281 46.134 30.9247 46.175 30.9242H49.8334C49.8758 30.9247 49.9181 30.9281 49.96 30.9342M36.3784 29.4942C36.3784 29.181 36.2855 28.8749 36.1115 28.6145C35.9375 28.3542 35.6903 28.1512 35.4009 28.0314C35.1116 27.9115 34.7933 27.8802 34.4861 27.9413C34.179 28.0024 33.8969 28.1532 33.6754 28.3746C33.454 28.596 33.3032 28.8782 33.2421 29.1853C33.181 29.4924 33.2124 29.8108 33.3322 30.1001C33.4521 30.3894 33.655 30.6367 33.9154 30.8107C34.1758 30.9847 34.4819 31.0775 34.795 31.0775C35.215 31.0775 35.6177 30.9107 35.9146 30.6138C36.2116 30.3168 36.3784 29.9141 36.3784 29.4942ZM31.6009 33.0834L30.2834 37.3725C30.2834 37.3725 30.0492 38.1592 30.7159 38.355C31.3825 38.5509 31.5834 37.7842 31.5834 37.7842L32.6459 34.2009C32.6459 34.2009 32.7034 33.925 32.91 33.985C33.1167 34.045 33.04 34.3392 33.04 34.3392L31.1909 41.0467H32.91V45.8517C32.91 46.0707 32.997 46.2808 33.1519 46.4356C33.3068 46.5905 33.5168 46.6775 33.7359 46.6775C33.9549 46.6775 34.1649 46.5905 34.3198 46.4356C34.4747 46.2808 34.5617 46.0707 34.5617 45.8517V41.0509H35.0309V45.8559C35.0309 46.0749 35.1179 46.2849 35.2727 46.4398C35.4276 46.5947 35.6377 46.6817 35.8567 46.6817C36.0757 46.6817 36.2858 46.5947 36.4407 46.4398C36.5955 46.2849 36.6825 46.0749 36.6825 45.8559V41.0509H38.4017L36.5542 34.3434C36.5542 34.3434 36.4759 34.0484 36.6825 33.9892C36.8892 33.93 36.9475 34.205 36.9475 34.205L38.01 37.7884C38.01 37.7884 38.2117 38.5559 38.8742 38.3592C39.5367 38.1625 39.3067 37.3767 39.3067 37.3767L37.9867 33.0834C37.9867 33.0834 37.5167 31.8434 36.4734 31.8434H33.115C32.0725 31.8434 31.6009 33.0834 31.6009 33.0834ZM26.8859 29.4942C26.8859 29.181 26.793 28.8749 26.619 28.6145C26.445 28.3542 26.1978 28.1512 25.9084 28.0314C25.6191 27.9115 25.3008 27.8802 24.9936 27.9413C24.6865 28.0024 24.4044 28.1532 24.1829 28.3746C23.9615 28.596 23.8107 28.8782 23.7496 29.1853C23.6885 29.4924 23.7199 29.8108 23.8397 30.1001C23.9596 30.3894 24.1625 30.6367 24.4229 30.8107C24.6833 30.9847 24.9894 31.0775 25.3025 31.0775C25.7225 31.0775 26.1252 30.9107 26.4221 30.6138C26.719 30.3168 26.8859 29.9141 26.8859 29.4942ZM22.1084 33.0834L20.7917 37.3717C20.7917 37.3717 20.5559 38.1584 21.2234 38.3542C21.8909 38.55 22.0875 37.7834 22.0875 37.7834L23.15 34.2C23.15 34.2 23.2084 33.9242 23.415 33.9842C23.6217 34.0442 23.5442 34.3384 23.5442 34.3384L21.6959 41.0459H23.4167V45.8509C23.4167 46.0699 23.5037 46.2799 23.6586 46.4348C23.8134 46.5897 24.0235 46.6767 24.2425 46.6767C24.4616 46.6767 24.6716 46.5897 24.8265 46.4348C24.9814 46.2799 25.0684 46.0699 25.0684 45.8509V41.0509H25.5375V45.8559C25.5375 46.0749 25.6245 46.2849 25.7794 46.4398C25.9343 46.5947 26.1443 46.6817 26.3634 46.6817C26.5824 46.6817 26.7924 46.5947 26.9473 46.4398C27.1022 46.2849 27.1892 46.0749 27.1892 45.8559V41.0509H28.9084L27.0609 34.3434C27.0609 34.3434 26.9825 34.0484 27.1892 33.9892C27.3959 33.93 27.4542 34.205 27.4542 34.205L28.515 37.7884C28.515 37.7884 28.7175 38.5559 29.3809 38.3592C30.0442 38.1625 29.8125 37.3767 29.8125 37.3767L28.4934 33.0834C28.4934 33.0834 28.0242 31.8434 26.9809 31.8434H23.6225C22.5834 31.8442 22.1084 33.0834 22.1084 33.0834ZM41.7009 38.3642C41.9617 38.3642 42.2167 38.2868 42.4337 38.1419C42.6506 37.997 42.8197 37.791 42.9195 37.55C43.0194 37.309 43.0456 37.0438 42.9947 36.788C42.9439 36.5321 42.8184 36.2971 42.6339 36.1125C42.4495 35.928 42.2146 35.8023 41.9587 35.7513C41.7029 35.7003 41.4377 35.7263 41.1966 35.826C40.9556 35.9258 40.7495 36.0947 40.6044 36.3115C40.4594 36.5284 40.3819 36.7833 40.3817 37.0442C40.3814 37.2176 40.4153 37.3893 40.4814 37.5495C40.5476 37.7098 40.6447 37.8554 40.7673 37.978C40.8898 38.1006 41.0354 38.1979 41.1956 38.2642C41.3558 38.3304 41.5275 38.3644 41.7009 38.3642ZM38.5384 42.4625C38.4734 42.6167 38.4209 42.9442 38.73 43.0867C39.0934 43.2534 39.2959 42.9025 39.2959 42.9025L40.0125 40.615C40.0125 40.615 40.1375 40.4625 40.1375 40.6209V46.0042C40.1375 46.1837 40.2088 46.3558 40.3357 46.4827C40.4626 46.6096 40.6347 46.6809 40.8142 46.6809C40.9937 46.6809 41.1658 46.6096 41.2927 46.4827C41.4196 46.3558 41.4909 46.1837 41.4909 46.0042V43.88C41.4909 43.88 41.4517 43.5792 41.6934 43.5792C41.935 43.5792 41.8984 43.88 41.8984 43.88V46.0042C41.8984 46.1841 41.9698 46.3566 42.097 46.4839C42.2243 46.6111 42.3968 46.6825 42.5767 46.6825C42.7566 46.6825 42.9291 46.6111 43.0564 46.4839C43.1836 46.3566 43.255 46.1841 43.255 46.0042V40.6209C43.255 40.4625 43.3384 40.575 43.3384 40.575L43.9 42.1409C43.9 42.1409 44.1442 42.8409 44.2192 42.8717C44.2799 42.897 44.3449 42.91 44.4107 42.9102C44.4764 42.9103 44.5415 42.8974 44.6023 42.8723C44.663 42.8473 44.7182 42.8104 44.7648 42.764C44.8113 42.7176 44.8482 42.6624 44.8734 42.6017C44.9066 42.5236 44.9191 42.4382 44.9098 42.3539C44.9005 42.2695 44.8695 42.189 44.82 42.12V42.115C44.8042 42.0642 43.98 40.0442 43.8834 39.76C43.5859 38.8917 43.0442 38.8992 42.5234 38.885C42.0025 38.8709 41.69 38.885 41.69 38.885C41.69 38.885 41.3567 38.8717 40.6684 38.8917C39.98 38.9117 39.7642 39.2659 39.0017 41.2167C38.8934 41.4975 38.5275 42.4067 38.5225 42.4617L38.5384 42.4625ZM12.7317 28.615C12.7317 28.2841 12.6336 27.9607 12.4498 27.6855C12.266 27.4104 12.0048 27.1959 11.6991 27.0692C11.3934 26.9425 11.0571 26.9093 10.7325 26.9737C10.408 27.0382 10.1098 27.1974 9.87573 27.4312C9.64164 27.6651 9.48214 27.9631 9.41739 28.2876C9.35263 28.612 9.38553 28.9484 9.51193 29.2542C9.63832 29.56 9.85254 29.8215 10.1275 30.0055C10.4025 30.1896 10.7258 30.288 11.0567 30.2884C11.2766 30.2885 11.4943 30.2453 11.6974 30.1612C11.9006 30.0772 12.0852 29.954 12.2408 29.7986C12.3963 29.6432 12.5197 29.4587 12.6039 29.2556C12.6882 29.0526 12.7316 28.8349 12.7317 28.615ZM9.10253 30.9342C8.54845 30.9853 8.03345 31.2416 7.65853 31.6527C7.2836 32.0639 7.0758 32.6003 7.07586 33.1567V37.7967C7.07586 37.9689 7.14426 38.134 7.266 38.2557C7.38774 38.3775 7.55286 38.4459 7.72503 38.4459C7.8972 38.4459 8.06232 38.3775 8.18406 38.2557C8.3058 38.134 8.3742 37.9689 8.3742 37.7967V33.8117C8.3742 33.6625 8.41753 33.46 8.69086 33.46C8.88003 33.46 8.9192 33.66 8.9267 33.7875V45.7309C8.9267 45.978 9.02485 46.2149 9.19957 46.3897C9.3743 46.5644 9.61127 46.6625 9.85836 46.6625C10.1055 46.6625 10.3424 46.5644 10.5172 46.3897C10.6919 46.2149 10.79 45.978 10.79 45.7309V38.8484C10.7875 38.8124 10.7927 38.7763 10.8051 38.7425C10.8175 38.7086 10.8369 38.6778 10.8621 38.652C10.8873 38.6261 10.9177 38.6059 10.9512 38.5927C10.9847 38.5794 11.0207 38.5734 11.0567 38.575C11.0929 38.573 11.1291 38.5788 11.1629 38.5919C11.1967 38.605 11.2273 38.6251 11.2527 38.651C11.2781 38.6769 11.2977 38.7079 11.3101 38.7419C11.3226 38.7759 11.3277 38.8122 11.325 38.8484V45.7309C11.3213 45.8556 11.3426 45.9798 11.3878 46.0962C11.433 46.2125 11.501 46.3186 11.588 46.4082C11.6749 46.4977 11.7789 46.5689 11.8938 46.6176C12.0088 46.6662 12.1323 46.6912 12.2571 46.6912C12.3819 46.6912 12.5055 46.6662 12.6204 46.6176C12.7353 46.5689 12.8394 46.4977 12.9263 46.4082C13.0132 46.3186 13.0813 46.2125 13.1264 46.0962C13.1716 45.9798 13.1929 45.8556 13.1892 45.7309V33.7875C13.1942 33.66 13.2367 33.46 13.4242 33.46C13.6992 33.46 13.74 33.6625 13.74 33.8117V37.7967C13.7461 37.9647 13.817 38.1239 13.938 38.2406C14.0591 38.3574 14.2206 38.4226 14.3888 38.4226C14.5569 38.4226 14.7185 38.3574 14.8395 38.2406C14.9605 38.1239 15.0315 37.9647 15.0375 37.7967V33.1567C15.038 32.6 14.8302 32.0633 14.455 31.6521C14.0798 31.2408 13.5644 30.9847 13.01 30.9342C12.9695 30.9281 12.9285 30.9247 12.8875 30.9242H9.2292C9.18652 30.9247 9.14393 30.928 9.1017 30.9342" fill="white"/>
<path d="M6.15751 46.705C6.13513 46.7048 6.11281 46.7026 6.09084 46.6983C5.99791 46.6808 5.91577 46.627 5.86248 46.5488C5.80919 46.4707 5.78912 46.3746 5.80668 46.2817L7.29334 38.4042C7.30099 38.3573 7.31793 38.3125 7.34316 38.2723C7.36839 38.2321 7.40141 38.1974 7.44027 38.1701C7.47913 38.1429 7.52305 38.1237 7.56943 38.1137C7.61582 38.1037 7.66374 38.103 7.71038 38.1118C7.75702 38.1206 7.80143 38.1386 7.841 38.1648C7.88056 38.191 7.91449 38.2249 7.94078 38.2644C7.96707 38.3039 7.98519 38.3483 7.99407 38.3949C8.00296 38.4415 8.00243 38.4894 7.99251 38.5358L6.50668 46.4167C6.49086 46.4977 6.4474 46.5708 6.38372 46.6234C6.32004 46.6759 6.24009 46.7048 6.15751 46.705ZM15.8333 37.6733C15.7782 37.5853 15.696 37.5174 15.599 37.48C15.5021 37.4425 15.3956 37.4375 15.2956 37.4657C15.1955 37.4938 15.1073 37.5536 15.0441 37.6361C14.9809 37.7187 14.9461 37.8194 14.945 37.9233C14.952 37.9956 14.968 38.0667 14.9925 38.135L16.3258 40.5417C16.3738 40.6411 16.4021 40.749 16.4092 40.8592V46.0258C16.4092 46.198 16.4776 46.3631 16.5993 46.4849C16.7211 46.6066 16.8862 46.675 17.0583 46.675C17.2305 46.675 17.3956 46.6066 17.5174 46.4849C17.6391 46.3631 17.7075 46.198 17.7075 46.0258V43.9908C17.7075 43.9908 17.6708 43.7025 17.9042 43.7025C18.1375 43.7025 18.1 43.9908 18.1 43.9908V46.03C18.1 46.2026 18.1686 46.3682 18.2906 46.4902C18.4127 46.6123 18.5782 46.6808 18.7508 46.6808C18.9235 46.6808 19.089 46.6123 19.2111 46.4902C19.3331 46.3682 19.4017 46.2026 19.4017 46.03V40.8633C19.4087 40.7531 19.437 40.6453 19.485 40.5458L20.7142 38.3233C20.7142 38.3233 20.8642 38.0042 20.8642 37.9275C20.8637 37.8003 20.8129 37.6784 20.7228 37.5886C20.6326 37.4988 20.5106 37.4483 20.3833 37.4483C20.3019 37.4479 20.2217 37.4685 20.1505 37.5081C20.0793 37.5476 20.0194 37.6048 19.9767 37.6742H19.9708C19.9325 37.7075 19.3167 38.8042 19.1142 39.0075C18.8983 39.2233 18.7067 39.2 18.7067 39.2H17.1033C17.1033 39.2 16.9092 39.2233 16.695 39.0075C16.4808 38.7917 15.8767 37.7075 15.8375 37.6742L15.8333 37.6733Z" fill="white"/>
<path d="M17.9017 38.3642C18.1626 38.3643 18.4177 38.2871 18.6347 38.1423C18.8517 37.9975 19.021 37.7916 19.1209 37.5506C19.2209 37.3096 19.2472 37.0444 19.1965 36.7885C19.1458 36.5325 19.0203 36.2974 18.8359 36.1128C18.6515 35.9282 18.4166 35.8024 18.1607 35.7513C17.9048 35.7003 17.6396 35.7262 17.3985 35.8259C17.1574 35.9256 16.9512 36.0946 16.8061 36.3114C16.661 36.5283 16.5835 36.7833 16.5833 37.0442C16.5831 37.2175 16.6171 37.3892 16.6833 37.5494C16.7495 37.7096 16.8467 37.8551 16.9692 37.9777C17.0917 38.1003 17.2372 38.1976 17.3974 38.2639C17.5575 38.3302 17.7292 38.3643 17.9025 38.3642M17.9033 40.2158L19.395 41.3033L20.1033 43.9125H15.7025L16.4125 41.3033L17.9033 40.2158Z" fill="white"/>
</g>
<defs>
<clipPath id="clip0_274_11">
<rect width="60" height="60" fill="white"/>
</clipPath>
</defs>
</svg>
