<svg width="60" height="60" viewBox="0 0 60 60" fill="none" xmlns="http://www.w3.org/2000/svg">
<g clip-path="url(#clip0_274_46)">
<path d="M-0.0899963 -0.0900269H60.09V60.09H-0.0899963V-0.0900269Z" fill="#DD1367"/>
<path d="M4.17667 7.41086C3.83333 7.59503 2.85917 7.8642 2.51917 8.0342V6.40503C2.9725 6.22086 4.23333 5.6117 4.65833 5.1442H6.3725V16.6192H4.17667V7.41086ZM6.81167 13.5V8.36003C6.81167 6.34836 7.76083 4.98836 9.88583 4.98836C11.9825 4.98836 12.9458 6.34836 12.9458 8.36003V13.5C12.9458 15.4409 11.8975 16.815 9.88583 16.815C7.83333 16.8175 6.81167 15.4575 6.81167 13.5ZM10.7217 13.4575V8.40253C10.7217 7.79336 10.665 6.91503 9.88833 6.91503C9.08083 6.91503 9.03833 7.79336 9.03833 8.40253V13.46C9.03833 14.0267 9.1375 14.8909 9.88833 14.8909C10.6225 14.8909 10.7217 14.0267 10.7217 13.46V13.4575ZM19.1442 5.13586H20.2008C21.0783 5.13586 21.5767 5.41753 21.5767 6.30253C21.5767 6.82836 21.4467 7.1967 21.035 7.3642L21.6467 9.52586H20.845L20.32 7.51586H19.9408V9.52586H19.1442V5.13586ZM20.195 7.01503C20.6558 7.01503 20.8233 6.81503 20.8233 6.34336C20.8233 5.8992 20.6992 5.68253 20.24 5.68253H19.9425V7.01586L20.195 7.01503ZM22.0425 5.13586H23.8842V5.6992H22.8383V6.96086H23.6617V7.5192H22.8383V8.97586H23.895V9.52336H22.0425V5.13586ZM24.2192 5.13586H25.2542C26.3217 5.13586 26.6467 5.56336 26.6467 6.50086V8.09836C26.6467 9.06253 26.3133 9.52336 25.2867 9.52336H24.2192V5.13586ZM25.265 8.96503C25.8117 8.96503 25.8342 8.67253 25.8342 8.12586V6.4467C25.8342 5.92086 25.78 5.7042 25.2508 5.7042H25.0125V8.96503H25.265ZM27.0633 8.1042V5.13586H27.8433V8.19586C27.8433 8.61253 27.8917 8.9867 28.2983 8.9867C28.705 8.9867 28.7592 8.61336 28.7592 8.19586V5.13586H29.5333V8.1042C29.5333 9.02086 29.2833 9.58253 28.2983 9.58253C27.3133 9.58253 27.0633 9.02503 27.0633 8.1042ZM31.6183 6.71753V6.33836C31.6183 5.97003 31.6133 5.6717 31.2067 5.6717C30.8 5.6717 30.7575 5.98586 30.7575 6.3867V8.28836C30.7575 8.76503 30.855 8.99253 31.2067 8.99253C31.6025 8.99253 31.6183 8.68336 31.6183 8.29336V7.89836H32.3883V8.25003C32.3883 8.99253 32.1492 9.5392 31.31 9.58336V9.8542C31.7108 9.8542 31.9817 10.0334 31.9817 10.3692C31.9817 10.7534 31.64 10.9159 31.245 10.9159C31.1129 10.9146 30.9816 10.8946 30.855 10.8567V10.515C30.9497 10.5445 31.0483 10.5591 31.1475 10.5584C31.3367 10.5584 31.4808 10.5042 31.4808 10.3584C31.4808 10.1634 31.2592 10.0925 31.0042 10.0659V9.57253C30.2025 9.4892 29.9533 8.9117 29.9533 8.12086V6.55503C29.9533 5.65586 30.2408 5.0867 31.2033 5.0867C32.1025 5.0867 32.39 5.5867 32.39 6.3492V6.71753H31.6183ZM33.46 5.13586H34.3158L35.1942 9.52336H34.4517L34.2783 8.51003H33.5142L33.3333 9.52336H32.5833L33.46 5.13586ZM33.6267 4.30253C33.4858 4.30253 33.4367 4.38586 33.4367 4.52503H33.0575C33.0575 4.13503 33.1658 3.84253 33.5183 3.84253C33.7833 3.84253 33.9625 4.09253 34.195 4.09253C34.32 4.09253 34.3683 4.0167 34.3683 3.87586H34.7258C34.7258 4.2167 34.6667 4.55836 34.3142 4.55836C34.0342 4.5617 33.85 4.3067 33.6283 4.3067L33.6267 4.30253ZM34.1917 8.00003L33.8933 6.15836L33.5958 8.00003H34.1917ZM35.3775 8.14753V6.50003C35.3775 5.6117 35.7025 5.08336 36.645 5.08336C37.5875 5.08336 37.9075 5.6092 37.9075 6.50003V8.14753C37.9075 9.03003 37.5825 9.58253 36.645 9.58253C35.7075 9.58253 35.3775 9.03586 35.3775 8.14753ZM37.095 8.33336V6.3167C37.095 5.94836 37.035 5.6717 36.645 5.6717C36.255 5.6717 36.19 5.94836 36.19 6.3167V8.33336C36.19 8.6967 36.25 8.9892 36.645 8.9892C37.04 8.9892 37.095 8.70003 37.095 8.33336ZM39.5325 5.13586H40.5667C41.6342 5.13586 41.9592 5.56336 41.9592 6.50086V8.09836C41.9592 9.06253 41.6258 9.52336 40.5992 9.52336H39.5325V5.13586ZM40.5775 8.96503C41.125 8.96503 41.1467 8.67253 41.1467 8.12586V6.4467C41.1467 5.92086 41.0925 5.7042 40.5633 5.7042H40.325V8.96503H40.5775ZM43.0317 5.13586H43.8875L44.765 9.52336H44.0225L43.8492 8.51003H43.0833L42.9042 9.52336H42.1542L43.0317 5.13586ZM43.7625 8.00003L43.465 6.15836L43.1667 8.00003H43.7625ZM44.9325 8.24503L45.6208 8.1092C45.6425 8.6292 45.7667 8.96503 46.1208 8.96503C46.375 8.96503 46.4833 8.7917 46.4833 8.55336C46.4833 8.1742 46.2883 7.96336 46.0017 7.7142L45.4492 7.2317C45.135 6.96086 44.94 6.65753 44.94 6.17003C44.94 5.4767 45.3733 5.0867 46.0717 5.0867C46.895 5.0867 47.1283 5.6392 47.1717 6.27836L46.4833 6.39753C46.4675 5.98586 46.4075 5.67753 46.0558 5.67753C45.8175 5.67753 45.6875 5.85586 45.6875 6.0892C45.6875 6.3867 45.8117 6.5492 46.045 6.75003L46.5917 7.2317C46.9492 7.54086 47.2475 7.92503 47.2475 8.50503C47.2475 9.13836 46.8033 9.58253 46.1475 9.58253C45.3442 9.58336 44.965 9.1167 44.9325 8.24503ZM19.1442 12.3025H20.1792C21.2458 12.3025 21.5708 12.73 21.5708 13.6675V15.265C21.5708 16.2292 21.2375 16.69 20.2117 16.69H19.1442V12.3025ZM20.19 16.1359C20.7367 16.1359 20.7583 15.8434 20.7583 15.2967V13.6134C20.7583 13.0875 20.7042 12.8709 20.1792 12.8709H19.9408V16.1317L20.19 16.1359ZM22.0208 12.3025H23.8625V12.8659H22.8167V14.1275H23.64V14.6859H22.8167V16.1425H23.8733V16.69H22.0208V12.3025ZM24.09 15.4117L24.7775 15.2759C24.7992 15.7959 24.9233 16.1317 25.2775 16.1317C25.5325 16.1317 25.6408 15.9584 25.6408 15.72C25.6408 15.3409 25.4458 15.13 25.1583 14.8809L24.6058 14.3984C24.2917 14.1275 24.0967 13.8242 24.0967 13.3367C24.0967 12.6434 24.53 12.2534 25.2292 12.2534C26.0525 12.2534 26.285 12.8059 26.3283 13.445L25.6408 13.5642C25.6242 13.1525 25.565 12.8442 25.2125 12.8442C24.9742 12.8442 24.8442 13.0225 24.8442 13.2559C24.8442 13.5534 24.9692 13.7159 25.2017 13.9167L25.7492 14.3984C26.1067 14.7075 26.4042 15.0917 26.4042 15.6717C26.4042 16.305 25.96 16.7492 25.305 16.7492C24.5 16.75 24.1217 16.2834 24.09 15.4117ZM26.7542 12.3025H27.545V16.69H26.7542V12.3025ZM28.0108 15.2434V13.77C28.0108 12.8275 28.2983 12.2534 29.2608 12.2534C30.16 12.2534 30.4742 12.7192 30.4742 13.5317V13.7592H29.71V13.5092C29.71 13.0867 29.6667 12.8375 29.2717 12.8375C28.8492 12.8375 28.8167 13.1792 28.8167 13.58V15.4134C28.8167 15.8684 28.9 16.1559 29.2933 16.1559C29.6867 16.1559 29.7758 15.8525 29.7758 15.3759V14.9642H29.3042V14.46H30.5V16.6867H29.98L29.9258 16.2584C29.8067 16.54 29.5925 16.7459 29.1833 16.7459C28.3142 16.75 28.0108 16.1667 28.0108 15.2434ZM30.9358 15.2709V12.3025H31.7158V15.3625C31.7158 15.7792 31.765 16.1534 32.1708 16.1534C32.5767 16.1534 32.6317 15.78 32.6317 15.3625V12.3025H33.4058V15.2709C33.4058 16.1917 33.1517 16.7492 32.1708 16.7492C31.19 16.7492 30.9358 16.1917 30.9358 15.2709ZM34.5275 12.3025H35.3833L36.2608 16.69H35.5183L35.345 15.6767H34.5833L34.4042 16.69H33.6542L34.5275 12.3025ZM35.2583 15.1667L34.9608 13.325L34.6667 15.1667H35.2583ZM36.5583 12.3025H37.355V16.1425H38.4217V16.69H36.5583V12.3025ZM38.6983 12.3025H39.7325C40.8 12.3025 41.125 12.73 41.125 13.6675V15.265C41.125 16.2292 40.7917 16.69 39.765 16.69H38.6983V12.3025ZM39.7433 16.1359C40.2908 16.1359 40.3125 15.8434 40.3125 15.2967V13.6134C40.3125 13.0875 40.2583 12.8709 39.7292 12.8709H39.4908V16.1317L39.7433 16.1359ZM42.1975 12.3025H43.0533L43.9308 16.69H43.1883L43.015 15.6767H42.25L42.0708 16.69H41.3208L42.1975 12.3025ZM42.9283 15.1667L42.6308 13.325L42.3333 15.1667H42.9283ZM44.2283 12.3025H45.2633C46.33 12.3025 46.655 12.73 46.655 13.6675V15.265C46.655 16.2292 46.3217 16.69 45.2958 16.69H44.2283V12.3025ZM45.2742 16.1359C45.8208 16.1359 45.8425 15.8434 45.8425 15.2967V13.6134C45.8425 13.0875 45.7883 12.8709 45.2592 12.8709H45.025V16.1317L45.2742 16.1359ZM47.1042 12.3025H48.9467V12.8659H47.9008V14.1275H48.7242V14.6859H47.9008V16.1425H48.9575V16.69H47.1042V12.3025ZM49.1733 15.4117L49.8617 15.2759C49.8833 15.7959 50.0075 16.1317 50.3617 16.1317C50.6117 16.1317 50.7242 15.9584 50.7242 15.72C50.7242 15.3409 50.5292 15.13 50.2425 14.8809L49.69 14.3984C49.3758 14.1275 49.1808 13.8242 49.1808 13.3367C49.1808 12.6434 49.6142 12.2534 50.3125 12.2534C51.1367 12.2534 51.3692 12.8059 51.4125 13.445L50.7242 13.5642C50.7083 13.1525 50.6483 12.8442 50.2967 12.8442C50.0583 12.8442 49.9283 13.0225 49.9283 13.2559C49.9283 13.5534 50.0525 13.7159 50.2858 13.9167L50.8325 14.3984C51.1908 14.7075 51.4883 15.0917 51.4883 15.6717C51.4883 16.305 51.0442 16.7492 50.3883 16.7492C49.5833 16.75 49.2058 16.2834 49.1733 15.4117ZM35.5833 39.4H24.5C24.4663 39.402 24.4348 39.4172 24.4123 39.4423C24.3898 39.4675 24.3782 39.5005 24.38 39.5342V42.8675C24.3786 42.9009 24.3904 42.9336 24.4129 42.9583C24.4353 42.9831 24.4666 42.9981 24.5 43H35.5833C35.6003 42.9992 35.6169 42.995 35.6322 42.9877C35.6475 42.9804 35.6612 42.9701 35.6725 42.9575C35.6838 42.9449 35.6925 42.9301 35.6981 42.9141C35.7037 42.8981 35.706 42.8811 35.705 42.8642V39.5309C35.7057 39.4975 35.6934 39.4652 35.6707 39.4408C35.648 39.4164 35.6166 39.4018 35.5833 39.4ZM35.5833 32.3125H24.5C24.4663 32.3145 24.4348 32.3297 24.4123 32.3548C24.3898 32.38 24.3782 32.413 24.38 32.4467V35.78C24.3788 35.7969 24.3809 35.8139 24.3863 35.8299C24.3916 35.846 24.4002 35.8608 24.4113 35.8735C24.4225 35.8862 24.4361 35.8966 24.4513 35.904C24.4665 35.9114 24.4831 35.9157 24.5 35.9167H35.5833C35.6003 35.9158 35.6169 35.9116 35.6322 35.9043C35.6475 35.897 35.6612 35.8868 35.6725 35.8741C35.6838 35.8615 35.6925 35.8468 35.6981 35.8308C35.7037 35.8147 35.706 35.7978 35.705 35.7809V32.4475C35.7066 32.4136 35.6947 32.3805 35.6719 32.3553C35.6491 32.3302 35.6172 32.3151 35.5833 32.3134M35.4283 27.2775L30.1083 21.9575C30.0998 21.949 30.0897 21.9422 30.0785 21.9375C30.0674 21.9329 30.0554 21.9305 30.0433 21.9305C30.0312 21.9305 30.0193 21.9329 30.0081 21.9375C29.997 21.9422 29.9868 21.949 29.9783 21.9575L24.6583 27.2775C24.6454 27.2903 24.6366 27.3067 24.6331 27.3245C24.6295 27.3424 24.6313 27.3609 24.6383 27.3777C24.6453 27.3945 24.6571 27.4088 24.6722 27.4189C24.6874 27.4289 24.7051 27.4343 24.7233 27.4342H35.3633C35.3815 27.4343 35.3993 27.4289 35.4145 27.4189C35.4296 27.4088 35.4414 27.3945 35.4484 27.3777C35.4553 27.3609 35.4571 27.3424 35.4536 27.3245C35.45 27.3067 35.4412 27.2903 35.4283 27.2775ZM40.4225 43.0417L45.7425 37.7217C45.7511 37.7132 45.7579 37.703 45.7625 37.6919C45.7671 37.6807 45.7695 37.6688 45.7695 37.6567C45.7695 37.6446 45.7671 37.6327 45.7625 37.6215C45.7579 37.6103 45.7511 37.6002 45.7425 37.5917L40.4225 32.2717C40.4096 32.2589 40.3932 32.2502 40.3753 32.2467C40.3575 32.2432 40.339 32.2451 40.3222 32.252C40.3054 32.2589 40.291 32.2707 40.2808 32.2857C40.2707 32.3008 40.2652 32.3185 40.265 32.3367V42.9767C40.2652 42.9949 40.2707 43.0126 40.2808 43.0277C40.291 43.0427 40.3054 43.0545 40.3222 43.0614C40.339 43.0683 40.3575 43.0702 40.3753 43.0667C40.3932 43.0632 40.4096 43.0545 40.4225 43.0417ZM24.6583 48.0359L29.9783 53.355C29.9868 53.3637 29.9969 53.3706 30.0081 53.3753C30.0192 53.38 30.0312 53.3824 30.0433 53.3824C30.0554 53.3824 30.0674 53.38 30.0786 53.3753C30.0898 53.3706 30.0999 53.3637 30.1083 53.355L35.4283 48.0359C35.4411 48.0229 35.4498 48.0065 35.4533 47.9887C35.4568 47.9708 35.455 47.9524 35.448 47.9356C35.4411 47.9188 35.4294 47.9044 35.4143 47.8942C35.3992 47.884 35.3815 47.8785 35.3633 47.8784H24.7233C24.7052 47.8785 24.6874 47.884 24.6724 47.8942C24.6573 47.9044 24.6456 47.9188 24.6386 47.9356C24.6317 47.9524 24.6299 47.9708 24.6334 47.9887C24.6369 48.0065 24.6456 48.0229 24.6583 48.0359ZM19.6667 32.2717L14.3442 37.5917C14.3356 37.6002 14.3288 37.6103 14.3242 37.6215C14.3195 37.6327 14.3171 37.6446 14.3171 37.6567C14.3171 37.6688 14.3195 37.6807 14.3242 37.6919C14.3288 37.703 14.3356 37.7132 14.3442 37.7217L19.6667 43.0417C19.6795 43.0546 19.6959 43.0634 19.7137 43.0669C19.7315 43.0705 19.75 43.0687 19.7668 43.0617C19.7836 43.0548 19.7979 43.043 19.808 43.0278C19.8181 43.0127 19.8234 42.9949 19.8233 42.9767V32.3334C19.8228 32.3155 19.817 32.2981 19.8066 32.2835C19.7963 32.2688 19.782 32.2575 19.7653 32.251C19.7486 32.2444 19.7304 32.2429 19.7129 32.2466C19.6953 32.2503 19.6793 32.259 19.6667 32.2717Z" fill="white"/>
</g>
<defs>
<clipPath id="clip0_274_46">
<rect width="60" height="60" fill="white"/>
</clipPath>
</defs>
</svg>
