<svg width="60" height="60" viewBox="0 0 60 60" fill="none" xmlns="http://www.w3.org/2000/svg">
<g clip-path="url(#clip0_274_2)">
<path d="M-0.0899963 -0.0900269H60.09V60.09H-0.0899963V-0.0900269Z" fill="#DDA83A"/>
<path d="M4.59332 15.075L7.38416 10.7825C7.99332 9.83333 8.60249 9.04 8.60249 7.9775C8.60249 7.24083 8.31916 6.84417 7.76916 6.84417C6.93582 6.84417 6.73499 7.60917 6.73499 8.54417V9.06833H4.59332V8.5C4.59332 6.47417 5.47166 5 7.72416 5C9.73582 5 10.77 6.11917 10.77 8.0175C10.77 9.42 10.0475 10.3975 9.26999 11.5733L7.05832 14.8908H10.4583V16.6192H4.59332V15.075ZM15.75 5.13583H17.5542V5.68833H16.5433V6.96667H17.3667V7.52417H16.5433V9.52417H15.75V5.13583ZM17.8867 8.1475V6.5C17.8867 5.61167 18.2117 5.08333 19.1542 5.08333C20.0967 5.08333 20.4167 5.6125 20.4167 6.5V8.1475C20.4167 9.03 20.0917 9.5825 19.155 9.5825C18.2183 9.5825 17.8867 9.03583 17.8867 8.1475ZM19.6033 8.33667V6.31667C19.6033 5.94833 19.5442 5.67167 19.1542 5.67167C18.7642 5.67167 18.6992 5.94833 18.6992 6.31667V8.33333C18.6992 8.69667 18.7583 8.98917 19.1542 8.98917C19.55 8.98917 19.6033 8.7 19.6033 8.33333V8.33667ZM21.0442 5.13583H21.8775L22.5 8.17417L23.145 5.13583H23.9517L24.035 9.52333H23.4333L23.3683 6.47333L22.745 9.52333H22.2633L21.6292 6.4625L21.57 9.52333H20.9683L21.0442 5.13583ZM24.6517 5.13583H26.4933V5.69917H25.4483V6.96083H26.2717V7.51917H25.4483V8.97583H26.5042V9.52333H24.6517V5.13583ZM28.0833 9.00833L29.2592 5.68833H28.1458V5.13583H30.0683V5.5475L28.8442 8.97583H30.0742V9.52333H28.0833V9.00833ZM30.5075 5.13583H32.3492V5.69917H31.3033V6.96083H32.1267V7.51917H31.3033V8.97583H32.36V9.52333H30.5075V5.13583ZM32.7983 5.13583H33.855C34.7325 5.13583 35.2308 5.4175 35.2308 6.3025C35.2308 6.82833 35.1008 7.19667 34.6892 7.36417L35.3008 9.52583H34.5L33.975 7.51583H33.5958V9.52583H32.7992L32.7983 5.13583ZM33.8492 7.015C34.31 7.015 34.4775 6.815 34.4775 6.34333C34.4775 5.89917 34.3533 5.6825 33.8942 5.6825H33.5967V7.01583L33.8492 7.015ZM35.7183 8.1475V6.5C35.7183 5.61167 36.0433 5.08333 36.9858 5.08333C37.9283 5.08333 38.25 5.6125 38.25 6.5V8.1475C38.25 9.03 37.925 9.5825 36.9883 9.5825C36.0517 9.5825 35.7183 9.03583 35.7183 8.1475ZM37.435 8.33667V6.31667C37.435 5.94833 37.3758 5.67167 36.9858 5.67167C36.5958 5.67167 36.5308 5.94833 36.5308 6.31667V8.33333C36.5308 8.69667 36.59 8.98917 36.9858 8.98917C37.3817 8.98917 37.435 8.7 37.435 8.33333V8.33667ZM15.75 12.3025H17.5917V12.8658H16.5433V14.1275H17.3667V14.6858H16.5433V16.1425H17.5992V16.69H15.75V12.3025ZM19.9825 12.3025H20.8383L21.7158 16.69H20.9742L20.8008 15.6767H20.0367L19.8583 16.69H19.1083L19.9825 12.3025ZM20.7142 15.1667L20.4167 13.3258L20.1183 15.1667H20.7142ZM22.0142 15.2433V13.77C22.0142 12.8275 22.3008 12.2533 23.2642 12.2533C24.1633 12.2533 24.4775 12.7192 24.4775 13.5317V13.7592H23.7142V13.5092C23.7142 13.0867 23.6708 12.8375 23.275 12.8375C22.8525 12.8375 22.82 13.1792 22.82 13.58V15.4133C22.82 15.8683 22.9033 16.1558 23.2967 16.1558C23.69 16.1558 23.7792 15.8525 23.7792 15.3758V14.9642H23.3083V14.46H24.5V16.6867H23.98L23.9258 16.2583C23.8716 16.4089 23.77 16.5379 23.6363 16.6258C23.5026 16.7137 23.3439 16.7558 23.1842 16.7458C22.3175 16.75 22.0142 16.1667 22.0142 15.2433ZM25.0833 12.3025H26.1417C27.0192 12.3025 27.5175 12.5842 27.5175 13.4692C27.5175 13.995 27.3875 14.3633 26.9758 14.5308L27.5875 16.6925H26.7858L26.2608 14.6825H25.8817V16.6925H25.0833V12.3025ZM26.1342 14.1817C26.595 14.1817 26.7625 13.9817 26.7625 13.51C26.7625 13.0658 26.6383 12.8492 26.1792 12.8492H25.8817V14.1825L26.1342 14.1817ZM28.1183 12.3025H28.9092V16.69H28.1183V12.3025ZM29.4892 15.2867V13.7217C29.4892 12.8225 29.7758 12.2533 30.7392 12.2533C31.6383 12.2533 31.9258 12.7533 31.9258 13.5158V13.8842H31.1567V13.505C31.1567 13.1367 31.1508 12.8383 30.745 12.8383C30.3392 12.8383 30.295 13.1525 30.295 13.5533V15.455C30.295 15.9317 30.3925 16.1592 30.745 16.1592C31.14 16.1592 31.1567 15.85 31.1567 15.46V15.065H31.9258V15.4167C31.9258 16.1917 31.6658 16.75 30.7392 16.75C29.7758 16.75 29.4892 16.1425 29.4892 15.2867ZM32.425 15.2708V12.3025H33.205V15.3625C33.205 15.7792 33.2533 16.1533 33.66 16.1533C34.0667 16.1533 34.12 15.78 34.12 15.3625V12.3025H34.895V15.2708C34.895 16.1917 34.64 16.7492 33.66 16.7492C32.68 16.7492 32.425 16.1917 32.425 15.2708ZM35.5 12.3025H36.2967V16.1425H37.3633V16.69H35.5V12.3025ZM37.9717 12.8925H37.2725V12.3025H39.4558V12.8925H38.7733V16.69H37.9717V12.8925ZM39.7967 15.2708V12.3025H40.5767V15.3625C40.5767 15.7792 40.625 16.1533 41.0317 16.1533C41.4383 16.1533 41.4925 15.78 41.4925 15.3625V12.3025H42.2667V15.2708C42.2667 16.1917 42.0125 16.7492 41.0317 16.7492C40.0508 16.7492 39.7967 16.1917 39.7967 15.2708ZM42.8675 12.3025H43.9242C44.8017 12.3025 45.3 12.5842 45.3 13.4692C45.3 13.995 45.17 14.3633 44.7583 14.5308L45.37 16.6925H44.5683L44.0433 14.6825H43.6667V16.6925H42.87L42.8675 12.3025ZM43.9167 14.1817C44.3775 14.1817 44.545 13.9817 44.545 13.51C44.545 13.0658 44.4208 12.8492 43.9617 12.8492H43.6667V14.1825L43.9167 14.1817ZM46.535 12.3025H47.3908L48.2683 16.69H47.5258L47.3525 15.6767H46.5892L46.41 16.69H45.66L46.535 12.3025ZM47.2658 15.1667L46.9683 13.325L46.6667 15.1667H47.2658ZM15.6383 22.5783L16.3267 22.4425C16.3483 22.9625 16.4725 23.2983 16.8267 23.2983C17.0767 23.2983 17.1892 23.125 17.1892 22.8867C17.1892 22.5075 16.9942 22.2967 16.7075 22.0475L16.155 21.565C15.8408 21.2942 15.6458 20.9908 15.6458 20.5033C15.6458 19.81 16.0792 19.42 16.7775 19.42C17.6008 19.42 17.8342 19.9725 17.8775 20.6117L17.1892 20.7308C17.1733 20.3192 17.1133 20.0108 16.7617 20.0108C16.5233 20.0108 16.3933 20.1892 16.3933 20.4225C16.3933 20.72 16.5175 20.8825 16.7508 21.0833L17.2975 21.565C17.6558 21.8742 17.9533 22.2583 17.9533 22.8383C17.9533 23.4717 17.5092 23.9158 16.8533 23.9158C16.05 23.9167 15.6708 23.45 15.6383 22.5783ZM18.3633 22.4375V19.4692H19.1433V22.5292C19.1433 22.9458 19.1917 23.32 19.5983 23.32C20.005 23.32 20.0583 22.9467 20.0583 22.5292V19.4692H20.8333V22.4375C20.8333 23.3583 20.5783 23.9158 19.5983 23.9158C18.6183 23.9158 18.3633 23.3583 18.3633 22.4375ZM21.3258 22.5783L22.0142 22.4425C22.0358 22.9625 22.16 23.2983 22.5142 23.2983C22.7683 23.2983 22.8767 23.125 22.8767 22.8867C22.8767 22.5075 22.6817 22.2967 22.395 22.0475L21.8425 21.565C21.5283 21.2942 21.3333 20.9908 21.3333 20.5033C21.3333 19.81 21.7667 19.42 22.465 19.42C23.2883 19.42 23.5217 19.9725 23.565 20.6117L22.8767 20.7308C22.8608 20.3192 22.8008 20.0108 22.4492 20.0108C22.2108 20.0108 22.0808 20.1892 22.0808 20.4225C22.0808 20.72 22.205 20.8825 22.4383 21.0833L22.985 21.565C23.3425 21.8742 23.6408 22.2583 23.6408 22.8383C23.6408 23.4717 23.1967 23.9158 22.5408 23.9158C21.7375 23.9167 21.3583 23.45 21.3258 22.5783ZM24.5217 20.0592H23.8233V19.4692H26.0058V20.0592H25.3233V23.8567H24.5217V20.0592ZM26.38 19.4692H28.2217V20.0325H27.1758V21.2942H28V21.8525H27.1767V23.3092H28.2333V23.8567H26.38V19.4692ZM28.6708 19.4692H29.2292L30.2958 21.9692V19.4692H30.9567V23.8567H30.4258L29.3533 21.235V23.8567H28.6708V19.4692ZM32.035 20.0592H31.3333V19.4692H33.5167V20.0592H32.8333V23.8567H32.0317L32.035 20.0592ZM34.44 19.4692H35.2958L36.1733 23.8567H35.4308L35.2575 22.8433H34.4942L34.315 23.8567H33.565L34.44 19.4692ZM35.1708 22.3333L34.8733 20.4917L34.575 22.3333H35.1708ZM34.9758 18.0833H35.7258L35.0833 19.1667H34.655L34.9758 18.0833ZM36.2158 19.4692H36.9167L37.5 22.5725L38.0475 19.4692H38.7675L37.885 23.8567H37.0992L36.2158 19.4692ZM39.19 19.4692H41.0317V20.0325H39.9858V21.2942H40.8092V21.8525H39.9858V23.3092H41.0425V23.8567H39.19V19.4692ZM41.4808 19.4692H42.2775V23.3092H43.3442V23.8567H41.4808V19.4692ZM23.8867 53.31V54.16C23.8862 54.1664 23.8862 54.1728 23.8867 54.1792C23.8863 54.1858 23.8863 54.1925 23.8867 54.1992C23.8911 54.3007 23.9341 54.3967 24.0069 54.4676C24.0796 54.5385 24.1767 54.579 24.2783 54.5808H34.2858C34.3905 54.5789 34.4903 54.536 34.5638 54.4614C34.6373 54.3868 34.6787 54.2864 34.6792 54.1817V53.2142C40.2933 51.3733 44.5 46.8233 45.4233 41.2783C45.4233 41.2667 45.4233 41.2558 45.4292 41.2458C45.4327 41.2274 45.4346 41.2087 45.435 41.19C45.4351 41.137 45.4247 41.0845 45.4045 41.0355C45.3843 40.9865 45.3546 40.942 45.3171 40.9046C45.2796 40.8671 45.2351 40.8374 45.1861 40.8171C45.1372 40.7969 45.0847 40.7866 45.0317 40.7867H13.25C13.1969 40.7864 13.1443 40.7967 13.0953 40.8169C13.0462 40.8371 13.0016 40.8668 12.964 40.9043C12.9264 40.9417 12.8967 40.9863 12.8764 41.0353C12.8561 41.0844 12.8457 41.1369 12.8458 41.19L12.8667 41.3708C13.8333 46.9692 18.1567 51.5442 23.8867 53.31ZM34.6667 27.2208C34.5358 27.4075 31.465 31.8283 34.735 35.4033C36.235 37.0442 36.105 38.4917 35.6767 39.4692H37.7742C38.1992 38.0258 38.0242 36.215 36.3208 34.3542C33.9117 31.72 36.3517 28.16 36.3883 28.1042C36.6758 27.6975 36.5217 27.1742 36.0483 26.93C35.575 26.6858 34.9558 26.8167 34.6667 27.22M29.3575 39.4692H31.4558C31.88 38.0258 31.7058 36.2192 30.0008 34.3542C27.59 31.72 30.0292 28.1608 30.0675 28.1042C30.3533 27.7 30.2025 27.1775 29.7267 26.9325C29.2508 26.6875 28.6342 26.8192 28.3467 27.2225C28.215 27.4083 25.1417 31.83 28.415 35.405C29.915 37.0458 29.7842 38.4942 29.3575 39.4708M22.0225 27.2208C21.89 27.4075 18.8192 31.8283 22.09 35.4033C23.59 37.045 23.4608 38.4925 23.0333 39.4692H25.1317C25.5558 38.0267 25.3817 36.2192 23.6758 34.3542C21.265 31.72 23.7058 28.16 23.7442 28.1042C24.0292 27.6992 23.8775 27.1758 23.4017 26.9317C22.9258 26.6875 22.31 26.8175 22.0225 27.2217" fill="white"/>
</g>
<defs>
<clipPath id="clip0_274_2">
<rect width="60" height="60" fill="white"/>
</clipPath>
</defs>
</svg>
