<svg width="60" height="60" viewBox="0 0 60 60" fill="none" xmlns="http://www.w3.org/2000/svg">
<g clip-path="url(#clip0_274_50)">
<path d="M-0.0899963 -0.0900269H60.09V60.09H-0.0899963V-0.0900269Z" fill="#FD9D24"/>
<path d="M4.17666 7.41083C3.83333 7.595 2.85917 7.86417 2.51917 8.03417V6.405C2.9725 6.22083 4.23333 5.61167 4.65833 5.14417H6.3725V16.6192H4.17666V7.41083Z" fill="white"/>
<path d="M7.19415 7.41084C6.85415 7.595 5.87665 7.86417 5.53665 8.03417V6.405C5.98998 6.22084 7.24998 5.61167 7.67582 5.14417H9.38998V16.6192H7.19415V7.41084ZM16.0708 8.12V6.555C16.0708 5.65584 16.3583 5.08667 17.3208 5.08667C18.22 5.08667 18.5075 5.58667 18.5075 6.34917V6.7175H17.7383V6.33834C17.7383 5.97 17.7325 5.67167 17.3267 5.67167C16.9208 5.67167 16.8767 5.98584 16.8767 6.38667V8.28834C16.8767 8.765 16.9742 8.9925 17.3267 8.9925C17.7217 8.9925 17.7383 8.68334 17.7383 8.29334V7.89834H18.5075V8.25C18.5075 9.025 18.2475 9.58334 17.3208 9.58334C16.3583 9.58334 16.0708 8.97584 16.0708 8.12ZM18.8658 5.13584H19.6567V9.52334H18.8658V5.13584ZM20.1117 5.13584H21.1467C22.2133 5.13584 22.5383 5.56334 22.5383 6.50084V8.09834C22.5383 9.0625 22.205 9.52334 21.1791 9.52334H20.1117V5.13584ZM21.1575 8.965C21.7042 8.965 21.7258 8.6725 21.7258 8.12584V6.44667C21.7258 5.92084 21.6716 5.70417 21.1467 5.70417H20.9083V8.965H21.1575ZM23.53 5.13584H24.3858L25.2633 9.52334H24.5217L24.3475 8.51H23.5833L23.4042 9.52334H22.6542L23.53 5.13584ZM24.2608 8L23.9633 6.15834L23.6667 8H24.2608ZM25.48 5.13584H26.5142C27.5817 5.13584 27.9067 5.56334 27.9067 6.50084V8.09834C27.9067 9.0625 27.5733 9.52334 26.5466 9.52334H25.48V5.13584ZM26.525 8.965C27.0725 8.965 27.0942 8.6725 27.0942 8.12584V6.44667C27.0942 5.92084 27.04 5.70417 26.5108 5.70417H26.2725V8.965H26.525ZM28.275 5.13584H30.1166V5.69917H29.0708V6.96084H29.8942V7.51917H29.0708V8.97584H30.1275V9.52334H28.275V5.13584ZM30.2625 8.245L30.9508 8.10917C30.9725 8.62917 31.0967 8.965 31.4508 8.965C31.705 8.965 31.8133 8.79167 31.8133 8.55334C31.8133 8.17417 31.6183 7.96334 31.3317 7.71417L30.7792 7.23167C30.465 6.96084 30.27 6.6575 30.27 6.17C30.27 5.47667 30.7033 5.08667 31.4017 5.08667C32.225 5.08667 32.4583 5.63917 32.5016 6.27834L31.8133 6.3975C31.7975 5.98584 31.7375 5.6775 31.3858 5.6775C31.1475 5.6775 31.0175 5.85584 31.0175 6.08917C31.0175 6.38667 31.1416 6.54917 31.375 6.75L31.9167 7.23167C32.2741 7.54084 32.5725 7.925 32.5725 8.505C32.5725 9.13834 32.1283 9.5825 31.4725 9.5825C30.6742 9.58334 30.295 9.11667 30.2625 8.245ZM33.9166 5.13584H35.7583V5.69917H34.715V6.96084H35.5383V7.51917H34.715V8.97584H35.7717V9.52334H33.9166V5.13584ZM16.0708 15.2867V13.7217C16.0708 12.8225 16.3583 12.2533 17.3208 12.2533C18.22 12.2533 18.5075 12.7533 18.5075 13.5158V13.8842H17.7383V13.505C17.7383 13.1367 17.7325 12.8383 17.3267 12.8383C16.9208 12.8383 16.8767 13.1525 16.8767 13.5533V15.455C16.8767 15.9317 16.9742 16.1592 17.3267 16.1592C17.7217 16.1592 17.7383 15.85 17.7383 15.46V15.065H18.5075V15.4167C18.5075 16.1917 18.2475 16.75 17.3208 16.75C16.3583 16.75 16.0708 16.1425 16.0708 15.2867ZM18.7741 15.3142V13.6667C18.7741 12.7783 19.0992 12.25 20.0417 12.25C20.9842 12.25 21.3041 12.7758 21.3041 13.6667V15.3133C21.3041 16.1958 20.9792 16.7483 20.0417 16.7483C19.1042 16.7483 18.7741 16.2025 18.7741 15.3142ZM20.4916 15.5V13.4833C20.4916 13.115 20.4317 12.8383 20.0417 12.8383C19.6517 12.8383 19.5833 13.115 19.5833 13.4833V15.5C19.5833 15.8633 19.6433 16.1558 20.0383 16.1558C20.4333 16.1558 20.4916 15.8667 20.4916 15.5ZM21.7367 12.3025H22.57L23.1925 15.3408L23.8333 12.3025H24.64L24.7233 16.69H24.1275L24.0625 13.64L23.4391 16.69H22.9575L22.3233 13.6292L22.2642 16.69H21.6625L21.7367 12.3025ZM25.1166 15.2708V12.3025H25.8967V15.3625C25.8967 15.7792 25.9458 16.1533 26.3517 16.1533C26.7575 16.1533 26.8125 15.78 26.8125 15.3625V12.3025H27.5875V15.2708C27.5875 16.1917 27.3325 16.7492 26.3517 16.7492C25.3708 16.7492 25.1166 16.1917 25.1166 15.2708ZM27.9933 12.3025H28.5508L29.6183 14.8025V12.3025H30.2792V16.69H29.75L28.6775 14.0683V16.69H27.995L27.9933 12.3025ZM30.745 12.3025H31.5358V16.69H30.745V12.3025ZM31.9908 12.3025H33.025C34.0925 12.3025 34.4175 12.73 34.4175 13.6675V15.265C34.4175 16.2292 34.0842 16.69 33.0575 16.69H31.9908V12.3025ZM33.0358 16.1358C33.5833 16.1358 33.605 15.8433 33.605 15.2967V13.6133C33.605 13.0875 33.5508 12.8708 33.0217 12.8708H32.7833V16.1317L33.0358 16.1358ZM35.4083 12.3025H36.2642L37.1417 16.69H36.4L36.2267 15.6767H35.4625L35.2841 16.69H34.5341L35.4083 12.3025ZM36.14 15.1667L35.8417 13.325L35.5441 15.1667H36.14ZM37.3583 12.3025H38.3933C39.46 12.3025 39.785 12.73 39.785 13.6675V15.265C39.785 16.2292 39.4516 16.69 38.4258 16.69H37.3583V12.3025ZM38.4041 16.1358C38.9508 16.1358 38.9725 15.8433 38.9725 15.2967V13.6133C38.9725 13.0875 38.9183 12.8708 38.3933 12.8708H38.155V16.1317L38.4041 16.1358ZM40.1533 12.3025H41.995V12.8658H40.95V14.1275H41.7733V14.6858H40.95V16.1425H42.0058V16.69H40.1533V12.3025ZM42.1417 15.4117L42.8292 15.2758C42.8508 15.7958 42.9758 16.1317 43.3292 16.1317C43.5841 16.1317 43.6925 15.9583 43.6925 15.72C43.6925 15.3408 43.4975 15.13 43.21 14.8808L42.6575 14.3983C42.3433 14.1275 42.1483 13.8242 42.1483 13.3367C42.1483 12.6433 42.5816 12.2533 43.2808 12.2533C44.1041 12.2533 44.3366 12.8058 44.38 13.445L43.6925 13.5642C43.6758 13.1525 43.6166 12.8442 43.2641 12.8442C43.0258 12.8442 42.8958 13.0225 42.8958 13.2558C42.8958 13.5533 43.0208 13.7158 43.2533 13.9167L43.8008 14.3983C44.1583 14.7075 44.4558 15.0917 44.4558 15.6717C44.4558 16.305 44.0117 16.7492 43.3567 16.7492C42.5533 16.75 42.1741 16.2833 42.1417 15.4117ZM16.0333 22.5783L16.7217 22.4425C16.7433 22.9625 16.8675 23.2983 17.2217 23.2983C17.4767 23.2983 17.585 23.125 17.585 22.8867C17.585 22.5075 17.39 22.2967 17.1033 22.0475L16.5508 21.565C16.2358 21.2942 16.0408 20.9908 16.0408 20.5033C16.0408 19.81 16.475 19.42 17.1733 19.42C17.9967 19.42 18.23 19.9725 18.2733 20.6117L17.5833 20.7308C17.5675 20.3192 17.5075 20.0108 17.1558 20.0108C16.9175 20.0108 16.7867 20.1892 16.7867 20.4225C16.7867 20.72 16.9117 20.8825 17.145 21.0833L17.6917 21.565C18.0492 21.8742 18.3475 22.2583 18.3475 22.8383C18.3475 23.4717 17.9033 23.9158 17.2475 23.9158C16.445 23.9167 16.0658 23.45 16.0333 22.5783ZM18.5625 22.4375V19.4692H19.3425V22.5292C19.3425 22.9458 19.3917 23.32 19.7975 23.32C20.2033 23.32 20.2583 22.9467 20.2583 22.5292V19.4692H21.0333V22.4375C21.0333 23.3583 20.7783 23.9158 19.7975 23.9158C18.8167 23.9158 18.5625 23.3583 18.5625 22.4375ZM21.3333 22.5783L22.0208 22.4425C22.0425 22.9625 22.1675 23.2983 22.5208 23.2983C22.7758 23.2983 22.8841 23.125 22.8841 22.8867C22.8841 22.5075 22.6892 22.2967 22.4017 22.0475L21.8491 21.565C21.535 21.2942 21.34 20.9908 21.34 20.5033C21.34 19.81 21.7733 19.42 22.4725 19.42C23.2958 19.42 23.5292 19.9725 23.5716 20.6117L22.8841 20.7308C22.8675 20.3192 22.8083 20.0108 22.4558 20.0108C22.2175 20.0108 22.0875 20.1892 22.0875 20.4225C22.0875 20.72 22.2125 20.8825 22.445 21.0833L22.9925 21.565C23.35 21.8742 23.6475 22.2583 23.6475 22.8383C23.6475 23.4717 23.2033 23.9158 22.5483 23.9158C21.7425 23.9167 21.3633 23.45 21.3333 22.5783ZM24.3333 20.0592H23.6341V19.4692H25.8175V20.0592H25.1333V23.8567H24.3333V20.0592ZM25.9942 19.4692H27.8333V20.0325H26.7908V21.2942H27.6141V21.8525H26.7908V23.3092H27.8467V23.8567H25.9942V19.4692ZM28.0908 19.4692H28.6483L29.7158 21.9692V19.4692H30.3766V23.8567H29.8458L28.7733 21.235V23.8567H28.0908V19.4692ZM31.2591 20.0592H30.5608V19.4692H32.7433V20.0592H32.0608V23.8567H31.2591V20.0592ZM33.4692 19.4692H34.325L35.2025 23.8567H34.4608L34.2875 22.8433H33.5233L33.345 23.8567H32.595L33.4692 19.4692ZM34.2008 22.3333L33.9025 20.4917L33.605 22.3333H34.2008ZM34.0058 18.0833H34.7558L34.1108 19.1667H33.6833L34.0058 18.0833ZM35.0508 19.4692H35.755L36.3383 22.5725L36.885 19.4692H37.6058L36.7225 23.8567H35.9375L35.0508 19.4692ZM37.8333 19.4692H39.675V20.0325H38.6258V21.2942H39.4492V21.8525H38.6258V23.3092H39.6825V23.8567H37.8333V19.4692ZM39.9475 19.4692H40.7383V23.8567H39.9475V19.4692ZM41.0833 22.5783L41.7708 22.4425C41.7925 22.9625 41.9175 23.2983 42.2708 23.2983C42.5258 23.2983 42.6341 23.125 42.6341 22.8867C42.6341 22.5075 42.4391 22.2967 42.1516 22.0475L41.5991 21.565C41.285 21.2942 41.09 20.9908 41.09 20.5033C41.09 19.81 41.5233 19.42 42.2225 19.42C43.0458 19.42 43.2783 19.9725 43.3225 20.6117L42.6341 20.7308C42.6175 20.3192 42.5583 20.0108 42.2058 20.0108C41.9675 20.0108 41.8375 20.1892 41.8375 20.4225C41.8375 20.72 41.9625 20.8825 42.195 21.0833L42.7425 21.565C43.1 21.8742 43.3975 22.2583 43.3975 22.8383C43.3975 23.4717 42.9533 23.9158 42.2983 23.9158C41.5 23.9167 41.1175 23.45 41.0833 22.5783ZM13.9 47.1667H21.795C21.8324 47.1668 21.869 47.156 21.9004 47.1356C21.9317 47.1152 21.9565 47.0862 21.9716 47.052C21.9867 47.0178 21.9915 46.9799 21.9855 46.943C21.9794 46.9061 21.9627 46.8717 21.9375 46.8442L21.9266 46.8325L18 41.75L17.9616 41.7083C17.9435 41.6884 17.9214 41.6724 17.8967 41.6615C17.872 41.6506 17.8453 41.645 17.8183 41.645C17.7715 41.6461 17.7266 41.6638 17.6917 41.695L17.6675 41.7225L17.6308 41.7633L13.7975 46.7925L13.7383 46.8642C13.7186 46.8934 13.7073 46.9275 13.7055 46.9627C13.7038 46.9979 13.7116 47.0329 13.7282 47.064C13.7448 47.0951 13.7696 47.1211 13.7999 47.1392C13.8301 47.1573 13.8647 47.1668 13.9 47.1667ZM21.7708 47.8842H13.8608C13.8353 47.8842 13.8101 47.8892 13.7865 47.899C13.763 47.9087 13.7416 47.923 13.7235 47.941C13.7055 47.9591 13.6912 47.9805 13.6814 48.004C13.6717 48.0276 13.6667 48.0528 13.6667 48.0783V54.2683C13.6665 54.2939 13.6715 54.3192 13.6812 54.3429C13.6909 54.3666 13.7052 54.3881 13.7232 54.4062C13.7413 54.4243 13.7627 54.4387 13.7863 54.4485C13.8099 54.4583 13.8352 54.4633 13.8608 54.4633H16.4067V50.5683C16.4065 50.5429 16.4115 50.5177 16.4211 50.4941C16.4308 50.4705 16.445 50.4491 16.463 50.4311C16.4809 50.4131 16.5023 50.3987 16.5258 50.389C16.5493 50.3792 16.5745 50.3742 16.6 50.3742H18.9633C19.0148 50.3742 19.0642 50.3946 19.1006 50.431C19.137 50.4675 19.1575 50.5168 19.1575 50.5683V54.4633H21.7708C21.8224 54.4631 21.8718 54.4425 21.9082 54.4059C21.9446 54.3694 21.965 54.3199 21.965 54.2683V48.0783C21.965 48.0528 21.96 48.0276 21.9502 48.004C21.9404 47.9805 21.9261 47.9591 21.9081 47.941C21.8901 47.923 21.8687 47.9087 21.8451 47.899C21.8216 47.8892 21.7963 47.8842 21.7708 47.8842ZM49.1108 46.2642H41.2775C41.2527 46.2636 41.228 46.268 41.2048 46.2771C41.1817 46.2861 41.1606 46.2997 41.1428 46.317C41.125 46.3343 41.1107 46.355 41.101 46.3778C41.0912 46.4006 41.086 46.4252 41.0858 46.45V54.3558C41.0867 54.4059 41.1074 54.4535 41.1433 54.4883C41.1792 54.5232 41.2275 54.5423 41.2775 54.5417H49.1108C49.1356 54.5421 49.1603 54.5377 49.1833 54.5285C49.2064 54.5194 49.2275 54.5059 49.2453 54.4886C49.2631 54.4713 49.2773 54.4507 49.2871 54.4279C49.2969 54.4051 49.3022 54.3806 49.3025 54.3558V46.45C49.3023 46.4252 49.2971 46.4006 49.2873 46.3778C49.2776 46.355 49.2633 46.3343 49.2455 46.317C49.2277 46.2997 49.2066 46.2861 49.1835 46.2771C49.1603 46.268 49.1356 46.2636 49.1108 46.2642ZM44.8266 51.425C44.8265 51.4499 44.8215 51.4745 44.8118 51.4974C44.8022 51.5203 44.7881 51.5411 44.7703 51.5585C44.7526 51.576 44.7315 51.5897 44.7085 51.599C44.6854 51.6082 44.6607 51.6128 44.6358 51.6125H42.2966C42.2717 51.6128 42.2469 51.6082 42.2237 51.599C42.2006 51.5898 42.1794 51.576 42.1616 51.5586C42.1437 51.5412 42.1294 51.5205 42.1196 51.4975C42.1097 51.4746 42.1045 51.45 42.1041 51.425V50.0042C42.1045 49.9793 42.1097 49.9547 42.1196 49.9318C42.1294 49.9089 42.1437 49.8882 42.1616 49.8708C42.1795 49.8535 42.2006 49.8399 42.2238 49.8307C42.247 49.8215 42.2717 49.8171 42.2966 49.8175H44.6358C44.6606 49.8171 44.6853 49.8216 44.7084 49.8307C44.7315 49.8399 44.7525 49.8536 44.7703 49.8709C44.788 49.8883 44.8021 49.909 44.8118 49.9319C44.8215 49.9548 44.8265 49.9793 44.8266 50.0042V51.425ZM44.8266 48.7983C44.826 48.8484 44.8055 48.8961 44.7698 48.9311C44.734 48.9661 44.6858 48.9855 44.6358 48.985H42.2966C42.2464 48.9857 42.1979 48.9664 42.1619 48.9314C42.1258 48.8964 42.105 48.8486 42.1041 48.7983V47.3758C42.105 47.3256 42.1258 47.2777 42.1619 47.2428C42.1979 47.2078 42.2464 47.1885 42.2966 47.1892H44.6358C44.6606 47.1888 44.6852 47.1934 44.7083 47.2026C44.7313 47.2118 44.7523 47.2255 44.77 47.2429C44.7878 47.2602 44.8019 47.2809 44.8116 47.3037C44.8213 47.3265 44.8264 47.351 44.8266 47.3758V48.7983ZM48.4016 51.425C48.4015 51.45 48.3965 51.4746 48.3868 51.4976C48.377 51.5206 48.3629 51.5414 48.345 51.5588C48.3272 51.5763 48.3061 51.59 48.2829 51.5992C48.2597 51.6084 48.2349 51.6129 48.21 51.6125H45.8717C45.8467 51.6129 45.8219 51.6084 45.7987 51.5992C45.7756 51.59 45.7544 51.5763 45.7366 51.5588C45.7188 51.5414 45.7046 51.5206 45.6949 51.4976C45.6852 51.4746 45.6801 51.45 45.68 51.425V50.0042C45.6802 49.9793 45.6853 49.9547 45.6951 49.9318C45.7049 49.909 45.7191 49.8882 45.7369 49.8709C45.7547 49.8535 45.7758 49.8399 45.7989 49.8307C45.8221 49.8216 45.8468 49.8171 45.8717 49.8175H48.21C48.2349 49.8171 48.2596 49.8216 48.2827 49.8307C48.3058 49.8399 48.3269 49.8535 48.3447 49.8709C48.3625 49.8882 48.3767 49.909 48.3865 49.9318C48.3963 49.9547 48.4014 49.9793 48.4016 50.0042V51.425ZM48.4016 48.7983C48.4013 48.8232 48.3961 48.8477 48.3863 48.8705C48.3765 48.8934 48.3623 48.914 48.3445 48.9314C48.3267 48.9487 48.3056 48.9624 48.2826 48.9716C48.2595 48.9808 48.2348 48.9853 48.21 48.985H45.8717C45.8468 48.9853 45.8221 48.9808 45.7991 48.9716C45.776 48.9624 45.7549 48.9487 45.7371 48.9314C45.7194 48.914 45.7051 48.8934 45.6953 48.8705C45.6855 48.8477 45.6803 48.8232 45.68 48.7983V47.3758C45.6802 47.351 45.6853 47.3264 45.6951 47.3035C45.7049 47.2806 45.7191 47.2599 45.7369 47.2426C45.7547 47.2252 45.7758 47.2115 45.7989 47.2024C45.8221 47.1932 45.8468 47.1887 45.8717 47.1892H48.21C48.2349 47.1887 48.2596 47.1932 48.2827 47.2024C48.3058 47.2115 48.3269 47.2252 48.3447 47.2426C48.3625 47.2599 48.3767 47.2806 48.3865 47.3035C48.3963 47.3264 48.4014 47.351 48.4016 47.3758V48.7983ZM30.9108 27.9167H23.25C23.2254 27.9167 23.2011 27.9215 23.1784 27.931C23.1557 27.9404 23.135 27.9542 23.1177 27.9716C23.1004 27.9891 23.0866 28.0097 23.0773 28.0325C23.068 28.0552 23.0632 28.0796 23.0633 28.1042V54.2858C23.0633 54.3354 23.083 54.383 23.1179 54.4181C23.1529 54.4533 23.2004 54.4731 23.25 54.4733H30.9125C30.9622 54.4731 31.0099 54.4533 31.0451 54.4182C31.0804 54.3831 31.1004 54.3356 31.1008 54.2858V28.1C31.1006 28.0502 31.0807 28.0025 31.0454 27.9674C31.0101 27.9322 30.9623 27.9125 30.9125 27.9125M26.3542 51.49C26.3542 51.5166 26.3436 51.5421 26.3249 51.561C26.3062 51.5799 26.2807 51.5906 26.2541 51.5908H24.5C24.4734 51.5906 24.448 51.5799 24.4292 51.561C24.4105 51.5421 24.4 51.5166 24.4 51.49V49.535C24.4 49.5085 24.4105 49.4831 24.4293 49.4643C24.448 49.4455 24.4735 49.435 24.5 49.435H26.25C26.2765 49.435 26.3019 49.4455 26.3207 49.4643C26.3394 49.4831 26.35 49.5085 26.35 49.535L26.3542 51.49ZM26.3542 47C26.3543 47.0132 26.3518 47.0262 26.3468 47.0384C26.3418 47.0506 26.3344 47.0617 26.3251 47.071C26.3158 47.0803 26.3047 47.0876 26.2926 47.0926C26.2804 47.0976 26.2673 47.1001 26.2541 47.1H24.5C24.4868 47.1001 24.4738 47.0976 24.4616 47.0926C24.4494 47.0876 24.4383 47.0803 24.429 47.071C24.4197 47.0617 24.4124 47.0506 24.4074 47.0384C24.4024 47.0262 24.3999 47.0132 24.4 47V45.045C24.3999 45.0318 24.4024 45.0188 24.4074 45.0066C24.4124 44.9944 24.4197 44.9834 24.429 44.974C24.4383 44.9647 24.4494 44.9574 24.4616 44.9524C24.4738 44.9474 24.4868 44.9449 24.5 44.945H26.25C26.2631 44.9449 26.2762 44.9474 26.2884 44.9524C26.3006 44.9574 26.3116 44.9647 26.3209 44.974C26.3302 44.9834 26.3376 44.9944 26.3426 45.0066C26.3476 45.0188 26.3501 45.0318 26.35 45.045L26.3542 47ZM26.3542 42.5108C26.3542 42.5374 26.3436 42.5628 26.3249 42.5815C26.3061 42.6003 26.2807 42.6108 26.2541 42.6108H24.5C24.4735 42.6108 24.448 42.6003 24.4293 42.5815C24.4105 42.5628 24.4 42.5374 24.4 42.5108V40.555C24.4 40.5284 24.4105 40.5029 24.4292 40.484C24.448 40.4651 24.4734 40.4544 24.5 40.4542H26.25C26.2766 40.4544 26.302 40.4651 26.3207 40.484C26.3395 40.5029 26.35 40.5284 26.35 40.555L26.3542 42.5108ZM26.3542 38.02C26.3542 38.0466 26.3436 38.0721 26.3249 38.091C26.3062 38.1099 26.2807 38.1206 26.2541 38.1208H24.5C24.4734 38.1206 24.448 38.1099 24.4292 38.091C24.4105 38.0721 24.4 38.0466 24.4 38.02V36.0642C24.4 36.0511 24.4026 36.0381 24.4076 36.026C24.4126 36.0139 24.42 36.003 24.4293 35.9938C24.4386 35.9845 24.4496 35.9772 24.4618 35.9723C24.4739 35.9674 24.4869 35.9649 24.5 35.965H26.25C26.2631 35.9649 26.2761 35.9674 26.2882 35.9723C26.3003 35.9772 26.3113 35.9845 26.3206 35.9938C26.3299 36.003 26.3373 36.0139 26.3424 36.026C26.3474 36.0381 26.35 36.0511 26.35 36.0642L26.3542 38.02ZM26.3542 33.5308C26.3542 33.5574 26.3436 33.5828 26.3249 33.6015C26.3061 33.6203 26.2807 33.6308 26.2541 33.6308H24.5C24.4735 33.6308 24.448 33.6203 24.4293 33.6015C24.4105 33.5828 24.4 33.5574 24.4 33.5308V31.575C24.4 31.5485 24.4105 31.523 24.4293 31.5043C24.448 31.4855 24.4735 31.475 24.5 31.475H26.25C26.2765 31.475 26.3019 31.4855 26.3207 31.5043C26.3394 31.523 26.35 31.5485 26.35 31.575L26.3542 33.5308ZM29.795 51.49C29.795 51.5033 29.7923 51.5165 29.7872 51.5288C29.7821 51.5411 29.7746 51.5522 29.7652 51.5616C29.7557 51.571 29.7445 51.5784 29.7322 51.5834C29.7198 51.5884 29.7066 51.591 29.6933 51.5908H27.9433C27.9166 51.5908 27.8909 51.5802 27.872 51.5613C27.8531 51.5424 27.8425 51.5168 27.8425 51.49V49.535C27.8425 49.5218 27.8451 49.5087 27.8502 49.4965C27.8553 49.4844 27.8627 49.4733 27.8721 49.464C27.8814 49.4547 27.8926 49.4474 27.9048 49.4424C27.917 49.4374 27.9301 49.4349 27.9433 49.435H29.6933C29.7066 49.4348 29.7198 49.4372 29.7321 49.4421C29.7444 49.4471 29.7556 49.4544 29.7651 49.4637C29.7746 49.473 29.7821 49.4841 29.7872 49.4963C29.7923 49.5086 29.795 49.5217 29.795 49.535V51.49ZM29.795 47C29.795 47.0133 29.7923 47.0264 29.7872 47.0387C29.7821 47.0509 29.7746 47.062 29.7651 47.0713C29.7556 47.0806 29.7444 47.0879 29.7321 47.0929C29.7198 47.0978 29.7066 47.1002 29.6933 47.1H27.9433C27.9301 47.1002 27.9169 47.0978 27.9047 47.0929C27.8924 47.0879 27.8812 47.0806 27.8718 47.0713C27.8624 47.0619 27.855 47.0508 27.8499 47.0386C27.8449 47.0264 27.8424 47.0132 27.8425 47V45.045C27.8424 45.0318 27.8449 45.0186 27.8499 45.0064C27.855 44.9942 27.8624 44.9831 27.8718 44.9737C27.8812 44.9644 27.8924 44.9571 27.9047 44.9521C27.9169 44.9472 27.9301 44.9448 27.9433 44.945H29.6933C29.7066 44.9448 29.7198 44.9472 29.7321 44.9521C29.7444 44.9571 29.7556 44.9644 29.7651 44.9737C29.7746 44.983 29.7821 44.9941 29.7872 45.0063C29.7923 45.0186 29.795 45.0317 29.795 45.045V47ZM29.795 42.5108C29.7949 42.5241 29.7922 42.5372 29.787 42.5494C29.7818 42.5616 29.7743 42.5726 29.7649 42.5819C29.7554 42.5912 29.7442 42.5985 29.732 42.6035C29.7197 42.6084 29.7066 42.6109 29.6933 42.6108H27.9433C27.9167 42.6108 27.8912 42.6003 27.8723 42.5816C27.8534 42.5629 27.8427 42.5374 27.8425 42.5108V40.555C27.8425 40.5283 27.8531 40.5026 27.872 40.4837C27.8909 40.4648 27.9166 40.4542 27.9433 40.4542H29.6933C29.7066 40.4541 29.7198 40.4566 29.7322 40.4616C29.7445 40.4666 29.7557 40.474 29.7652 40.4834C29.7746 40.4928 29.7821 40.5039 29.7872 40.5162C29.7923 40.5285 29.795 40.5417 29.795 40.555V42.5108ZM29.795 38.02C29.795 38.0333 29.7923 38.0465 29.7872 38.0588C29.7821 38.0711 29.7746 38.0822 29.7652 38.0916C29.7557 38.101 29.7445 38.1084 29.7322 38.1134C29.7198 38.1184 29.7066 38.1209 29.6933 38.1208H27.9433C27.9166 38.1208 27.8909 38.1102 27.872 38.0913C27.8531 38.0724 27.8425 38.0467 27.8425 38.02V36.0642C27.8426 36.051 27.8453 36.0381 27.8504 36.026C27.8555 36.0139 27.863 36.0029 27.8724 35.9937C27.8817 35.9845 27.8928 35.9772 27.905 35.9723C27.9172 35.9674 27.9302 35.9649 27.9433 35.965H29.6933C29.7065 35.9648 29.7196 35.9672 29.7319 35.9721C29.7442 35.9769 29.7554 35.9842 29.7648 35.9934C29.7743 36.0026 29.7818 36.0136 29.787 36.0258C29.7922 36.0379 29.7949 36.051 29.795 36.0642V38.02ZM29.795 33.5308C29.7949 33.5441 29.7922 33.5572 29.787 33.5694C29.7818 33.5816 29.7743 33.5926 29.7649 33.6019C29.7554 33.6112 29.7442 33.6185 29.732 33.6235C29.7197 33.6284 29.7066 33.6309 29.6933 33.6308H27.9433C27.9167 33.6308 27.8912 33.6203 27.8723 33.6016C27.8534 33.5829 27.8427 33.5574 27.8425 33.5308V31.575C27.8425 31.5618 27.8451 31.5487 27.8502 31.5365C27.8553 31.5244 27.8627 31.5133 27.8721 31.504C27.8814 31.4947 27.8926 31.4874 27.9048 31.4824C27.917 31.4774 27.9301 31.4749 27.9433 31.475H29.6933C29.7066 31.4748 29.7198 31.4772 29.7321 31.4821C29.7444 31.4871 29.7556 31.4944 29.7651 31.5037C29.7746 31.513 29.7821 31.5241 29.7872 31.5363C29.7923 31.5486 29.795 31.5617 29.795 31.575V33.5308ZM49.2942 45.4683C49.2943 45.4891 49.2903 45.5096 49.2824 45.5287C49.2745 45.5479 49.2629 45.5653 49.2483 45.58C49.2336 45.5946 49.2162 45.6062 49.197 45.6141C49.1779 45.6219 49.1574 45.6259 49.1367 45.6258H41.2558C41.214 45.6258 41.174 45.6092 41.1444 45.5797C41.1149 45.5502 41.0983 45.5101 41.0983 45.4683V43.8925C41.0983 43.8507 41.1149 43.8107 41.1444 43.7811C41.174 43.7516 41.214 43.735 41.2558 43.735H49.1367C49.1784 43.735 49.2185 43.7516 49.248 43.7811C49.2776 43.8107 49.2942 43.8507 49.2942 43.8925V45.4683ZM40.1666 32.8575C40.1587 32.8268 40.1434 32.7986 40.1221 32.7751C40.1009 32.7516 40.0742 32.7337 40.0445 32.7228C40.0147 32.7119 39.9828 32.7084 39.9514 32.7125C39.92 32.7167 39.89 32.7284 39.8641 32.7467L39.85 32.7567L39.7858 32.84L32.2541 42.3908L32.2192 42.4375C32.1791 42.477 32.1558 42.5304 32.1542 42.5867V54.325C32.1542 54.3496 32.159 54.3739 32.1684 54.3966C32.1779 54.4193 32.1917 54.44 32.2091 54.4573C32.2265 54.4746 32.2472 54.4884 32.27 54.4977C32.2927 54.507 32.3171 54.5118 32.3417 54.5117H40C40.0246 54.5118 40.0489 54.507 40.0717 54.4977C40.0944 54.4884 40.1151 54.4746 40.1325 54.4573C40.1499 54.44 40.1638 54.4193 40.1732 54.3966C40.1826 54.3739 40.1875 54.3496 40.1875 54.325V32.9358C40.1864 32.9085 40.1792 32.8818 40.1666 32.8575ZM36.9958 38.045L37.05 37.9775C37.565 37.3158 38.4333 36.2475 38.8566 35.7275L38.9125 35.6608C38.9384 35.6292 38.9728 35.6056 39.0116 35.5928C39.0504 35.5801 39.0921 35.5786 39.1317 35.5887C39.1713 35.5987 39.2073 35.6199 39.2353 35.6496C39.2633 35.6794 39.2823 35.7165 39.29 35.7567V38.1733C39.2896 38.2292 39.2678 38.2827 39.229 38.3229C39.1902 38.3631 39.1374 38.3868 39.0816 38.3892H37.1608C37.1214 38.3878 37.0832 38.3756 37.0502 38.3541C37.0172 38.3325 36.9907 38.3024 36.9735 38.2669C36.9564 38.2314 36.9492 38.1919 36.9529 38.1527C36.9565 38.1134 36.9708 38.0759 36.9941 38.0442L36.9958 38.045ZM35.8041 51.4233C35.8043 51.4479 35.7995 51.4723 35.7902 51.495C35.7808 51.5178 35.7671 51.5385 35.7498 51.5559C35.7324 51.5733 35.7118 51.5871 35.6891 51.5965C35.6664 51.606 35.6421 51.6108 35.6175 51.6108H33.3333C33.2836 51.6108 33.2359 51.5911 33.2007 51.5559C33.1656 51.5208 33.1458 51.4731 33.1458 51.4233V49.9942C33.1458 49.9696 33.1507 49.9453 33.1601 49.9225C33.1695 49.8998 33.1834 49.8792 33.2008 49.8619C33.2182 49.8445 33.2389 49.8308 33.2616 49.8215C33.2844 49.8121 33.3087 49.8074 33.3333 49.8075H35.6166C35.6662 49.8075 35.7136 49.8272 35.7486 49.8622C35.7836 49.8972 35.8033 49.9447 35.8033 49.9942L35.8041 51.4233ZM35.8041 48.7825C35.8043 48.8071 35.7995 48.8315 35.7902 48.8542C35.7808 48.8769 35.7671 48.8976 35.7498 48.915C35.7324 48.9325 35.7118 48.9463 35.6891 48.9557C35.6664 48.9652 35.6421 48.97 35.6175 48.97H33.3333C33.2836 48.97 33.2359 48.9503 33.2007 48.9151C33.1656 48.8799 33.1458 48.8322 33.1458 48.7825V47.3533C33.1458 47.3288 33.1507 47.3044 33.1601 47.2817C33.1695 47.259 33.1834 47.2384 33.2008 47.221C33.2182 47.2037 33.2389 47.19 33.2616 47.1806C33.2844 47.1713 33.3087 47.1666 33.3333 47.1667H35.6166C35.6413 47.1666 35.6657 47.1713 35.6884 47.1807C35.7112 47.1901 35.7318 47.2039 35.7492 47.2214C35.7666 47.2388 35.7803 47.2596 35.7896 47.2823C35.7989 47.3051 35.8035 47.3296 35.8033 47.3542L35.8041 48.7825ZM35.8041 46.1417C35.8041 46.1912 35.7845 46.2387 35.7495 46.2737C35.7145 46.3087 35.667 46.3283 35.6175 46.3283H33.3333C33.2837 46.3283 33.2362 46.3087 33.201 46.2737C33.1659 46.2387 33.146 46.1913 33.1458 46.1417V44.7117C33.1458 44.6619 33.1656 44.6143 33.2007 44.5791C33.2359 44.5439 33.2836 44.5242 33.3333 44.5242H35.6166C35.6412 44.5242 35.6656 44.529 35.6883 44.5385C35.711 44.5479 35.7316 44.5617 35.7489 44.5791C35.7663 44.5966 35.78 44.6172 35.7893 44.64C35.7987 44.6627 35.8034 44.6871 35.8033 44.7117L35.8041 46.1417ZM35.8108 40.3533V43.5C35.8106 43.5497 35.7908 43.5972 35.7557 43.6323C35.7205 43.6675 35.673 43.6873 35.6233 43.6875H33.34C33.3153 43.6876 33.2907 43.6828 33.2678 43.6735C33.245 43.6641 33.2241 43.6503 33.2066 43.6329C33.189 43.6155 33.175 43.5948 33.1655 43.572C33.1559 43.5492 33.1509 43.5247 33.1508 43.5V43.1033C33.1515 43.0793 33.1566 43.0556 33.1658 43.0333C33.1687 43.0258 33.1724 43.0185 33.1766 43.0117C33.1817 43.0033 33.1873 42.9952 33.1933 42.9875C33.1992 42.9783 33.2075 42.9667 33.215 42.9567C33.5066 42.54 34.8242 40.9158 35.3775 40.2375L35.4325 40.1708C35.4524 40.1456 35.4777 40.125 35.5065 40.1106C35.5353 40.0962 35.567 40.0883 35.5991 40.0875C35.649 40.088 35.6971 40.1058 35.7353 40.1379C35.7734 40.17 35.7992 40.2143 35.8083 40.2633L35.8108 40.3533ZM39.295 51.4233C39.2951 51.4479 39.2903 51.4723 39.281 51.495C39.2717 51.5178 39.2579 51.5385 39.2406 51.5559C39.2233 51.5733 39.2026 51.5871 39.1799 51.5965C39.1572 51.606 39.1329 51.6108 39.1083 51.6108H36.825C36.8003 51.611 36.7758 51.6062 36.753 51.5968C36.7301 51.5874 36.7094 51.5736 36.6919 51.5562C36.6744 51.5388 36.6605 51.5181 36.651 51.4953C36.6415 51.4725 36.6367 51.448 36.6367 51.4233V49.9942C36.6368 49.9696 36.6417 49.9452 36.6512 49.9225C36.6608 49.8998 36.6747 49.8792 36.6922 49.8618C36.7096 49.8445 36.7304 49.8308 36.7532 49.8215C36.776 49.8121 36.8004 49.8074 36.825 49.8075H39.1083C39.1578 49.8075 39.2053 49.8272 39.2403 49.8622C39.2753 49.8972 39.295 49.9447 39.295 49.9942V51.4233ZM39.295 48.7825C39.2951 48.8071 39.2903 48.8315 39.281 48.8542C39.2717 48.8769 39.2579 48.8976 39.2406 48.915C39.2233 48.9325 39.2026 48.9463 39.1799 48.9557C39.1572 48.9652 39.1329 48.97 39.1083 48.97H36.825C36.8003 48.9701 36.7758 48.9653 36.753 48.956C36.7301 48.9466 36.7094 48.9328 36.6919 48.9154C36.6744 48.898 36.6605 48.8773 36.651 48.8545C36.6415 48.8316 36.6367 48.8072 36.6367 48.7825V47.3533C36.6365 47.3286 36.6413 47.3041 36.6508 47.2813C36.6602 47.2584 36.6741 47.2377 36.6916 47.2202C36.7091 47.2028 36.7299 47.189 36.7528 47.1796C36.7757 47.1703 36.8003 47.1656 36.825 47.1658H39.1083C39.1329 47.1658 39.1572 47.1707 39.1799 47.1801C39.2026 47.1896 39.2233 47.2034 39.2406 47.2208C39.2579 47.2382 39.2717 47.2589 39.281 47.2816C39.2903 47.3044 39.2951 47.3288 39.295 47.3533V48.7825ZM39.295 46.1417C39.2948 46.1911 39.275 46.2385 39.2401 46.2734C39.2051 46.3084 39.1578 46.3281 39.1083 46.3283H36.825C36.8004 46.3284 36.776 46.3237 36.7532 46.3144C36.7304 46.3051 36.7096 46.2913 36.6922 46.274C36.6747 46.2567 36.6608 46.2361 36.6512 46.2134C36.6417 46.1907 36.6368 46.1663 36.6367 46.1417V44.7117C36.6367 44.687 36.6415 44.6625 36.651 44.6397C36.6605 44.6169 36.6744 44.5962 36.6919 44.5788C36.7094 44.5614 36.7301 44.5476 36.753 44.5382C36.7758 44.5288 36.8003 44.5241 36.825 44.5242H39.1083C39.1329 44.5242 39.1572 44.529 39.1799 44.5385C39.2026 44.5479 39.2233 44.5617 39.2406 44.5791C39.2579 44.5966 39.2717 44.6172 39.281 44.64C39.2903 44.6627 39.2951 44.6871 39.295 44.7117V46.1417ZM39.295 43.5C39.295 43.5495 39.2753 43.597 39.2403 43.632C39.2053 43.667 39.1578 43.6867 39.1083 43.6867H36.825C36.8004 43.6868 36.776 43.682 36.7532 43.6727C36.7304 43.6634 36.7096 43.6497 36.6922 43.6323C36.6747 43.615 36.6608 43.5944 36.6512 43.5717C36.6417 43.549 36.6368 43.5246 36.6367 43.5V42.07C36.6368 42.0454 36.6417 42.021 36.6512 41.9983C36.6608 41.9756 36.6747 41.955 36.6922 41.9377C36.7096 41.9203 36.7304 41.9066 36.7532 41.8973C36.776 41.888 36.8004 41.8832 36.825 41.8833H39.1083C39.1578 41.8833 39.2053 41.903 39.2403 41.938C39.2753 41.973 39.295 42.0205 39.295 42.07V43.5ZM39.295 40.8583C39.295 40.9078 39.2753 40.9553 39.2403 40.9903C39.2053 41.0253 39.1578 41.045 39.1083 41.045H36.825C36.8004 41.0451 36.776 41.0404 36.7532 41.0311C36.7304 41.0217 36.7096 41.008 36.6922 40.9907C36.6747 40.9733 36.6608 40.9527 36.6512 40.93C36.6417 40.9073 36.6368 40.883 36.6367 40.8583V39.4283C36.6367 39.4036 36.6415 39.3792 36.651 39.3564C36.6605 39.3336 36.6744 39.3129 36.6919 39.2955C36.7094 39.278 36.7301 39.2642 36.753 39.2549C36.7758 39.2455 36.8003 39.2407 36.825 39.2408H39.1083C39.1329 39.2408 39.1572 39.2457 39.1799 39.2551C39.2026 39.2646 39.2233 39.2784 39.2406 39.2958C39.2579 39.3132 39.2717 39.3339 39.281 39.3566C39.2903 39.3794 39.2951 39.4038 39.295 39.4283V40.8583Z" fill="white"/>
</g>
<defs>
<clipPath id="clip0_274_50">
<rect width="60" height="60" fill="white"/>
</clipPath>
</defs>
</svg>
