<svg width="60" height="60" viewBox="0 0 60 60" fill="none" xmlns="http://www.w3.org/2000/svg">
<g clip-path="url(#clip0_274_27)">
<path d="M-0.0900002 -0.0900269H60.09V60.09H-0.0900002V-0.0900269Z" fill="#26BDE2"/>
<path d="M4.76333 13.0067V8.92333C4.76333 6.68833 5.38667 5 7.85167 5C9.9625 5 10.7417 6.03417 10.7558 7.90417V8.1025H8.6875C8.6875 7.13917 8.58833 6.67167 7.86583 6.67167C7.17167 6.67167 6.9875 7.22417 6.9875 8.995V10.1567C7.22833 9.74583 7.78083 9.505 8.46083 9.49C10.2883 9.46167 10.94 10.8925 10.94 12.7908C10.94 15.1283 10.2033 16.7717 7.86583 16.7717C5.66667 16.775 4.76333 15.1742 4.76333 13.0067ZM8.74417 13.1667C8.74417 12.005 8.71583 11.1667 7.86583 11.1667C7.68689 11.1719 7.51225 11.2228 7.35852 11.3146C7.2048 11.4063 7.07708 11.5358 6.9875 11.6908V13.5167C6.9875 14.3808 7.17167 15.1458 7.88 15.1458C8.6025 15.1458 8.74417 14.4233 8.74417 13.1667ZM16.4025 5.13583H17.2583L18.1358 9.52333H17.3942L17.22 8.51H16.4567L16.2775 9.52333H15.5275L16.4025 5.13583ZM17.1333 8L16.8333 6.15917L16.5375 8H17.1333ZM16.9383 3.75H17.6883L17.0417 4.83333H16.6133L16.9383 3.75ZM18.4333 8.07667V6.60333C18.4333 5.66083 18.7208 5.08667 19.6833 5.08667C20.5825 5.08667 20.8967 5.5525 20.8967 6.365V6.5925H20.1325V6.3425C20.1325 5.92 20.0892 5.67083 19.6942 5.67083C19.2717 5.67083 19.2392 6.0125 19.2392 6.41333V8.25C19.2392 8.705 19.3225 8.9925 19.7158 8.9925C20.1092 8.9925 20.1975 8.68917 20.1975 8.2125V7.80083H19.7267V7.30083H20.9167V9.5275H20.4L20.3458 9.09917C20.2267 9.38083 20.0125 9.58667 19.6033 9.58667C18.7367 9.58333 18.4333 9 18.4333 8.07667ZM21.4725 8.10417V5.13583H22.25V8.19583C22.25 8.6125 22.2983 8.98667 22.705 8.98667C23.1117 8.98667 23.165 8.61333 23.165 8.19583V5.13583H23.94V8.10417C23.94 9.02083 23.685 9.5825 22.705 9.5825C21.725 9.5825 21.4725 9.025 21.4725 8.10417ZM25.1775 5.13583H26.0333L26.9108 9.52333H26.1667L25.9933 8.51H25.23L25.0508 9.52333H24.3008L25.1775 5.13583ZM25.9083 8L25.6108 6.15833L25.3125 8H25.9083ZM28.6117 5.13583H29.9008C30.6858 5.13583 31.0217 5.59083 31.0217 6.38167C31.0217 7.2425 30.5558 7.57333 29.8467 7.57333H29.4075V9.52333H28.6117V5.13583ZM29.7167 7.01C30.155 7.01 30.2692 6.84333 30.2692 6.37583C30.2692 5.90833 30.2092 5.69917 29.7167 5.69917H29.4075V7.01H29.7167ZM31.3683 8.1475V6.5C31.3683 5.61167 31.6933 5.08333 32.6358 5.08333C33.5783 5.08333 33.8983 5.60917 33.8983 6.5V8.1475C33.8983 9.03 33.5733 9.5825 32.6358 9.5825C31.6983 9.5825 31.3683 9.03583 31.3683 8.1475ZM33.0833 8.33333V6.31667C33.0833 5.94833 33.0233 5.67167 32.6333 5.67167C32.2433 5.67167 32.1783 5.94833 32.1783 6.31667V8.33333C32.1783 8.69667 32.2383 8.98917 32.6333 8.98917C33.0283 8.98917 33.0833 8.7 33.0833 8.33333ZM34.8783 5.72583H34.18V5.13583H36.3625V5.72583H35.68V9.52333H34.8783V5.72583ZM37.2833 5.13583H38.1392L39.0167 9.52333H38.275L38.1017 8.51H37.3375L37.1592 9.52333H36.4092L37.2833 5.13583ZM38.015 8L37.7167 6.15833L37.4167 8H38.015ZM37.82 3.75H38.57L37.925 4.83333H37.4975L37.82 3.75ZM39.06 5.13583H39.7642L40.3475 8.23917L40.8942 5.13583H41.615L40.7317 9.52333H39.9458L39.06 5.13583ZM42.0333 5.13583H43.875V5.69917H42.8333V6.96083H43.6567V7.51917H42.8333V8.97583H43.89V9.52333H42.0333V5.13583ZM44.325 5.13583H45.1208V8.97583H46.1883V9.52333H44.325V5.13583ZM15.75 12.3025H17.5917V12.8658H16.5433V14.1275H17.3667V14.6858H16.5433V16.1425H17.5992V16.69H15.75V12.3025ZM19.2192 15.4117L19.9067 15.2758C19.9283 15.7958 20.0533 16.1317 20.4067 16.1317C20.6617 16.1317 20.77 15.9583 20.77 15.72C20.77 15.3408 20.575 15.13 20.2875 14.8808L19.735 14.3983C19.4208 14.1275 19.2258 13.8242 19.2258 13.3367C19.2258 12.6433 19.6592 12.2533 20.3583 12.2533C21.1817 12.2533 21.4142 12.8058 21.4583 13.445L20.77 13.5642C20.7533 13.1525 20.6942 12.8442 20.3417 12.8442C20.1033 12.8442 19.9733 13.0225 19.9733 13.2558C19.9733 13.5533 20.0983 13.7158 20.3308 13.9167L20.8783 14.3983C21.2358 14.7075 21.5342 15.0917 21.5342 15.6717C21.5342 16.305 21.0892 16.7492 20.4342 16.7492C19.6308 16.75 19.25 16.2833 19.2192 15.4117ZM22.61 12.3025H23.4658L24.3433 16.69H23.6008L23.4275 15.6767H22.6667L22.4875 16.69H21.7375L22.61 12.3025ZM23.3408 15.1667L23.0433 13.325L22.745 15.1667H23.3408ZM24.755 12.3025H25.3125L26.38 14.8025V12.3025H27.0408V16.69H26.51L25.4375 14.0683V16.69H24.755V12.3025ZM27.68 12.3025H29.5217V12.8658H28.4758V14.1275H29.2992V14.6858H28.4758V16.1425H29.5325V16.69H27.68V12.3025ZM30.6267 12.3025H31.4825L32.36 16.69H31.6175L31.4442 15.6767H30.6808L30.5 16.69H29.75L30.6267 12.3025ZM31.3575 15.1667L31.06 13.325L30.7617 15.1667H31.3575ZM32.8333 12.3025H33.6667L34.29 15.3408L34.9342 12.3025H35.7417L35.825 16.69H35.225L35.16 13.64L34.5375 16.69H34.055L33.4217 13.6292L33.3617 16.69H32.7608L32.8333 12.3025ZM36.4442 12.3025H38.2858V12.8658H37.24V14.1275H38.0633V14.6858H37.24V16.1425H38.2967V16.69H36.4442V12.3025ZM38.735 12.3025H39.2933L40.36 14.8025V12.3025H41.0208V16.69H40.49L39.4167 14.0683V16.69H38.7342L38.735 12.3025ZM42.0992 12.8925H41.4V12.3025H43.5833V12.8925H42.9008V16.69H42.0992V12.8925ZM43.8642 15.3142V13.6667C43.8642 12.7783 44.1892 12.25 45.1317 12.25C46.0742 12.25 46.3942 12.7758 46.3942 13.6667V15.3133C46.3942 16.1958 46.0692 16.7483 45.1317 16.7483C44.1942 16.7483 43.8642 16.2025 43.8642 15.3142ZM45.5833 15.5V13.4833C45.5833 13.115 45.5242 12.8383 45.1333 12.8383C44.7425 12.8383 44.6792 13.115 44.6792 13.4833V15.5C44.6792 15.8633 44.7383 16.1558 45.1333 16.1558C45.5283 16.1558 45.5833 15.8667 45.5833 15.5ZM41.1342 24.2175C41.1089 24.1904 41.0781 24.1689 41.0439 24.1546C41.0097 24.1402 40.9729 24.1333 40.9358 24.1342H19C18.9631 24.1336 18.9265 24.1408 18.8925 24.1551C18.8585 24.1695 18.8279 24.1907 18.8025 24.2175C18.7796 24.2465 18.763 24.2799 18.7535 24.3155C18.744 24.3512 18.742 24.3885 18.7475 24.425L22.4325 46.7117C22.4424 46.7711 22.4729 46.8251 22.5186 46.8644C22.5643 46.9037 22.6223 46.9257 22.6825 46.9267H27.205L27.5142 50.5567H25.6108L30.0392 54.985L34.4783 50.5475H32.5758L32.8842 46.9233H37.4867C37.5478 46.9238 37.6071 46.9019 37.6531 46.8616C37.6992 46.8214 37.7289 46.7657 37.7367 46.705L41.1842 24.4217C41.1903 24.386 41.1891 24.3495 41.1805 24.3144C41.1719 24.2792 41.1561 24.2463 41.1342 24.2175ZM32.6575 42.06C32.3056 42.3813 31.8922 42.6278 31.4423 42.7846C30.9924 42.9415 30.5153 43.0054 30.04 42.9725C29.5644 43.0057 29.087 42.9419 28.6368 42.7851C28.1865 42.6282 27.7729 42.3815 27.4208 42.06C25.7775 40.4183 26.3633 38.3758 26.9358 37.32C27.2883 36.6592 29.8133 32.8683 30.0308 32.5458V32.52L30.04 32.5325L30.0492 32.52V32.5458C30.2608 32.8683 32.7892 36.6592 33.1425 37.32C33.715 38.3758 34.2992 40.4167 32.6575 42.06ZM39.615 28.9067C39.0208 28.645 38.2675 28.74 37.5442 29.0325C34.8225 30.1358 32.97 30.5325 30.1075 29.6358C28.305 29.0717 26.6192 27.89 24.625 28.6092C23.3025 29.085 22.0692 29.5392 20.5733 29.5258L19.71 25.0967H40.2367L39.615 28.9067Z" fill="white"/>
</g>
<defs>
<clipPath id="clip0_274_27">
<rect width="60" height="60" fill="white"/>
</clipPath>
</defs>
</svg>
