<svg width="60" height="60" viewBox="0 0 60 60" fill="none" xmlns="http://www.w3.org/2000/svg">
<g clip-path="url(#clip0_274_84)">
<path d="M-0.0900002 -0.0899658H60.09V60.09H-0.0900002V-0.0899658Z" fill="#56C02B"/>
<path d="M4.065 7.41086C3.725 7.59503 2.75 7.8642 2.4075 8.0342V6.40503C2.86083 6.22086 4.12167 5.6117 4.54667 5.1442H6.26083V16.6192H4.065V7.41086ZM6.54417 13.29H8.66667C8.66667 14.5509 8.8225 15.2067 9.61583 15.1742C10.4492 15.1459 10.4942 14.2109 10.4942 12.7092C10.4942 11.4909 10.3667 10.6259 9.51667 10.6259C9.00667 10.6259 8.68333 10.98 8.53917 11.66H6.6575L6.81333 5.14336H12.0833V7.02836H8.59833L8.485 9.5642C8.71167 9.28086 9.2925 9.0542 9.93 9.0117C11.7008 8.85586 12.565 10.2617 12.565 12.61C12.565 15.0467 12.0975 16.8034 9.49083 16.8034C7.06833 16.8034 6.54417 15.4167 6.54417 13.29ZM18.91 5.13586H19.6142L20.1975 8.2392L20.7442 5.13586H21.465L20.5817 9.52336H19.7967L18.91 5.13586ZM21.77 5.13586H22.5608V9.52336H21.77V5.13586ZM23.0758 5.13586H24.11C25.1775 5.13586 25.5 5.56336 25.5 6.50003V8.09836C25.5 9.06253 25.1667 9.52336 24.14 9.52336H23.0733L23.0758 5.13586ZM24.1208 8.96503C24.6683 8.96503 24.69 8.67253 24.69 8.12586V6.4467C24.69 5.92086 24.6358 5.7042 24.1067 5.7042H23.8683V8.96503H24.1208ZM26.5533 5.13586H27.4092L28.2867 9.52336H27.5442L27.3708 8.51003H26.6075L26.4283 9.52336H25.6783L26.5533 5.13586ZM27.2842 8.00003L26.9867 6.15836L26.6883 8.00003H27.2842ZM19.555 12.8925H18.8558V12.3025H21.0392V12.8925H20.3567V16.69H19.555V12.8925ZM21.2775 12.3025H23.1192V12.8659H22.0733V14.1275H22.8967V14.6859H22.0733V16.1425H23.13V16.69H21.2775V12.3025ZM23.4325 12.3025H24.4892C25.3667 12.3025 25.865 12.5842 25.865 13.4692C25.865 13.995 25.735 14.3634 25.3233 14.5309L25.9358 16.6925H25.1342L24.6083 14.6825H24.2292V16.6925H23.4325V12.3025ZM24.4842 14.1817C24.9442 14.1817 25.1125 13.9817 25.1125 13.51C25.1125 13.0659 24.9875 12.8492 24.5292 12.8492H24.2308V14.1825L24.4842 14.1817ZM26.3092 12.3025H27.365C28.2425 12.3025 28.7417 12.5842 28.7417 13.4692C28.7417 13.995 28.6117 14.3634 28.1992 14.5309L28.8117 16.6925H28.01L27.4842 14.6825H27.105V16.6925H26.3092V12.3025ZM27.36 14.1817C27.82 14.1817 27.9883 13.9817 27.9883 13.51C27.9883 13.0659 27.8633 12.8492 27.405 12.8492H27.1067V14.1825L27.36 14.1817ZM29.185 12.3025H31.0267V12.8659H29.9817V14.1275H30.805V14.6859H29.9817V16.1425H31.0375V16.69H29.185V12.3025ZM31.2325 15.4117L31.9208 15.2759C31.9425 15.7959 32.0667 16.1317 32.4208 16.1317C32.675 16.1317 32.7833 15.9584 32.7833 15.72C32.7833 15.3409 32.5883 15.13 32.3017 14.8809L31.75 14.3984C31.4358 14.1275 31.2408 13.8242 31.2408 13.3367C31.2408 12.6434 31.6742 12.2534 32.3725 12.2534C33.1958 12.2534 33.4292 12.8059 33.4725 13.445L32.7842 13.5642C32.7683 13.1525 32.7083 12.8442 32.3567 12.8442C32.1183 12.8442 31.9883 13.0225 31.9883 13.2559C31.9883 13.5534 32.1125 13.7159 32.3458 13.9167L32.8925 14.3984C33.25 14.7075 33.5483 15.0917 33.5483 15.6717C33.5483 16.305 33.1042 16.7492 32.4483 16.7492C31.6442 16.75 31.265 16.2834 31.2325 15.4117ZM34.2933 12.8925H33.5942V12.3025H35.7775V12.8925H35.095V16.69H34.2933V12.8925ZM36.0158 12.3025H37.0717C37.9492 12.3025 38.4475 12.5842 38.4475 13.4692C38.4475 13.995 38.3175 14.3634 37.9058 14.5309L38.5183 16.6925H37.7167L37.1908 14.6825H36.8117V16.6925H36.0158V12.3025ZM37.0667 14.1817C37.5267 14.1817 37.695 13.9817 37.695 13.51C37.695 13.0659 37.57 12.8492 37.1117 12.8492H36.8133V14.1825L37.0667 14.1817ZM38.8917 12.3025H40.7333V12.8659H39.6883V14.1275H40.5117V14.6859H39.6883V16.1425H40.7442V16.69H38.8917V12.3025ZM24.8075 40.6484C24.8427 40.6486 24.8764 40.6627 24.9012 40.6877C24.9261 40.7127 24.94 40.7465 24.94 40.7817V45.1842C24.9402 45.2017 24.937 45.2191 24.9304 45.2353C24.9238 45.2515 24.9141 45.2663 24.9017 45.2787C24.8894 45.2911 24.8747 45.3009 24.8585 45.3076C24.8423 45.3143 24.825 45.3176 24.8075 45.3175H23.0258C23.0082 45.3177 22.9907 45.3145 22.9744 45.3078C22.9581 45.3012 22.9433 45.2914 22.9308 45.279C22.9183 45.2666 22.9084 45.2518 22.9017 45.2355C22.895 45.2193 22.8916 45.2018 22.8917 45.1842V40.7817C22.8919 40.7463 22.9061 40.7123 22.9313 40.6874C22.9564 40.6624 22.9904 40.6484 23.0258 40.6484H24.8075ZM44.3708 47.2084H15.0133C14.9774 47.209 14.9431 47.2238 14.918 47.2496C14.8929 47.2753 14.8789 47.3099 14.8792 47.3459V49.14C14.8793 49.1575 14.8828 49.1749 14.8896 49.191C14.8964 49.2071 14.9063 49.2218 14.9188 49.2341C14.9313 49.2464 14.946 49.2561 14.9622 49.2627C14.9785 49.2693 14.9958 49.2726 15.0133 49.2725H44.3708C44.4062 49.2725 44.4402 49.2587 44.4654 49.2339C44.4907 49.2091 44.5052 49.1754 44.5058 49.14V47.3459C44.5056 47.3099 44.4914 47.2754 44.4662 47.2497C44.441 47.2241 44.4068 47.2092 44.3708 47.2084ZM44.3708 50.7742H15.0133C14.9958 50.7741 14.9785 50.7774 14.9622 50.784C14.946 50.7906 14.9313 50.8004 14.9188 50.8127C14.9063 50.825 14.8964 50.8396 14.8896 50.8557C14.8828 50.8719 14.8793 50.8892 14.8792 50.9067V52.7067C14.8798 52.7419 14.8942 52.7755 14.9193 52.8003C14.9443 52.825 14.9781 52.839 15.0133 52.8392H44.3708C44.4061 52.839 44.44 52.825 44.4652 52.8003C44.4904 52.7756 44.505 52.742 44.5058 52.7067V50.9067C44.5052 50.8713 44.4907 50.8376 44.4654 50.8128C44.4402 50.7881 44.4062 50.7742 44.3708 50.7742ZM38.785 35.775C38.4175 35.4884 37.4392 34.8184 36.245 34.8184C35.3917 34.8184 34.5975 35.1517 33.8875 35.8184C33.8625 35.842 33.8426 35.8706 33.8291 35.9023C33.8156 35.934 33.8088 35.9681 33.8092 36.0025V36.1667C33.8075 36.2042 33.814 36.2417 33.8284 36.2764C33.8428 36.3111 33.8647 36.3422 33.8925 36.3675C33.9209 36.391 33.9543 36.4075 33.9902 36.4157C34.0261 36.424 34.0634 36.4237 34.0992 36.415C34.1182 36.4126 34.1369 36.4081 34.155 36.4017C34.2102 36.3818 34.2603 36.3499 34.3017 36.3084C34.455 36.205 34.8758 36.0634 35.4775 36.0634C36.0992 36.0634 37.3208 36.23 38.5025 37.3317L38.5292 37.3559C38.5625 37.3897 38.6024 37.4166 38.6463 37.4347C38.6903 37.4529 38.7374 37.4621 38.785 37.4617C38.8315 37.4621 38.8775 37.4531 38.9205 37.4354C38.9634 37.4176 39.0024 37.3914 39.035 37.3584L39.0583 37.3334C40.2458 36.23 41.4658 36.0634 42.0875 36.0634C42.6933 36.0634 43.1125 36.205 43.2667 36.3084C43.3139 36.3537 43.3709 36.3876 43.4333 36.4075C43.4893 36.4232 43.5481 36.4252 43.605 36.4134C43.6583 36.399 43.7053 36.3675 43.7388 36.3236C43.7722 36.2797 43.7902 36.226 43.79 36.1709V36.0292C43.7896 35.9952 43.7824 35.9616 43.7688 35.9304C43.7552 35.8992 43.7355 35.871 43.7108 35.8475C42.9942 35.1642 42.1917 34.8192 41.325 34.8192C40.1417 34.8192 39.1675 35.4784 38.7908 35.7775M36.9625 24.0742C36.9314 24.0894 36.9039 24.1111 36.8819 24.1378C36.8599 24.1646 36.8439 24.1957 36.835 24.2292L36.805 24.3267C36.7938 24.364 36.7914 24.4033 36.798 24.4416C36.8047 24.48 36.8202 24.5162 36.8433 24.5475C36.8645 24.5762 36.8918 24.5999 36.9232 24.6169C36.9546 24.6339 36.9894 24.6438 37.025 24.6459C37.0371 24.6483 37.0496 24.6483 37.0617 24.6459C37.1113 24.6449 37.16 24.6326 37.2042 24.61C37.2622 24.5959 37.3219 24.5891 37.3817 24.59C37.5133 24.59 38.6967 24.63 39.4792 25.96L39.4892 25.9792C39.5084 26.0157 39.535 26.0479 39.5673 26.0737C39.5996 26.0995 39.6368 26.1184 39.6767 26.1292C39.7073 26.1379 39.739 26.1426 39.7708 26.1434C39.8223 26.1437 39.873 26.1311 39.9183 26.1067L39.9375 26.0975C40.3438 25.889 40.7933 25.7786 41.25 25.775C41.9917 25.775 42.4758 26.0775 42.5892 26.2042C42.6133 26.2472 42.6466 26.2845 42.6867 26.3134C42.7174 26.331 42.7495 26.3463 42.7825 26.3592C42.7968 26.3624 42.8113 26.3646 42.8258 26.3659C42.8347 26.3667 42.8436 26.3667 42.8525 26.3659C42.9066 26.3654 42.9591 26.3477 43.0024 26.3153C43.0457 26.2829 43.0776 26.2376 43.0933 26.1859L43.1175 26.1025C43.125 26.0797 43.1287 26.0557 43.1283 26.0317C43.1289 25.9871 43.1171 25.9433 43.0942 25.905C42.5242 24.915 41.6967 24.7084 41.1025 24.7084C40.7415 24.7132 40.384 24.7803 40.0458 24.9067C39.7767 24.545 39.0975 23.7975 38.0658 23.7975C37.6821 23.8024 37.3049 23.8977 36.965 24.0759M30.7592 28.5909L30.7683 28.7225C30.77 28.7626 30.7815 28.8017 30.8018 28.8363C30.8222 28.8709 30.8507 28.8999 30.885 28.9209C30.9141 28.9392 30.9466 28.9513 30.9806 28.9564C31.0146 28.9616 31.0493 28.9597 31.0825 28.9509C31.0967 28.9509 31.1133 28.9417 31.1258 28.9375C31.1752 28.9171 31.2187 28.8847 31.2525 28.8434C31.3775 28.7534 31.7792 28.5892 32.3725 28.5892C32.9425 28.5892 33.81 28.7417 34.6933 29.4675L34.7142 29.4884C34.7774 29.5422 34.8578 29.5718 34.9408 29.5717H34.9625C35.0507 29.5662 35.1332 29.5264 35.1925 29.4609L35.2125 29.4392C36.1908 28.405 37.245 28.25 37.7858 28.25C38.1717 28.25 38.445 28.3334 38.5517 28.39C38.5956 28.4279 38.6479 28.455 38.7042 28.4692C38.7394 28.4775 38.7757 28.48 38.8117 28.4767C38.8326 28.4733 38.8532 28.4683 38.8733 28.4617C38.9245 28.4437 38.9683 28.4096 38.9984 28.3645C39.0285 28.3194 39.0431 28.2658 39.04 28.2117L39.0333 28.0967C39.031 28.0632 39.022 28.0306 39.0069 28.0006C38.9917 27.9707 38.9707 27.9441 38.945 27.9225C38.3617 27.4309 37.73 27.1834 37.0667 27.1834C36.0342 27.1834 35.2108 27.7934 34.8692 28.0925C34.5567 27.88 33.7992 27.4425 32.9108 27.4425C32.1292 27.4425 31.4292 27.7667 30.8275 28.405C30.8042 28.4302 30.7862 28.4597 30.7745 28.4919C30.7628 28.5241 30.7575 28.5583 30.7592 28.5925M15.9033 30.9475C15.9033 30.1039 16.2383 29.2948 16.8346 28.698C17.4309 28.1013 18.2397 27.7657 19.0833 27.765C19.1525 27.765 19.2192 27.7709 19.2875 27.775C19.334 27.1425 19.5198 26.5281 19.8315 25.9758C20.1431 25.4234 20.573 24.9468 21.0904 24.5799C21.6077 24.2131 22.1997 23.9651 22.8241 23.8537C23.4484 23.7423 24.0897 23.7703 24.702 23.9356C25.3142 24.1009 25.8824 24.3995 26.3659 24.81C26.8493 25.2204 27.2361 25.7327 27.4985 26.3101C27.7609 26.8874 27.8925 27.5157 27.8838 28.1498C27.8751 28.784 27.7264 29.4084 27.4483 29.9784C28.6056 30.2351 29.6273 30.91 30.3176 31.8737C31.0078 32.8373 31.318 34.0219 31.1886 35.2002C31.0592 36.3785 30.4993 37.4676 29.6163 38.2585C28.7334 39.0494 27.5895 39.4864 26.4042 39.4859C26.21 39.4859 19.9817 39.4484 19.9817 39.4484C19.3165 39.4489 18.6658 39.2546 18.1098 38.8894C17.5539 38.5242 17.1171 38.0041 16.8535 37.3934C16.5899 36.7827 16.5109 36.1082 16.6264 35.4532C16.7419 34.7981 17.0468 34.1912 17.5033 33.7075C17.017 33.4294 16.6128 33.0276 16.3318 32.5429C16.0509 32.0582 15.903 31.5078 15.9033 30.9475Z" fill="white"/>
</g>
<defs>
<clipPath id="clip0_274_84">
<rect width="60" height="60" fill="white"/>
</clipPath>
</defs>
</svg>
