<svg width="60" height="60" viewBox="0 0 60 60" fill="none" xmlns="http://www.w3.org/2000/svg">
<g clip-path="url(#clip0_274_36)">
<path d="M-0.0899963 -0.0900269H60.09V60.09H-0.0899963V-0.0900269Z" fill="#A21942"/>
<path d="M4.59334 13.25C4.6075 12.0175 5.04667 11.04 5.93917 10.5833C5.31584 10.13 4.79167 9.33333 4.76334 8.06167C4.735 6.16667 5.72667 5 7.66667 5C9.60667 5 10.5833 6.17583 10.5425 8.06C10.5142 9.34917 10.0183 10.1433 9.395 10.5817C10.2733 11.035 10.7283 12.0125 10.7408 13.2483C10.7833 15.345 9.9475 16.79 7.66667 16.79C5.40084 16.7892 4.58334 15.3442 4.59334 13.25ZM8.58834 13.3917C8.6025 12.475 8.48917 11.55 7.67167 11.55C6.86417 11.55 6.73667 12.4708 6.73667 13.3917C6.7325 14.1667 6.83334 15.16 7.66667 15.16C8.5 15.16 8.58834 14.1542 8.58834 13.3892V13.3917ZM8.475 7.99167C8.475 7.19833 8.22 6.64583 7.6675 6.64583C7.10084 6.64583 6.83417 7.19833 6.83417 7.99167C6.83417 9.09667 7.075 9.7625 7.6675 9.7625C8.25 9.7625 8.475 9.09667 8.475 7.99167ZM15.5183 5.72583H14.82V5.13583H17V5.72583H16.3175V9.52333H15.5158L15.5183 5.72583ZM17.2625 5.13583H18.3192C19.1967 5.13583 19.695 5.4175 19.695 6.3025C19.695 6.82833 19.565 7.19667 19.1533 7.36417L19.765 9.52583H18.9633L18.4383 7.51583H18.0592V9.52583H17.2625V5.13583ZM18.3133 7.015C18.7742 7.015 18.9417 6.815 18.9417 6.34333C18.9417 5.89917 18.8175 5.6825 18.3583 5.6825H18.0608V7.01583L18.3133 7.015ZM20.8158 5.13583H21.6717L22.5492 9.52333H21.8075L21.6342 8.51H20.87L20.6917 9.52333H19.9417L20.8158 5.13583ZM21.5475 8L21.25 6.15917L20.9517 8H21.5475ZM22.8475 5.13583H23.9308C24.7 5.13583 25.2142 5.39583 25.2142 6.2625C25.2142 6.79833 24.9925 7.09583 24.5808 7.16167C25.095 7.25917 25.3392 7.6275 25.3392 8.245C25.3392 9.08417 24.9275 9.52333 24.115 9.52333H22.8475V5.13583ZM23.9167 6.92833C24.3933 6.92833 24.5175 6.7175 24.5175 6.27333C24.5175 5.8075 24.29 5.69 23.8025 5.69H23.64V6.92833H23.9167ZM23.9492 8.96C24.4367 8.96 24.5717 8.7325 24.5717 8.23917C24.5717 7.71917 24.3983 7.48083 23.9217 7.48083H23.64V8.96H23.9492ZM26.3733 5.13583H27.2292L28.1067 9.52333H27.365L27.1917 8.51H26.4275L26.25 9.52333H25.5L26.3733 5.13583ZM27.105 8L26.8067 6.15833L26.5092 8H27.105ZM28.405 5.13583H29.2008V8.97583H30.2683V9.52333H28.405V5.13583ZM30.555 5.13583H31.3517V6.96917H32.245V5.13583H33.0467V9.52333H32.245V7.54083H31.3517V9.52333H30.555V5.13583ZM33.5067 8.1475V6.5C33.5067 5.61167 33.8317 5.08333 34.775 5.08333C35.7183 5.08333 36.0367 5.60917 36.0367 6.5V8.1475C36.0367 9.03 35.7117 9.5825 34.775 9.5825C33.8383 9.5825 33.5067 9.03583 33.5067 8.1475ZM35.2242 8.33333V6.31667C35.2242 5.94833 35.165 5.67167 34.775 5.67167C34.385 5.67167 34.32 5.94833 34.32 6.31667V8.33333C34.32 8.69667 34.3792 8.98917 34.775 8.98917C35.1708 8.98917 35.2242 8.7 35.2242 8.33333ZM37.6617 5.13583H38.6958C39.7633 5.13583 40.0883 5.56333 40.0883 6.50083V8.09833C40.0883 9.0625 39.755 9.52333 38.7283 9.52333H37.6617V5.13583ZM38.7067 8.965C39.2542 8.965 39.2758 8.6725 39.2758 8.12583V6.44667C39.2758 5.92083 39.2217 5.70417 38.6925 5.70417H38.4542V8.965H38.7067ZM40.5375 5.13583H42.3792V5.69917H41.3333V6.96083H42.1567V7.51917H41.3333V8.97583H42.3892V9.52333H40.5375V5.13583ZM42.645 8.12V6.555C42.645 5.65583 42.9317 5.08667 43.895 5.08667C44.795 5.08333 45.0833 5.58333 45.0833 6.34917V6.7175H44.3142V6.33833C44.3142 5.97 44.3083 5.67167 43.9025 5.67167C43.4967 5.67167 43.4525 5.98583 43.4525 6.38667V8.28833C43.4525 8.765 43.55 8.9925 43.9025 8.9925C44.2975 8.9925 44.3142 8.68333 44.3142 8.29333V7.89833H45.0833V8.25C45.0833 9.025 44.8233 9.58333 43.8967 9.58333C42.9317 9.58333 42.645 8.97583 42.645 8.12ZM45.5 5.13583H47.3417V5.69917H46.2958V6.96083H47.1192V7.51917H46.2958V8.97583H47.3517V9.52333H45.5V5.13583ZM47.6767 5.13583H48.235L49.3017 7.63583V5.13583H49.9625V9.52333H49.4317L48.3592 6.90167V9.52333H47.6767V5.13583ZM50.9267 5.72583H50.2283V5.13583H52.4108V5.72583H51.7283V9.52333H50.9267V5.72583ZM52.6708 5.13583H54.5125V5.69917H53.4675V6.96083H54.2908V7.51917H53.4675V8.97583H54.5233V9.52333H52.6708V5.13583ZM15.0833 12.3025H16.925V12.8658H15.8758V14.1275H16.6992V14.6858H15.8758V16.1425H16.9325V16.69H15.0833V12.3025ZM18.3625 15.2867V13.7217C18.3625 12.8225 18.6492 12.2533 19.6125 12.2533C20.5117 12.2533 20.7992 12.7533 20.7992 13.5158V13.8842H20.03V13.505C20.03 13.1367 20.0242 12.8383 19.6183 12.8383C19.2125 12.8383 19.1683 13.1525 19.1683 13.5533V15.455C19.1683 15.9317 19.2658 16.1592 19.6183 16.1592C20.0133 16.1592 20.03 15.85 20.03 15.46V15.065H20.7992V15.4167C20.7992 16.1917 20.5392 16.75 19.6125 16.75C18.6492 16.75 18.3625 16.1425 18.3625 15.2867ZM21.2167 12.3025H22.2733C23.1508 12.3025 23.6492 12.5842 23.6492 13.4692C23.6492 13.995 23.5192 14.3633 23.1075 14.5308L23.7192 16.6925H22.9167L22.3917 14.6825H22.0125V16.6925H21.2167V12.3025ZM22.2675 14.1817C22.7283 14.1817 22.8958 13.9817 22.8958 13.51C22.8958 13.0658 22.7717 12.8492 22.3125 12.8492H22.015V14.1825L22.2675 14.1817ZM24.115 12.3025H25.9567V12.8658H24.9108V14.1275H25.7342V14.6858H24.9108V16.1425H25.9675V16.69H24.115V12.3025ZM26.1842 15.4117L26.8717 15.2758C26.8933 15.7958 27.0183 16.1317 27.3717 16.1317C27.6267 16.1317 27.735 15.9583 27.735 15.72C27.735 15.3408 27.54 15.13 27.2525 14.8808L26.7 14.3983C26.3858 14.1275 26.1908 13.8242 26.1908 13.3367C26.1908 12.6433 26.6242 12.2533 27.3233 12.2533C28.1467 12.2533 28.3792 12.8058 28.4225 13.445L27.735 13.5642C27.7183 13.1525 27.6592 12.8442 27.3067 12.8442C27.0683 12.8442 26.9383 13.0225 26.9383 13.2558C26.9383 13.5533 27.0633 13.7158 27.2958 13.9167L27.8433 14.3983C28.2008 14.7075 28.4983 15.0917 28.4983 15.6717C28.4983 16.305 28.0542 16.7492 27.3992 16.7492C26.5958 16.75 26.2167 16.2833 26.1842 15.4117ZM28.7567 15.2867V13.7217C28.7567 12.8225 29.0442 12.2533 30.0067 12.2533C30.9058 12.2533 31.1925 12.7533 31.1925 13.5158V13.8842H30.425V13.505C30.425 13.1367 30.42 12.8383 30.0133 12.8383C29.6067 12.8383 29.5642 13.1525 29.5642 13.5533V15.455C29.5642 15.9317 29.6617 16.1592 30.0133 16.1592C30.4092 16.1592 30.425 15.85 30.425 15.46V15.065H31.1942V15.4167C31.1942 16.1917 30.9342 16.75 30.0083 16.75C29.0442 16.75 28.7567 16.1425 28.7567 15.2867ZM31.6333 12.3025H32.4242V16.69H31.6333V12.3025ZM33.025 12.3025H33.8533L34.4767 15.3408L35.1217 12.3025H35.9283L36.0117 16.69H35.4167L35.3517 13.64L34.7283 16.69H34.2467L33.6125 13.6292L33.5525 16.69H32.9517L33.025 12.3025ZM36.5183 12.3025H38.3608V12.8658H37.315V14.1275H38.1383V14.6858H37.315V16.1425H38.3717V16.69H36.5183V12.3025ZM38.6958 12.3025H39.2542L40.3208 14.8025V12.3025H40.9817V16.69H40.4508L39.3783 14.0683V16.69H38.6958V12.3025ZM41.9458 12.8925H41.25V12.3025H43.4325V12.8925H42.75V16.69H41.9483L41.9458 12.8925ZM43.5983 15.3142V13.6667C43.5983 12.7783 43.9233 12.25 44.8658 12.25C45.8083 12.25 46.1275 12.7758 46.1275 13.6667V15.3133C46.1275 16.1958 45.8025 16.7483 44.8658 16.7483C43.9292 16.7483 43.5983 16.2025 43.5983 15.3142ZM45.315 15.5033V13.4833C45.315 13.115 45.2558 12.8383 44.8658 12.8383C44.4758 12.8383 44.4108 13.115 44.4108 13.4833V15.5C44.4108 15.8633 44.47 16.1558 44.8658 16.1558C45.2617 16.1558 45.315 15.8667 45.315 15.5V15.5033ZM15.0833 19.4692H16.925V20.0325H15.8758V21.2942H16.6992V21.8525H15.8758V23.3092H16.9325V23.8567H15.0833V19.4692ZM17.1867 22.4533V20.8883C17.1867 19.9892 17.4742 19.42 18.4367 19.42C19.3358 19.42 19.6225 19.92 19.6225 20.6825V21.0508H18.8533V20.6717C18.8533 20.3033 18.8483 20.005 18.4417 20.005C18.035 20.005 17.9925 20.3192 17.9925 20.72V22.6217C17.9925 23.0983 18.09 23.3258 18.4417 23.3258C18.8375 23.3258 18.8533 23.0167 18.8533 22.6267V22.2317H19.6225V22.5833C19.6225 23.3583 19.3625 23.9167 18.4367 23.9167C17.4742 23.9167 17.1867 23.3092 17.1867 22.4533ZM19.9708 22.4808V20.8333C19.9708 19.945 20.2958 19.4167 21.2383 19.4167C22.1808 19.4167 22.5 19.9458 22.5 20.8333V22.48C22.5 23.3625 22.175 23.915 21.2375 23.915C20.3 23.915 19.9708 23.3692 19.9708 22.4808ZM21.6883 22.6667V20.65C21.6883 20.2817 21.6283 20.005 21.2383 20.005C20.8483 20.005 20.7833 20.2817 20.7833 20.65V22.6667C20.7833 23.03 20.8433 23.3225 21.2383 23.3225C21.6333 23.3225 21.6883 23.0333 21.6883 22.6667ZM22.95 19.4692H23.5083L24.575 21.9692V19.4692H25.2358V23.8567H24.705L23.6325 21.235V23.8567H22.95V19.4692ZM25.6908 22.4808V20.8333C25.6908 19.945 26.0158 19.4167 26.9583 19.4167C27.9008 19.4167 28.2208 19.9425 28.2208 20.8333V22.48C28.2208 23.3625 27.8958 23.915 26.9583 23.915C26.0208 23.915 25.6908 23.3692 25.6908 22.4808ZM26.6225 18.1258H27.2833L27.7833 19.1258H27.2367L26.955 18.4758L26.6783 19.1258H26.1367L26.6225 18.1258ZM27.4083 22.6667V20.65C27.4083 20.2817 27.3483 20.005 26.9583 20.005C26.5683 20.005 26.5 20.2817 26.5 20.65V22.6667C26.5 23.03 26.56 23.3225 26.955 23.3225C27.35 23.3225 27.4083 23.0333 27.4083 22.6667ZM28.735 19.4692H29.5642L30.1867 22.5075L30.8333 19.4692H31.64L31.7233 23.8567H31.1275L31.0625 20.8067L30.4392 23.8567H29.9575L29.3233 20.7958L29.2642 23.8567H28.6625L28.735 19.4692ZM32.25 19.4692H33.0408V23.8567H32.25V19.4692ZM33.5075 22.4533V20.8883C33.5075 19.9892 33.7942 19.42 34.7575 19.42C35.6567 19.42 35.9442 19.92 35.9442 20.6825V21.0508H35.175V20.6717C35.175 20.3033 35.1692 20.005 34.7633 20.005C34.3575 20.005 34.3133 20.3192 34.3133 20.72V22.6217C34.3133 23.0983 34.4108 23.3258 34.7633 23.3258C35.1583 23.3258 35.175 23.0167 35.175 22.6267V22.2317H35.9442V22.5833C35.9442 23.3583 35.6842 23.9167 34.7575 23.9167C33.7942 23.9167 33.5075 23.3092 33.5075 22.4533ZM36.2917 22.4808V20.8333C36.2917 19.945 36.6167 19.4167 37.5592 19.4167C38.5017 19.4167 38.8208 19.9425 38.8208 20.8333V22.48C38.8208 23.3625 38.4958 23.915 37.5592 23.915C36.6225 23.915 36.2917 23.3692 36.2917 22.4808ZM38.0083 22.6667V20.65C38.0083 20.2817 37.9492 20.005 37.5592 20.005C37.1692 20.005 37.1042 20.2817 37.1042 20.65V22.6667C37.1042 23.03 37.1633 23.3225 37.5592 23.3225C37.955 23.3225 38.0083 23.0333 38.0083 22.6667ZM41.2908 31.4258L35.1883 37.2317C34.9575 37.4608 34.84 37.6292 34.84 38.1033V54.3742C34.8401 54.4198 34.8492 54.465 34.8668 54.5071C34.8843 54.5492 34.91 54.5875 34.9424 54.6196C34.9747 54.6518 35.0131 54.6773 35.0553 54.6947C35.0975 54.7121 35.1427 54.7209 35.1883 54.7208H41.4917C41.5837 54.7208 41.672 54.6843 41.7371 54.6193C41.8022 54.5544 41.839 54.4662 41.8392 54.3742V31.5725C41.8392 31.3808 41.6892 31.03 41.2908 31.4258ZM23.71 38.99L17.6058 44.7942C17.3767 45.0242 17.2583 45.1925 17.2583 45.665V54.3742C17.2588 54.4661 17.2956 54.5542 17.3607 54.6191C17.4258 54.684 17.5139 54.7206 17.6058 54.7208H23.91C24.0021 54.7208 24.0904 54.6844 24.1557 54.6194C24.221 54.5544 24.2579 54.4663 24.2583 54.3742V39.135C24.2583 38.9433 24.1067 38.5917 23.71 38.99Z" fill="white"/>
<path d="M44.065 24.3858C44.066 24.3614 44.0618 24.3371 44.0527 24.3144C44.0437 24.2917 44.03 24.2712 44.0125 24.2542C43.9821 24.2247 43.9422 24.2069 43.9 24.2042H43.8167L39.1433 25.2583L39.06 25.2675C39.0259 25.2746 38.9945 25.2911 38.9692 25.315C38.9364 25.3483 38.918 25.3932 38.918 25.44C38.918 25.4868 38.9364 25.5316 38.9692 25.565L39.0217 25.6175L40.0892 26.6842L29.5 37.28L24.6083 32.3892C24.5954 32.3759 24.5799 32.3653 24.5628 32.3581C24.5457 32.3509 24.5273 32.3472 24.5088 32.3472C24.4902 32.3472 24.4718 32.3509 24.4547 32.3581C24.4376 32.3653 24.4221 32.3759 24.4092 32.3892L23.0833 33.7158L15.2417 41.5558C15.2157 41.5825 15.2011 41.6182 15.2011 41.6554C15.2011 41.6926 15.2157 41.7284 15.2417 41.755L16.5708 43.0833C16.5838 43.0964 16.5992 43.1067 16.6161 43.1138C16.633 43.1208 16.6512 43.1244 16.6696 43.1244C16.6879 43.1244 16.7061 43.1208 16.7231 43.1138C16.74 43.1067 16.7554 43.0964 16.7683 43.0833L24.51 35.3433L28.0592 38.8925C28.0621 38.8985 28.0657 38.9041 28.07 38.9092L29.3975 40.235C29.4105 40.2483 29.426 40.2588 29.4431 40.266C29.4602 40.2732 29.4785 40.2769 29.4971 40.2769C29.5156 40.2769 29.534 40.2732 29.5511 40.266C29.5682 40.2588 29.5837 40.2483 29.5967 40.235L41.6142 28.2175L42.735 29.3375C42.759 29.3615 42.7895 29.3781 42.8228 29.3852C42.856 29.3923 42.8906 29.3896 42.9223 29.3774C42.9541 29.3653 42.9816 29.3441 43.0016 29.3166C43.0216 29.2891 43.0332 29.2564 43.035 29.2225V29.2075L44.0608 24.4375L44.065 24.3858Z" fill="white"/>
<path d="M32.535 40.0084L29.5833 42.9859C29.5564 43.0084 29.522 43.0201 29.4869 43.0187C29.4518 43.0173 29.4184 43.0029 29.3933 42.9784L26.7167 40.25C26.2267 39.7617 26.1217 40.1575 26.1217 40.3492V54.3734C26.1214 54.4188 26.1302 54.4639 26.1474 54.506C26.1647 54.5481 26.19 54.5864 26.2221 54.6187C26.2541 54.651 26.2922 54.6766 26.3342 54.6941C26.3762 54.7117 26.4212 54.7208 26.4667 54.7209H32.7725C32.8644 54.7204 32.9525 54.6836 33.0174 54.6185C33.0824 54.5534 33.1189 54.4653 33.1192 54.3734V40.1184C33.1192 39.9267 32.9683 39.575 32.5358 40.0084" fill="white"/>
</g>
<defs>
<clipPath id="clip0_274_36">
<rect width="60" height="60" fill="white"/>
</clipPath>
</defs>
</svg>
