<svg width="60" height="60" viewBox="0 0 60 60" fill="none" xmlns="http://www.w3.org/2000/svg">
<g clip-path="url(#clip0_274_93)">
<path d="M-0.0899963 -0.0899658H60.09V60.09H-0.0899963V-0.0899658Z" fill="#19486A"/>
<path d="M4.17667 7.41083C3.83333 7.595 2.85917 7.86417 2.51917 8.03417V6.405C2.9725 6.22083 4.23333 5.61167 4.65833 5.14417H6.3725V16.6192H4.17667V7.41083Z" fill="white"/>
<path d="M9.44666 6.81587H6.33333V5.14421H11.5833V6.57504L9.16666 16.6192H7.03833L9.44666 6.81587ZM15.3108 5.13587H16.6C17.3858 5.13587 17.7217 5.59087 17.7217 6.38171C17.7217 7.24254 17.2558 7.57337 16.5458 7.57337H16.1075V9.52337H15.3108V5.13587ZM16.4167 7.01004C16.8558 7.01004 16.9692 6.84337 16.9692 6.37587C16.9692 5.90837 16.91 5.69921 16.4167 5.69921H16.1083V7.01004H16.4167ZM18.4742 5.13587H19.3333L20.2108 9.52337H19.4692L19.2958 8.51004H18.5317L18.3533 9.52337H17.6033L18.4742 5.13587ZM19.2058 8.00004L18.9075 6.15837L18.61 8.00004H19.2058ZM20.5275 5.13587H21.5833C22.4608 5.13587 22.9592 5.41754 22.9592 6.30254C22.9592 6.82837 22.8292 7.19671 22.4175 7.36421L23.03 9.52587H22.2283L21.7025 7.51587H21.3233V9.52587H20.5275V5.13587ZM21.5783 7.01504C22.0383 7.01504 22.2067 6.81504 22.2067 6.34337C22.2067 5.89921 22.0817 5.68254 21.6233 5.68254H21.325V7.01587L21.5783 7.01504ZM23.3542 8.12004V6.55504C23.3542 5.65587 23.6417 5.08671 24.6042 5.08671C25.5033 5.08671 25.7908 5.58671 25.7908 6.34921V6.71754H25.0217V6.33837C25.0217 5.97004 25.0158 5.67171 24.61 5.67171C24.2042 5.67171 24.16 5.98587 24.16 6.38671V8.28837C24.16 8.76504 24.2575 8.99254 24.61 8.99254C25.005 8.99254 25.0217 8.68337 25.0217 8.29337V7.89837H25.7908V8.25004C25.7908 9.02504 25.53 9.58337 24.6042 9.58337C23.6417 9.58337 23.3542 8.97587 23.3542 8.12004ZM26.2308 5.13587H28.0725V5.69921H27.0267V6.96087H27.85V7.51921H27.0267V8.97587H28.0833V9.52337H26.2308V5.13587ZM28.43 5.13587H29.4858C30.3633 5.13587 30.8617 5.41754 30.8617 6.30254C30.8617 6.82837 30.7317 7.19671 30.32 7.36421L30.9325 9.52587H30.1308L29.605 7.51587H29.2258V9.52587H28.43V5.13587ZM29.4808 7.01504C29.9408 7.01504 30.1092 6.81504 30.1092 6.34337C30.1092 5.89921 29.9842 5.68254 29.5258 5.68254H29.2275V7.01587L29.4808 7.01504ZM31.3708 5.13587H32.1617V9.52337H31.3708V5.13587ZM33.375 5.13587H34.2308L35.1083 9.52337H34.3667L34.1933 8.51004H33.4292L33.25 9.52337H32.5L33.375 5.13587ZM34.1067 8.00004L33.8083 6.15837L33.5108 8.00004H34.1067ZM35.2983 8.24504L35.9858 8.10921C36.0075 8.62921 36.1325 8.96504 36.4858 8.96504C36.7408 8.96504 36.8492 8.79171 36.8492 8.55337C36.8492 8.17421 36.6542 7.96337 36.3667 7.71421L35.8142 7.23171C35.5 6.96087 35.305 6.65754 35.305 6.17004C35.305 5.47671 35.7383 5.08671 36.4375 5.08671C37.2608 5.08671 37.4933 5.63921 37.5367 6.27837L36.8492 6.39754C36.8325 5.98587 36.7733 5.67754 36.4208 5.67754C36.1825 5.67754 36.0525 5.85587 36.0525 6.08921C36.0525 6.38671 36.1775 6.54921 36.41 6.75004L36.9575 7.23171C37.315 7.54087 37.6125 7.92504 37.6125 8.50504C37.6125 9.13837 37.1683 9.58254 36.5133 9.58254C35.71 9.58337 35.3333 9.11671 35.2983 8.24504ZM39.16 5.13587H41V5.69921H39.9567V6.96087H40.78V7.51921H39.9567V8.97587H41.0125V9.52337H39.16V5.13587ZM42.6217 5.13587H43.45L44.0733 8.17421L44.7175 5.13587H45.525L45.6083 9.52337H45.0125L44.9475 6.47337L44.325 9.52337H43.8425L43.2092 6.46254L43.1492 9.52337H42.5483L42.6217 5.13587ZM46.1367 5.13587H47.9783V5.69921H46.9333V6.96087H47.7567V7.51921H46.9333V8.97587H47.9892V9.52337H46.1367V5.13587ZM48.3575 5.13587H49.1483V9.52337H48.3575V5.13587ZM49.6358 8.14754V6.50004C49.6358 5.61171 49.9608 5.08337 50.9033 5.08337C51.8458 5.08337 52.1667 5.61254 52.1667 6.50004V8.14754C52.1667 9.03004 51.8417 9.58254 50.9042 9.58254C49.9667 9.58254 49.6358 9.03587 49.6358 8.14754ZM51.3533 8.33337V6.31671C51.3533 5.94837 51.2933 5.67171 50.9033 5.67171C50.5133 5.67171 50.4483 5.94837 50.4483 6.31671V8.33337C50.4483 8.69671 50.5075 8.98921 50.9033 8.98921C51.2992 8.98921 51.3533 8.70004 51.3533 8.33337ZM52.5283 8.24504L53.2158 8.10921C53.2375 8.62921 53.3625 8.96504 53.7158 8.96504C53.9708 8.96504 54.0792 8.79171 54.0792 8.55337C54.0792 8.17421 53.8842 7.96337 53.5967 7.71421L53.0442 7.23171C52.73 6.96087 52.535 6.65754 52.535 6.17004C52.535 5.47671 52.9683 5.08671 53.6675 5.08671C54.4908 5.08671 54.7233 5.63921 54.7667 6.27837L54.0792 6.39754C54.0625 5.98587 54.0033 5.67754 53.6508 5.67754C53.4125 5.67754 53.2825 5.85587 53.2825 6.08921C53.2825 6.38671 53.4075 6.54921 53.64 6.75004L54.1875 7.23171C54.545 7.54087 54.8425 7.92504 54.8425 8.50504C54.8425 9.13837 54.3983 9.58254 53.7433 9.58254C52.94 9.58337 52.5608 9.11671 52.5283 8.24504ZM15.3108 12.3025H16.3458C17.4125 12.3025 17.7375 12.73 17.7375 13.6675V15.265C17.7375 16.2292 17.4042 16.69 16.3783 16.69H15.3108V12.3025ZM16.3567 16.1359C16.9033 16.1359 16.925 15.8434 16.925 15.2967V13.6134C16.925 13.0875 16.8708 12.8709 16.3458 12.8709H16.1075V16.1317L16.3567 16.1359ZM18.2092 12.3025H20.0508V12.8659H19.005V14.1275H19.8283V14.6859H19.005V16.1425H20.0617V16.69H18.2092V12.3025ZM21.6267 12.3025H22.4167V16.69H21.6258L21.6267 12.3025ZM23.04 12.3025H23.8692L24.4925 15.3409L25.1367 12.3025H25.9442L26.0275 16.69H25.4317L25.3667 13.64L24.7433 16.69H24.2617L23.6283 13.6292L23.5683 16.69H22.9667L23.04 12.3025ZM26.5558 12.3025H27.845C28.6308 12.3025 28.9658 12.7575 28.9658 13.5525C28.9658 14.4134 28.5008 14.7442 27.7908 14.7442H27.3517V16.6942H26.5558V12.3025ZM27.6608 14.1767C28.0992 14.1767 28.2133 14.01 28.2133 13.5425C28.2133 13.075 28.1533 12.8659 27.6608 12.8659H27.3517V14.1767H27.6608ZM29.2908 12.3025H30.0875V16.1425H31.1542V16.69H29.2908V12.3025ZM31.4525 12.3025H33.2942V12.8659H32.25V14.1275H33.0733V14.6859H32.25V16.1425H33.3067V16.69H31.4525V12.3025ZM33.7167 12.3025H34.545L35.1667 15.3409L35.8108 12.3025H36.6183L36.7017 16.69H36.1058L36.0408 13.64L35.4167 16.69H34.9342L34.3008 13.6292L34.2408 16.69H33.64L33.7167 12.3025ZM37.2317 12.3025H39.0733V12.8659H38.0283V14.1275H38.8517V14.6859H38.0283V16.1425H39.0833V16.69H37.2317V12.3025ZM39.4308 12.3025H39.9892L41.0558 14.8025V12.3025H41.7167V16.69H41.1858L40.1133 14.0684V16.69H39.4308V12.3025ZM42.7025 12.8925H42.0042V12.3025H44.1867V12.8925H43.5042V16.69H42.7025V12.8925ZM45.0158 12.3025H45.8717L46.75 16.69H46.0075L45.8333 15.6767H45.07L44.8908 16.69H44.1408L45.0158 12.3025ZM45.75 15.1667L45.4525 13.325L45.1508 15.1667H45.75ZM48.6392 13.8842V13.505C48.6392 13.1367 48.6342 12.8384 48.2275 12.8384C47.8208 12.8384 47.7783 13.1525 47.7783 13.5534V15.455C47.7783 15.9317 47.8758 16.1592 48.2275 16.1592C48.6233 16.1592 48.6392 15.85 48.6392 15.46V15.065H49.4083V15.4167C49.4083 16.1592 49.17 16.7059 48.3308 16.75V17.0209C48.7317 17.0209 49.0025 17.2 49.0025 17.5359C49.0025 17.92 48.6608 18.0825 48.2658 18.0825C48.1337 18.0812 48.0024 18.0613 47.8758 18.0234V17.6817C47.9705 17.7112 48.0692 17.7258 48.1683 17.725C48.3575 17.725 48.5017 17.6709 48.5017 17.525C48.5017 17.33 48.28 17.2592 48.025 17.2325V16.7392C47.2233 16.6559 46.9742 16.0784 46.9742 15.2875V13.7217C46.9742 12.8225 47.2617 12.2534 48.2242 12.2534C49.1233 12.2534 49.41 12.7534 49.41 13.5159V13.8842H48.6392ZM50.5 12.3025H51.3583L52.2358 16.69H51.4942L51.3208 15.6767H50.5567L50.3783 16.69H49.6283L50.5 12.3025ZM50.6667 11.4734C50.5258 11.4734 50.4767 11.5567 50.4767 11.6959H50.0975C50.0975 11.3059 50.2058 11.0134 50.5583 11.0134C50.8233 11.0134 51.0025 11.2634 51.235 11.2634C51.36 11.2634 51.4083 11.1875 51.4083 11.0467H51.7658C51.7658 11.3875 51.7067 11.7292 51.3542 11.7292C51.0767 11.7284 50.8925 11.4734 50.6708 11.4734H50.6667ZM51.2342 15.1667L50.9358 13.325L50.6383 15.1667H51.2342ZM52.4417 15.3142V13.6667C52.4417 12.7784 52.7667 12.25 53.7092 12.25C54.6517 12.25 54.9717 12.7759 54.9717 13.6667V15.3134C54.9717 16.1959 54.6467 16.7484 53.7092 16.7484C52.7717 16.7484 52.4417 16.2025 52.4417 15.3142ZM54.1592 15.5V13.4834C54.1592 13.115 54.0992 12.8384 53.7092 12.8384C53.3192 12.8384 53.2542 13.115 53.2542 13.4834V15.5C53.2542 15.8634 53.3142 16.1559 53.7092 16.1559C54.1042 16.1559 54.1592 15.8667 54.1592 15.5ZM45.365 36.4375C45.3626 34.4003 44.5716 32.4431 43.1579 30.9762C41.7441 29.5093 39.8174 28.6467 37.7817 28.5692C37.2392 27.0335 36.2339 25.7038 34.9041 24.7632C33.5744 23.8227 31.9858 23.3176 30.3571 23.3176C28.7284 23.3176 27.1397 23.8227 25.81 24.7632C24.4803 25.7038 23.475 27.0335 22.9325 28.5692C21.3181 28.6276 19.7607 29.1815 18.4721 30.1558C17.1834 31.13 16.2258 32.4772 15.7294 34.0145C15.2329 35.5519 15.2217 37.2047 15.6973 38.7486C16.1729 40.2925 17.1121 41.6526 18.3875 42.6442C17.9361 44.202 17.9772 45.8612 18.5049 47.3949C19.0327 48.9285 20.0215 50.2615 21.3359 51.2117C22.6504 52.1618 24.2263 52.6825 25.8481 52.7027C27.4698 52.7228 29.0582 52.2414 30.3958 51.3242C31.7344 52.2187 33.3151 52.6812 34.9248 52.6492C36.5344 52.6171 38.0955 52.0921 39.3974 51.145C40.6993 50.198 41.6794 48.8743 42.2054 47.3527C42.7315 45.8312 42.7781 44.1848 42.3392 42.6359C43.2813 41.9005 44.0435 40.9601 44.5678 39.8861C45.0921 38.8121 45.3647 37.6327 45.365 36.4375ZM36.645 31.1875C36.6426 32.6932 36.1004 34.1481 35.1167 35.288C34.1331 36.4279 32.7732 37.1773 31.2842 37.4C31.1502 36.5809 31.1811 35.7433 31.3751 34.9364C31.5692 34.1294 31.9224 33.3693 32.4142 32.7007C32.9059 32.032 33.5262 31.4684 34.2387 31.0427C34.9512 30.617 35.7415 30.3379 36.5633 30.2217C36.6161 30.541 36.6439 30.8639 36.6467 31.1875M30.3875 49.2792C29.7878 48.6992 29.3098 48.0054 28.9816 47.2384C28.6534 46.4714 28.4815 45.6466 28.4761 44.8123C28.4707 43.978 28.6318 43.1511 28.95 42.3798C29.2682 41.6086 29.737 40.9086 30.3292 40.3209C30.9289 40.9008 31.4068 41.5947 31.7351 42.3617C32.0633 43.1287 32.2351 43.9535 32.2406 44.7878C32.246 45.6221 32.0849 46.449 31.7667 47.2203C31.4485 47.9915 30.9796 48.6915 30.3875 49.2792ZM24.15 30.2242C24.9722 30.3397 25.763 30.6184 26.4759 31.044C27.1888 31.4695 27.8094 32.0333 28.3012 32.7022C28.7931 33.3711 29.1463 34.1315 29.34 34.9389C29.5337 35.7462 29.564 36.5841 29.4292 37.4034C28.607 37.2879 27.8162 37.0091 27.1033 36.5836C26.3904 36.158 25.7698 35.5943 25.2779 34.9254C24.7861 34.2565 24.4329 33.496 24.2392 32.6887C24.0455 31.8814 24.0152 31.0434 24.15 30.2242ZM28.8392 39.25C28.4684 39.9958 27.9527 40.6601 27.3222 41.2043C26.6917 41.7484 25.959 42.1613 25.167 42.4189C24.375 42.6765 23.5396 42.7736 22.7097 42.7046C21.8797 42.6355 21.0718 42.4017 20.3333 42.0167C20.7041 41.271 21.2198 40.6066 21.8503 40.0625C22.4808 39.5184 23.2135 39.1055 24.0055 38.8479C24.7975 38.5902 25.6329 38.4931 26.4628 38.5622C27.2928 38.6312 28.1006 38.8651 28.8392 39.25ZM31.8542 39.2075C32.5966 38.8178 33.4098 38.581 34.2454 38.5111C35.0811 38.4412 35.9222 38.5397 36.7191 38.8007C37.516 39.0617 38.2525 39.4799 38.8849 40.0306C39.5173 40.5813 40.0328 41.2532 40.4008 42.0067C39.6584 42.3968 38.8453 42.6339 38.0095 42.704C37.1738 42.774 36.3325 42.6756 35.5355 42.4146C34.7385 42.1536 34.002 41.7352 33.3697 41.1843C32.7373 40.6334 32.222 39.9612 31.8542 39.2075ZM30.3542 24.9025C31.5788 24.9038 32.7764 25.2622 33.8004 25.9339C34.8244 26.6056 35.6302 27.5614 36.1192 28.6842C34.8743 28.9066 33.7009 29.4246 32.6978 30.1946C31.6946 30.9646 30.8909 31.9641 30.3542 33.1092C29.8181 31.964 29.0148 30.9642 28.0119 30.1942C27.0089 29.4241 25.8357 28.9063 24.5908 28.6842C25.0797 27.5617 25.8852 26.6061 26.9089 25.9344C27.9325 25.2627 29.1298 24.9041 30.3542 24.9025ZM16.9342 36.4375C16.9365 34.8874 17.5106 33.3926 18.5465 32.2393C19.5824 31.0861 21.0073 30.3556 22.5483 30.1875C22.5053 30.5211 22.4833 30.857 22.4825 31.1934C22.4821 32.2888 22.7107 33.3722 23.1537 34.3741C23.5968 35.3759 24.2444 36.2741 25.055 37.0109C23.7938 37.1569 22.5865 37.605 21.5354 38.3171C20.4844 39.0293 19.6206 39.9845 19.0175 41.1017C18.3625 40.5144 17.8385 39.7958 17.4796 38.9926C17.1207 38.1895 16.9348 37.3198 16.9342 36.44M19.6617 44.8334C19.6615 44.3953 19.7076 43.9584 19.7992 43.53C20.9314 44.0778 22.1787 44.3459 23.436 44.3116C24.6934 44.2774 25.9242 43.9419 27.025 43.3334C26.7909 44.5707 26.8585 45.8463 27.2222 47.0519C27.5859 48.2575 28.2349 49.3577 29.1142 50.2592C28.1598 50.8191 27.0744 51.1167 25.9679 51.1219C24.8614 51.1271 23.7733 50.8397 22.8136 50.2889C21.854 49.7381 21.0571 48.9433 20.5035 47.9853C19.95 47.0272 19.6596 45.9398 19.6617 44.8334ZM41.0525 44.7817C41.0529 45.8809 40.7648 46.961 40.2169 47.9139C39.669 48.8668 38.8805 49.6592 37.9304 50.2119C36.9802 50.7645 35.9016 51.0581 34.8024 51.0632C33.7032 51.0683 32.6219 50.7847 31.6667 50.2409C33.0527 48.7817 33.8254 46.8459 33.825 44.8334C33.8242 44.3276 33.7751 43.8231 33.6783 43.3267C34.782 43.9398 36.0171 44.2778 37.2792 44.3122C38.5412 44.3466 39.7929 44.0763 40.9283 43.5242C41.0132 43.938 41.0559 44.3593 41.0558 44.7817M35.71 36.965C36.5062 36.2294 37.1416 35.3369 37.576 34.3438C38.0104 33.3506 38.2345 32.2782 38.2342 31.1942C38.2333 30.8579 38.2113 30.5219 38.1683 30.1884C39.3723 30.3176 40.5133 30.7922 41.4537 31.555C42.3941 32.3179 43.0939 33.3364 43.4686 34.4879C43.8434 35.6393 43.8771 36.8746 43.5658 38.0448C43.2546 39.2151 42.6115 40.2703 41.7142 41.0834C41.1177 39.9642 40.2603 39.0052 39.2146 38.2877C38.1688 37.5702 36.9655 37.1154 35.7067 36.9617" fill="white"/>
</g>
<defs>
<clipPath id="clip0_274_93">
<rect width="60" height="60" fill="white"/>
</clipPath>
</defs>
</svg>
