<svg width="60" height="60" viewBox="0 0 60 60" fill="none" xmlns="http://www.w3.org/2000/svg">
<g clip-path="url(#clip0_274_22)">
<path d="M-0.0899963 -0.0900269H60.09V60.09H-0.0899963V-0.0900269Z" fill="#FF3A21"/>
<path d="M4.63583 13.29H6.76083C6.76083 14.5508 6.91667 15.2067 7.71 15.1742C8.54333 15.1458 8.58833 14.2108 8.58833 12.7092C8.58833 11.4908 8.46083 10.6258 7.61083 10.6258C7.10083 10.6258 6.7775 10.98 6.63333 11.66H4.75L4.90583 5.14334H10.175V7.02834H6.69L6.57667 9.56417C6.80333 9.28084 7.38417 9.05417 8.02167 9.01167C9.7925 8.85584 10.6567 10.2617 10.6567 12.61C10.6567 15.0467 10.1892 16.8033 7.5825 16.8033C5.16 16.8033 4.63583 15.4167 4.63583 13.29ZM15.7683 5.13584H16.5592V9.52334H15.7683V5.13584ZM17.1392 8.07667V6.60334C17.1392 5.66084 17.4258 5.08667 18.3892 5.08667C19.2883 5.08667 19.6033 5.5525 19.6033 6.365V6.5925H18.8392V6.3425C18.8392 5.92 18.7958 5.67084 18.4 5.67084C17.9775 5.67084 17.945 6.0125 17.945 6.41334V8.25C17.945 8.705 18.0283 8.9925 18.4217 8.9925C18.815 8.9925 18.9042 8.68917 18.9042 8.2125V7.80084H18.4333V7.30084H19.6258V9.5275H19.105L19.0508 9.09917C18.9967 9.24977 18.8951 9.37871 18.7613 9.46662C18.6276 9.55453 18.4689 9.59666 18.3092 9.58667C17.4425 9.58334 17.1392 9 17.1392 8.07667ZM20.1775 8.10417V5.13584H20.9575V8.19584C20.9575 8.6125 21.0067 8.98667 21.4125 8.98667C21.8183 8.98667 21.8733 8.61334 21.8733 8.19584V5.13584H22.6475V8.10417C22.6475 9.02084 22.3975 9.5825 21.4125 9.5825C20.4275 9.5825 20.1775 9.025 20.1775 8.10417ZM23.8825 5.13584H24.7383L25.6158 9.52334H24.8742L24.7008 8.51H23.9367L23.7583 9.52334H23.0083L23.8825 5.13584ZM24.6142 8L24.3158 6.15834L24.0183 8H24.6142ZM26.0275 5.13584H26.8242V8.97584H27.8908V9.52334H26.0275V5.13584ZM28.2808 5.13584H29.3158C30.3825 5.13584 30.7075 5.56334 30.7075 6.50084V8.09834C30.7075 9.0625 30.3742 9.52334 29.3483 9.52334H28.2808V5.13584ZM29.3267 8.965C29.8733 8.965 29.895 8.6725 29.895 8.12584V6.44667C29.895 5.92084 29.8408 5.70417 29.3158 5.70417H29.0775V8.965H29.3267ZM31.8942 5.13584H32.75L33.6275 9.52334H32.885L32.7117 8.51H31.9483L31.7692 9.52334H31.0192L31.8942 5.13584ZM32.625 8L32.3275 6.15834L32.0292 8H32.625ZM34.0383 5.13584H35.0733C36.1408 5.13584 36.4658 5.56334 36.4658 6.50084V8.09834C36.4658 9.0625 36.1325 9.52334 35.1058 9.52334H34.0383V5.13584ZM35.0833 8.965C35.6308 8.965 35.6525 8.6725 35.6525 8.12584V6.44667C35.6525 5.92084 35.5983 5.70417 35.0692 5.70417H34.8333V8.965H35.0833ZM37.0283 5.13584H38.8708V5.69917H37.825V6.96084H38.6483V7.51917H37.825V8.97584H38.8817V9.52334H37.0283V5.13584ZM15.75 12.3025H16.785C17.8517 12.3025 18.1775 12.73 18.1775 13.6675V15.265C18.1775 16.2292 17.8442 16.69 16.8175 16.69H15.75V12.3025ZM16.7958 16.1358C17.3425 16.1358 17.365 15.8433 17.365 15.2967V13.6133C17.365 13.0875 17.31 12.8708 16.7817 12.8708H16.5433V16.1317L16.7958 16.1358ZM18.7367 12.3025H20.5783V12.8658H19.5333V14.1275H20.3567V14.6858H19.5333V16.1425H20.5892V16.69H18.7367V12.3025ZM22.25 15.2433V13.77C22.25 12.8275 22.5375 12.2533 23.5 12.2533C24.3992 12.2533 24.7133 12.7192 24.7133 13.5317V13.7592H23.9492V13.5092C23.9492 13.0867 23.9058 12.8375 23.5108 12.8375C23.0883 12.8375 23.0558 13.1792 23.0558 13.58V15.4133C23.0558 15.8683 23.1392 16.1558 23.5325 16.1558C23.9258 16.1558 24.0142 15.8525 24.0142 15.3758V14.9642H23.5417V14.46H24.7333V16.6867H24.2133L24.1592 16.2583C24.04 16.54 23.8258 16.7458 23.4167 16.7458C22.55 16.75 22.25 16.1667 22.25 15.2433ZM25.3183 12.3025H27.16V12.8658H26.1142V14.1275H26.9375V14.6858H26.1142V16.1425H27.1708V16.69H25.3183V12.3025ZM25.9167 10.9592H26.5833L27.0833 11.9592H26.5367L26.255 11.3092L25.9783 11.9592H25.4367L25.9167 10.9592ZM27.6092 12.3025H28.1667L29.2333 14.8025V12.3025H29.8942V16.69H29.3633L28.2917 14.0683V16.69H27.6092V12.3025ZM30.5342 12.3025H32.3758V12.8658H31.3333V14.1275H32.1567V14.6858H31.3333V16.1425H32.3892V16.69H30.5342V12.3025ZM32.8258 12.3025H33.8817C34.7592 12.3025 35.2575 12.5842 35.2575 13.4692C35.2575 13.995 35.1275 14.3633 34.7158 14.5308L35.3283 16.6925H34.5267L34 14.68H33.6208V16.69H32.825L32.8258 12.3025ZM33.8767 14.1817C34.3367 14.1817 34.505 13.9817 34.505 13.51C34.505 13.0658 34.38 12.8492 33.9217 12.8492H33.6233V14.1825L33.8767 14.1817ZM35.745 15.3142V13.6667C35.745 12.7783 36.07 12.25 37.0125 12.25C37.955 12.25 38.275 12.7758 38.275 13.6667V15.3133C38.275 16.1958 37.95 16.7483 37.0125 16.7483C36.075 16.7483 35.745 16.2025 35.745 15.3142ZM37.4625 15.5V13.4833C37.4625 13.115 37.4025 12.8383 37.0125 12.8383C36.6225 12.8383 36.5575 13.115 36.5575 13.4833V15.5C36.5575 15.8633 36.6175 16.1558 37.0125 16.1558C37.4075 16.1558 37.4625 15.8667 37.4625 15.5ZM43.8067 22.6475H36.2933C36.2681 22.6475 36.2438 22.6575 36.2259 22.6753C36.2079 22.6931 36.1977 22.7172 36.1975 22.7425V25.2425C36.1977 25.2679 36.2079 25.2921 36.2258 25.31C36.2437 25.3279 36.268 25.3381 36.2933 25.3383H39.285L35.9633 28.6583C34.5121 27.5179 32.7692 26.8089 30.934 26.6125C29.0987 26.4161 27.2453 26.7401 25.5856 27.5476C23.9259 28.3551 22.5269 29.6134 21.5487 31.1785C20.5705 32.7437 20.0526 34.5526 20.0542 36.3983C20.0542 41.3983 23.7975 45.5292 28.625 46.155V49.0317H25.6617C25.6491 49.0314 25.6365 49.0337 25.6248 49.0384C25.6131 49.0431 25.6024 49.0501 25.5934 49.0589C25.5844 49.0677 25.5773 49.0783 25.5724 49.0899C25.5675 49.1016 25.565 49.1141 25.565 49.1267V51.8033C25.5649 51.816 25.5673 51.8285 25.5722 51.8402C25.577 51.8519 25.5841 51.8625 25.5932 51.8714C25.6022 51.8802 25.6129 51.8872 25.6247 51.8918C25.6364 51.8965 25.649 51.8987 25.6617 51.8983H28.625V54.7317C28.6249 54.7443 28.6273 54.7568 28.6321 54.7685C28.6368 54.7802 28.6439 54.7908 28.6528 54.7997C28.6617 54.8086 28.6724 54.8157 28.684 54.8204C28.6957 54.8252 28.7082 54.8276 28.7208 54.8275H31.3958C31.4085 54.8276 31.421 54.8252 31.4328 54.8204C31.4445 54.8157 31.4552 54.8086 31.4641 54.7997C31.4731 54.7908 31.4803 54.7802 31.4851 54.7685C31.49 54.7569 31.4925 54.7443 31.4925 54.7317V51.8983H34.4558C34.4683 51.8984 34.4807 51.8961 34.4923 51.8913C34.5039 51.8866 34.5144 51.8796 34.5233 51.8708C34.5321 51.8619 34.5391 51.8514 34.5438 51.8398C34.5486 51.8282 34.5509 51.8158 34.5508 51.8033V49.1267C34.5508 49.1015 34.5408 49.0773 34.523 49.0595C34.5052 49.0417 34.481 49.0317 34.4558 49.0317H31.4925V46.1083C33.1368 45.8389 34.6856 45.1561 35.9936 44.124C37.3016 43.0919 38.3259 41.7443 38.9704 40.2078C39.6148 38.6713 39.8583 36.9963 39.6779 35.3399C39.4975 33.6835 38.8992 32.1001 37.9392 30.7383L41.2142 27.4625V30.2575C41.2143 30.2701 41.2169 30.2825 41.2218 30.2941C41.2267 30.3057 41.2338 30.3162 41.2428 30.325C41.2518 30.3338 41.2624 30.3408 41.2741 30.3455C41.2858 30.3502 41.2983 30.3526 41.3108 30.3525H43.8067C43.8322 30.3527 43.8567 30.3429 43.875 30.3251C43.8932 30.3073 43.9037 30.283 43.9042 30.2575V22.7425C43.9037 22.717 43.8932 22.6927 43.875 22.6749C43.8567 22.6571 43.8322 22.6473 43.8067 22.6475ZM29.8958 43.6425C28.463 43.6427 27.0624 43.2179 25.871 42.422C24.6796 41.6261 23.7509 40.4948 23.2025 39.1711C22.6541 37.8475 22.5105 36.3909 22.7899 34.9856C23.0694 33.5803 23.7592 32.2894 24.7723 31.2762C25.7854 30.263 27.0762 29.573 28.4814 29.2934C29.8867 29.0138 31.3433 29.1572 32.667 29.7055C33.9908 30.2538 35.1222 31.1823 35.9182 32.3736C36.7143 33.5649 37.1392 34.9655 37.1392 36.3983C37.1376 38.319 36.374 40.1605 35.016 41.5187C33.658 42.8769 31.8165 43.6407 29.8958 43.6425Z" fill="white"/>
<path d="M34.32 33.425H25.5342C25.5105 33.4238 25.4873 33.4318 25.4695 33.4474C25.4516 33.4629 25.4405 33.4847 25.4383 33.5083V35.635C25.4388 35.6471 25.4416 35.6589 25.4467 35.6699C25.4517 35.6809 25.4589 35.6907 25.4679 35.6989C25.4768 35.707 25.4872 35.7133 25.4986 35.7174C25.51 35.7214 25.5221 35.7232 25.5342 35.7225H34.32C34.3322 35.7234 34.3445 35.7218 34.356 35.7179C34.3676 35.7139 34.3783 35.7077 34.3874 35.6995C34.3965 35.6913 34.4039 35.6814 34.409 35.6703C34.4142 35.6592 34.4171 35.6472 34.4175 35.635V33.5108C34.4154 33.4869 34.404 33.4648 34.3857 33.4493C34.3675 33.4337 34.3439 33.4259 34.32 33.4275M34.32 37.2233H25.5342C25.5098 37.2224 25.486 37.2312 25.468 37.2477C25.4501 37.2643 25.4394 37.2873 25.4383 37.3116V39.4383C25.44 39.4621 25.4511 39.4841 25.469 39.4998C25.487 39.5154 25.5104 39.5232 25.5342 39.5216H34.32C34.344 39.5235 34.3677 39.5157 34.386 39.5001C34.4042 39.4845 34.4156 39.4623 34.4175 39.4383V37.3116C34.417 37.2994 34.414 37.2874 34.4088 37.2763C34.4036 37.2653 34.3963 37.2553 34.3872 37.2471C34.3781 37.2389 34.3675 37.2326 34.356 37.2285C34.3444 37.2244 34.3322 37.2226 34.32 37.2233Z" fill="white"/>
</g>
<defs>
<clipPath id="clip0_274_22">
<rect width="60" height="60" fill="white"/>
</clipPath>
</defs>
</svg>
