<svg width="60" height="60" viewBox="0 0 60 60" fill="none" xmlns="http://www.w3.org/2000/svg">
<g clip-path="url(#clip0_274_17)">
<path d="M-0.0899963 -0.0900269H60.09V60.09H-0.0899963V-0.0900269Z" fill="#C5192D"/>
<path d="M7.89416 13.9275H4.40916V12.2275L7.39833 5.1442H9.93416V12.27H11.0533V13.9275H9.93416V16.6192H7.89416V13.9275ZM7.89416 12.27V7.3967L6.1375 12.27H7.89416ZM15.75 5.13586H17.5917V5.6992H16.5433V6.96086H17.3667V7.5192H16.5433V8.97586H17.5992V9.52336H15.75V5.13586ZM18.0383 5.13586H19.0725C20.14 5.13586 20.465 5.56336 20.465 6.50086V8.09836C20.465 9.06253 20.1317 9.52336 19.105 9.52336H18.0383V5.13586ZM19.0833 8.96503C19.6308 8.96503 19.6525 8.67253 19.6525 8.12586V6.4467C19.6525 5.92086 19.5983 5.7042 19.0692 5.7042H18.8333V8.96503H19.0833ZM21 8.1042V5.13586H21.78V8.19586C21.78 8.61253 21.8283 8.9867 22.235 8.9867C22.6417 8.9867 22.695 8.61336 22.695 8.19586V5.13586H23.47V8.1042C23.47 9.02086 23.215 9.58253 22.235 9.58253C21.255 9.58253 21 9.02503 21 8.1042ZM24 8.12003V6.55503C24 5.65586 24.2833 5.08336 25.25 5.08336C26.1492 5.08336 26.4367 5.58336 26.4367 6.34586V6.7142H25.6667V6.33836C25.6667 5.97003 25.6608 5.6717 25.255 5.6717C24.8492 5.6717 24.805 5.98586 24.805 6.3867V8.28836C24.805 8.76503 24.9025 8.99253 25.255 8.99253C25.65 8.99253 25.6667 8.68336 25.6667 8.29336V7.89836H26.4358V8.25003C26.4358 9.02503 26.1758 9.58336 25.2492 9.58336C24.2833 9.58336 24 8.97586 24 8.12003ZM27.62 5.13586H28.4758L29.3533 9.52336H28.6117L28.4383 8.51003H27.6742L27.5 9.52336H26.75L27.62 5.13586ZM28.3517 8.00003L28.0533 6.15836L27.7558 8.00003H28.3517ZM31.3333 6.71753V6.33836C31.3333 5.97003 31.3283 5.6717 30.9217 5.6717C30.515 5.6717 30.4725 5.98586 30.4725 6.3867V8.28836C30.4725 8.76503 30.57 8.99253 30.9217 8.99253C31.3175 8.99253 31.3333 8.68336 31.3333 8.29336V7.89836H32.1025V8.25003C32.1025 8.99253 31.8642 9.5392 31.025 9.58336V9.8542C31.4258 9.8542 31.6967 10.0334 31.6967 10.3692C31.6967 10.7534 31.355 10.9159 30.96 10.9159C30.8279 10.9146 30.6966 10.8946 30.57 10.8567V10.515C30.6647 10.5445 30.7633 10.5591 30.8625 10.5584C31.0517 10.5584 31.1958 10.5042 31.1958 10.3584C31.1958 10.1634 30.9742 10.0925 30.7192 10.0659V9.57253C29.9175 9.4892 29.6683 8.9117 29.6683 8.12086V6.55503C29.6667 5.65586 29.955 5.08336 30.9167 5.08336C31.8158 5.08336 32.1025 5.58336 32.1025 6.34586V6.7142L31.3333 6.71753ZM33.2917 5.13586H34.1475L35.025 9.52336H34.2825L34.1092 8.51003H33.3458L33.1667 9.52336H32.4167L33.2917 5.13586ZM33.4583 4.30253C33.3175 4.30253 33.2692 4.38586 33.2692 4.52503H32.89C32.89 4.13503 32.9983 3.84253 33.35 3.84253C33.6158 3.84253 33.7942 4.09253 34.0275 4.09253C34.1517 4.09253 34.2008 4.0167 34.2008 3.87586H34.5583C34.5583 4.2167 34.4983 4.55836 34.1467 4.55836C33.8658 4.5617 33.6817 4.3067 33.4592 4.3067L33.4583 4.30253ZM34.0225 8.00003L33.725 6.15836L33.4267 8.00003H34.0225ZM35.3225 8.14753V6.50003C35.3225 5.6117 35.6475 5.08336 36.59 5.08336C37.5325 5.08336 37.8525 5.6092 37.8525 6.50003V8.14753C37.8525 9.03003 37.5275 9.58253 36.59 9.58253C35.6525 9.58253 35.3225 9.03586 35.3225 8.14753ZM37.04 8.33336V6.3167C37.04 5.94836 36.98 5.6717 36.59 5.6717C36.2 5.6717 36.135 5.94836 36.135 6.3167V8.33336C36.135 8.6967 36.195 8.9892 36.59 8.9892C36.985 8.9892 37.04 8.70003 37.04 8.33336ZM15.75 12.3025H16.785C17.8517 12.3025 18.1767 12.73 18.1767 13.6675V15.265C18.1767 16.2292 17.8433 16.69 16.8175 16.69H15.75V12.3025ZM16.7958 16.1359C17.3425 16.1359 17.3642 15.8434 17.3642 15.2967V13.6134C17.3642 13.0875 17.31 12.8709 16.7808 12.8709H16.5425V16.1317L16.7958 16.1359ZM18.7367 12.3025H20.5783V12.8659H19.5333V14.1275H20.3567V14.6859H19.5333V16.1425H20.5892V16.69H18.7367V12.3025ZM23.6067 16.7442C23.576 16.7485 23.5451 16.7502 23.5142 16.7492C22.5667 16.75 22.25 16.2025 22.25 15.3142V13.6667C22.25 12.7784 22.575 12.25 23.5175 12.25C24.46 12.25 24.78 12.7759 24.78 13.6667V15.3134C24.78 15.9417 24.6133 16.4075 24.1733 16.6134C24.2985 16.7744 24.4461 16.9167 24.6117 17.0359L24.46 17.5667C24.1917 17.4425 23.8233 17.0692 23.6067 16.7442ZM23.9692 15.5V13.4834C23.9692 13.115 23.9042 12.8384 23.5142 12.8384C23.1242 12.8384 23.0592 13.115 23.0592 13.4834V15.5C23.0592 15.8634 23.1192 16.1559 23.5142 16.1559C23.9092 16.1559 23.9692 15.8667 23.9692 15.5ZM25.3125 15.2709V12.3025H26.0925V15.3625C26.0925 15.7792 26.1417 16.1534 26.5475 16.1534C26.9533 16.1534 27.0083 15.78 27.0083 15.3625V12.3025H27.7825V15.2709C27.7825 16.1917 27.5283 16.7492 26.5475 16.7492C25.5667 16.7492 25.3125 16.1917 25.3125 15.2709ZM29.0175 12.3025H29.8733L30.75 16.69H30.0083L29.8333 15.6767H29.0692L28.8908 16.69H28.1408L29.0175 12.3025ZM29.75 15.1667L29.4517 13.325L29.1533 15.1667H29.75ZM31.1667 12.3025H31.9633V16.1425H33.03V16.69H31.1667V12.3025ZM33.4375 12.3025H34.2283V16.69H33.4375V12.3025ZM34.8783 12.3025H35.9167C36.9833 12.3025 37.3083 12.73 37.3083 13.6675V15.265C37.3083 16.2292 36.975 16.69 35.9492 16.69H34.8783V12.3025ZM35.9242 16.1359C36.4708 16.1359 36.4925 15.8434 36.4925 15.2967V13.6134C36.4925 13.0875 36.4383 12.8709 35.9092 12.8709H35.675V16.1317L35.9242 16.1359ZM38.4917 12.3025H39.3475L40.225 16.69H39.4825L39.3092 15.6767H38.545L38.3667 16.69H37.6167L38.4917 12.3025ZM39.2225 15.1667L38.925 13.325L38.6267 15.1667H39.2225ZM40.6358 12.3025H41.6708C42.7383 12.3025 43.0633 12.73 43.0633 13.6675V15.265C43.0633 16.2292 42.73 16.69 41.7033 16.69H40.6358V12.3025ZM41.6817 16.1359C42.2283 16.1359 42.25 15.8434 42.25 15.2967V13.6134C42.25 13.0875 42.1967 12.8709 41.6708 12.8709H41.4325V16.1317L41.6817 16.1359ZM43.6258 12.3025H45.4675V12.8659H44.4225V14.1275H45.25V14.6859H44.4267V16.1425H45.4825V16.69H43.6258V12.3025ZM26.58 32.1875L15.7367 25.9267V46.1809L26.58 49.4517V32.1875ZM27.7725 32.2292V49.4592L38.6858 46.1784V25.9275L27.7725 32.2292ZM44.95 45.8217H44.6317L45.915 50.305L47.1967 45.8217H46.8783H47.1967V27.8017H44.6317V45.8217H44.95Z" fill="white"/>
<path d="M41.0142 26.7967L39.8525 25.8783V46.73L27.8042 50.6225H26.58L14.5858 47.2717V25.8783L13.4225 26.7967V48.0875L26.525 51.715H27.8592L39.9467 47.8767L41.0142 47.5625V26.7967ZM47.1975 25.4167C47.2019 25.2455 47.1719 25.0751 47.1094 24.9156C47.0469 24.7562 46.9531 24.6108 46.8335 24.4882C46.714 24.3655 46.5711 24.268 46.4132 24.2015C46.2554 24.1349 46.0859 24.1006 45.9146 24.1006C45.7433 24.1006 45.5737 24.1349 45.4159 24.2015C45.2581 24.268 45.1152 24.3655 44.9956 24.4882C44.8761 24.6108 44.7823 24.7562 44.7198 24.9156C44.6573 25.0751 44.6273 25.2455 44.6317 25.4167V26.8H47.1975V25.4167Z" fill="white"/>
</g>
<defs>
<clipPath id="clip0_274_17">
<rect width="60" height="60" fill="white"/>
</clipPath>
</defs>
</svg>
