<svg width="60" height="60" viewBox="0 0 60 60" fill="none" xmlns="http://www.w3.org/2000/svg">
<g clip-path="url(#clip0_274_42)">
<path d="M-0.0899963 -0.0900269H60.09V60.09H-0.0899963V-0.0900269Z" fill="#FD6925"/>
<path d="M4.76334 13.8425V13.6759H6.83334C6.83334 14.6392 6.94667 15.1067 7.66667 15.1067C8.36084 15.1067 8.51667 14.5542 8.51667 12.7834V11.6184C8.27584 12.0292 7.73751 12.27 7.07167 12.285C5.21584 12.3134 4.57834 10.7692 4.57834 8.86835C4.58334 6.54669 5.41667 5.00002 7.66667 5.00002C9.84834 5.00002 10.755 6.48752 10.755 8.66669V12.8459C10.755 15.0842 10.1175 16.77 7.65251 16.77C5.54251 16.775 4.76334 15.7409 4.76334 13.8425ZM8.51751 10.0884V8.26085C8.51751 7.39669 8.37584 6.63169 7.66751 6.63169C6.94501 6.63169 6.81751 7.36835 6.81751 8.61502C6.81751 9.79085 6.83167 10.615 7.68167 10.615C8.12084 10.6125 8.37584 10.3334 8.51751 10.0884ZM13.35 5.05669H14.1408V9.44419H13.35V5.05669ZM14.5367 5.05669H15.0942L16.1617 7.55669V5.05669H16.8225V9.44419H16.2917L15.2192 6.82252V9.44419H14.5367V5.05669ZM17.2067 5.05669H18.2417C19.3083 5.05669 19.6333 5.48502 19.6333 6.42169V8.02002C19.6333 8.98419 19.3 9.44419 18.2742 9.44419H17.2067V5.05669ZM18.2525 8.89002C18.7992 8.89002 18.8208 8.59752 18.8208 8.05002V6.36752C18.8208 5.84252 18.7667 5.62585 18.2417 5.62585H18V8.88669L18.2525 8.89002ZM19.91 8.02502V5.05669H20.69V8.11752C20.69 8.53419 20.7383 8.90835 21.145 8.90835C21.5517 8.90835 21.605 8.53419 21.605 8.11752V5.05669H22.38V8.02502C22.38 8.94169 22.125 9.50419 21.145 9.50419C20.165 9.50419 19.91 8.94585 19.91 8.02502ZM21.25 3.66669H22L21.355 4.75002H20.9275L21.25 3.66669ZM22.6183 8.16669L23.3058 8.03169C23.3275 8.55169 23.4525 8.88752 23.8058 8.88752C24.0608 8.88752 24.1692 8.71419 24.1692 8.47585C24.1692 8.09669 23.9742 7.88502 23.6867 7.63585L23.1342 7.15419C22.82 6.88335 22.625 6.58002 22.625 6.09252C22.625 5.39919 23.0583 5.00919 23.7575 5.00919C24.5808 5.00919 24.8133 5.56169 24.8567 6.20085L24.1667 6.31919C24.15 5.90752 24.0908 5.59835 23.7383 5.59835C23.5 5.59835 23.37 5.77752 23.37 6.01002C23.37 6.30835 23.495 6.47085 23.7275 6.67085L24.275 7.15335C24.6325 7.46169 24.93 7.84669 24.93 8.42585C24.93 9.06002 24.4858 9.50419 23.8308 9.50419C23.03 9.50419 22.6508 9.03835 22.6183 8.16669ZM25.5592 5.64752H24.86V5.05669H27.0433V5.64752H26.3608V9.44419H25.5592V5.64752ZM27.1667 5.05669H28.2225C29.1 5.05669 29.5983 5.33835 29.5983 6.22335C29.5983 6.74835 29.4683 7.11669 29.0567 7.28502L29.6667 9.44419H28.865L28.3392 7.43502H27.9583V9.44419H27.1667V5.05669ZM28.2175 6.93669C28.6775 6.93669 28.8458 6.73585 28.8458 6.26502C28.8458 5.82085 28.7208 5.60419 28.2625 5.60419H27.9583V6.93752L28.2175 6.93669ZM29.9408 5.05669H30.7317V9.44419H29.9408V5.05669ZM31.7825 5.05669H32.6383L33.5158 9.44419H32.7742L32.6008 8.43169H31.8333L31.655 9.44419H30.905L31.7825 5.05669ZM32.5142 7.92252L32.2158 6.08335L31.9167 7.92252H32.5142ZM33.6083 9.91002C33.7128 9.88699 33.8057 9.82741 33.8701 9.74201C33.9346 9.65661 33.9665 9.551 33.96 9.44419H33.57V8.71335H34.2908V9.38002C34.2908 9.84585 34.09 10.1009 33.6842 10.1767L33.6083 9.91002ZM35.6017 5.05669H36.3925V9.44419H35.6017V5.05669ZM36.7875 5.05669H37.3458L38.4125 7.55669V5.05669H39.0733V9.44419H38.5425L37.47 6.82252V9.44419H36.7875V5.05669ZM39.3875 8.06835V6.42169C39.3875 5.53335 39.7125 5.00502 40.655 5.00502C41.5975 5.00502 41.9167 5.53335 41.9167 6.42169V8.06835C41.9167 8.95169 41.5917 9.50419 40.6542 9.50419C39.7167 9.50419 39.3875 8.95669 39.3875 8.06835ZM41.105 8.25835V6.23752C41.105 5.86919 41.045 5.59335 40.655 5.59335C40.265 5.59335 40.2 5.86919 40.2 6.23752V8.25835C40.2 8.62085 40.26 8.91335 40.655 8.91335C41.05 8.91335 41.105 8.62085 41.105 8.25835ZM42 5.05669H42.7042L43.2875 8.16085L43.8333 5.05669H44.5542L43.6667 9.44419H42.8817L42 5.05669ZM45.21 5.05669H46.0667L46.9442 9.44419H46.2017L46.0283 8.43169H45.2642L45.0833 9.44419H44.3333L45.21 5.05669ZM45.9417 7.92252L45.6442 6.08335L45.3458 7.92502L45.9417 7.92252ZM48.6717 6.63835V6.25919C48.6717 5.89085 48.6667 5.59252 48.26 5.59252C47.8533 5.59252 47.8108 5.90669 47.8108 6.30752V8.20919C47.8108 8.68585 47.9083 8.91335 48.26 8.91335C48.6558 8.91335 48.6717 8.60502 48.6717 8.21502V7.81919H49.4408V8.17169C49.4408 8.91335 49.2025 9.46085 48.3633 9.50502V9.77585C48.7642 9.77585 49.035 9.95419 49.035 10.29C49.035 10.675 48.6933 10.8375 48.2983 10.8375C48.1661 10.8364 48.0348 10.8161 47.9083 10.7775V10.4367C48.0031 10.4658 48.1017 10.4804 48.2008 10.48C48.39 10.48 48.5342 10.4259 48.5342 10.2792C48.5342 10.0842 48.3125 10.0142 48.0575 9.98669V9.49419C47.25 9.41169 47 8.83335 47 8.04169V6.47585C47 5.57669 47.2867 5.00835 48.25 5.00835C49.1492 5.00835 49.4358 5.50835 49.4358 6.27002V6.63835H48.6717ZM50.3725 5.05669H51.2283L52.1058 9.44419H51.3642L51.1908 8.43169H50.4267L50.25 9.44419H49.5L50.3725 5.05669ZM50.5392 4.22835C50.3983 4.22835 50.35 4.31169 50.35 4.45002H49.9708C49.9708 4.06002 50.0792 3.76752 50.4308 3.76752C50.6967 3.76752 50.875 4.01752 51.1083 4.01752C51.2333 4.01752 51.2817 3.94169 51.2817 3.80085H51.6392C51.6392 4.14252 51.58 4.48335 51.2275 4.48335C50.9467 4.48252 50.7625 4.22835 50.54 4.22835H50.5392ZM51.1033 7.92252L50.8058 6.08335L50.5075 7.92502L51.1033 7.92252ZM52.1492 8.06835V6.42169C52.1492 5.53335 52.4742 5.00502 53.4167 5.00502C54.3592 5.00502 54.6783 5.53002 54.6783 6.42169V8.06835C54.6783 8.95169 54.3533 9.50419 53.4167 9.50419C52.48 9.50419 52.1492 8.95669 52.1492 8.06835ZM53.8658 8.25835V6.23752C53.8658 5.86919 53.8067 5.59335 53.4167 5.59335C53.0267 5.59335 52.9617 5.86919 52.9617 6.23752V8.25835C52.9617 8.62085 53.0208 8.91335 53.4167 8.91335C53.8125 8.91335 53.8658 8.62085 53.8658 8.25835ZM13.3283 12.2234H15.1667V12.7867H14.125V14.0492H14.9483V14.6067H14.125V16.0642H15.1808V16.6109H13.3283V12.2234ZM16.4217 12.2234H17.2125V16.6109H16.4217V12.2234ZM17.6075 12.2234H18.1667L19.2333 14.7234V12.2234H19.8942V16.6109H19.3633L18.2908 13.9892V16.6109H17.6083L17.6075 12.2234ZM20.2783 12.2234H22.0833V12.7759H21.0742V14.0542H21.8975V14.6125H21.0742V16.6125H20.2783V12.2234ZM22.2333 12.2234H23.29C24.1675 12.2234 24.6658 12.505 24.6658 13.39C24.6658 13.915 24.5358 14.2834 24.1242 14.4517L24.7358 16.6125H23.9342L23.4092 14.6034H23.03V16.6125H22.2333V12.2234ZM23.2842 14.1034C23.745 14.1034 23.9125 13.9025 23.9125 13.4317C23.9125 12.9875 23.7883 12.7709 23.3292 12.7709H23.0317V14.1042L23.2842 14.1034ZM25.6458 12.2234H26.5L27.3775 16.6109H26.6358L26.4625 15.5984H25.7L25.5208 16.6109H24.7708L25.6458 12.2234ZM26.3775 15.0892L26.0833 13.25L25.7858 15.0917L26.3775 15.0892ZM27.5358 12.2234H29.3775V12.7867H28.3333V14.0492H29.1567V14.6067H28.3333V16.0642H29.3892V16.6109H27.5358V12.2234ZM29.4642 15.3334L30.1525 15.1984C30.1742 15.7184 30.2983 16.0542 30.6525 16.0542C30.9067 16.0542 31.015 15.8809 31.015 15.6425C31.015 15.2634 30.82 15.0517 30.5333 14.8025L29.9808 14.3209C29.6667 14.05 29.4717 13.7467 29.4717 13.2592C29.4717 12.5659 29.905 12.1759 30.6033 12.1759C31.4267 12.1759 31.66 12.7284 31.7033 13.3675L31.015 13.4867C30.9992 13.075 30.9392 12.7659 30.5875 12.7659C30.3492 12.7659 30.2192 12.945 30.2192 13.1775C30.2192 13.4759 30.3433 13.6384 30.5767 13.8384L31.1233 14.3209C31.4808 14.6292 31.7792 15.0142 31.7792 15.5934C31.7792 16.2275 31.335 16.6717 30.6792 16.6717C29.8758 16.6709 29.5 16.205 29.4642 15.3334ZM32.4058 12.8142H31.7067V12.2234H33.89V12.8142H33.2075V16.6109H32.4058V12.8142ZM34.0092 12.2234H35.065C35.9425 12.2234 36.4408 12.505 36.4408 13.39C36.4408 13.915 36.3108 14.2834 35.8992 14.4517L36.5117 16.6125H35.71L35.1842 14.6034H34.805V16.6125H34.0092V12.2234ZM35.06 14.1034C35.52 14.1034 35.6883 13.9025 35.6883 13.4317C35.6883 12.9875 35.5633 12.7709 35.105 12.7709H34.8067V14.1042L35.06 14.1034ZM36.7175 15.1917V12.2234H37.5V15.2842C37.5 15.7009 37.5483 16.075 37.955 16.075C38.3617 16.075 38.415 15.7009 38.415 15.2842V12.2234H39.19V15.1917C39.19 16.1084 38.935 16.6709 37.955 16.6709C36.975 16.6709 36.7175 16.1125 36.7175 15.1917ZM39.9725 12.8142H39.2742V12.2234H41.4567V12.8142H40.7742V16.6109H39.9725V12.8142ZM41.5433 15.1917V12.2234H42.3233V15.2842C42.3233 15.7009 42.3725 16.075 42.7783 16.075C43.1842 16.075 43.2392 15.7009 43.2392 15.2842V12.2234H44.0133V15.1917C44.0133 16.1084 43.7633 16.6709 42.7783 16.6709C41.7933 16.6709 41.5433 16.1125 41.5433 15.1917ZM44.36 12.2234H45.4167C46.2942 12.2234 46.7925 12.505 46.7925 13.39C46.7925 13.915 46.6625 14.2834 46.2508 14.4517L46.8625 16.6125H46.0608L45.5358 14.6034H45.1567V16.6125H44.36V12.2234ZM45.4108 14.1034C45.8717 14.1034 46.0392 13.9025 46.0392 13.4317C46.0392 12.9875 45.915 12.7709 45.4558 12.7709H45.1583V14.1042L45.4108 14.1034ZM47.7725 12.2234H48.6283L49.5058 16.6109H48.7642L48.5908 15.5984H47.8267L47.6475 16.6109H46.8975L47.7725 12.2234ZM48.5 15.0892L48.2058 13.25L47.9075 15.0917L48.5 15.0892ZM45.4433 39.5084L38.2567 35.3609V27.0634C38.2568 26.9772 38.2342 26.8926 38.1912 26.818C38.1482 26.7434 38.0863 26.6814 38.0117 26.6384L30.5833 22.3484C30.5088 22.3053 30.4243 22.2827 30.3383 22.2827C30.2523 22.2827 30.1678 22.3053 30.0933 22.3484L22.6625 26.6384C22.5878 26.6813 22.5258 26.7432 22.4828 26.8179C22.4397 26.8925 22.4172 26.9772 22.4175 27.0634V35.3609L15.23 39.5084C15.1554 39.5512 15.0934 39.6129 15.0504 39.6874C15.0073 39.7619 14.9848 39.8465 14.985 39.9325V48.5159C14.9847 48.602 15.0072 48.6867 15.0503 48.7614C15.0933 48.836 15.1553 48.8979 15.23 48.9409L22.6608 53.23C22.7353 53.2731 22.8198 53.2958 22.9058 53.2958C22.9919 53.2958 23.0764 53.2731 23.1508 53.23L30.3333 49.0834L37.5183 53.2309C37.5929 53.2738 37.6773 53.2965 37.7633 53.2967C37.8494 53.2969 37.934 53.2742 38.0083 53.2309L45.44 48.9417C45.5147 48.8988 45.5767 48.8368 45.6197 48.7622C45.6628 48.6875 45.6853 48.6028 45.685 48.5167V39.9334C45.6857 39.8475 45.6637 39.763 45.6213 39.6884C45.5789 39.6137 45.5175 39.5516 45.4433 39.5084ZM29.8467 47.6667L23.8858 44.2259L29.8467 40.7842V47.6667ZM36.7858 35.6459L30.8267 39.0834V32.2025L36.7858 35.6459ZM29.8467 39.0834L23.8867 35.6434L29.8467 32.2017V39.0834ZM31.3175 39.9325L37.7667 36.2092L44.2175 39.9317L37.7667 43.6567L31.3175 39.9325ZM37.2767 34.7934L31.3175 31.3525L37.2767 27.9167V34.7934ZM29.3558 31.3525L23.3958 34.7942V27.9167L29.3558 31.3525ZM22.4167 51.955L15.9658 48.2317V40.7825L22.4167 44.5067V51.955ZM23.3967 51.955V45.0734L29.3567 48.5142L23.3967 51.955ZM44.7083 48.2317L38.2567 51.955V44.5067L44.7083 40.7825V48.2317Z" fill="white"/>
</g>
<defs>
<clipPath id="clip0_274_42">
<rect width="60" height="60" fill="white"/>
</clipPath>
</defs>
</svg>
