<svg width="60" height="60" viewBox="0 0 60 60" fill="none" xmlns="http://www.w3.org/2000/svg">
<g clip-path="url(#clip0_274_76)">
<path d="M-0.0899963 60.0083L-0.0899963 -0.0900345L60.0083 -0.0900345L60.0083 60.0083L-0.0899963 60.0083Z" fill="#3F7E44"/>
<path d="M4.25999 7.41086C3.91666 7.59503 2.94249 7.8642 2.60249 8.0342V6.40503C3.05583 6.22086 4.31666 5.6117 4.74166 5.1442H6.45583V16.6192H4.25999V7.41086ZM6.65416 13.3467V12.95H8.83333V13.3334C8.84749 14.4525 9.04583 14.9767 9.76833 14.9767C10.505 14.9767 10.6608 14.41 10.6608 13.3192C10.6608 12.1717 10.3917 11.52 9.38583 11.4917C9.2589 11.4769 9.131 11.4722 9.00333 11.4775V9.87586H9.34333C10.3633 9.87586 10.6608 9.3517 10.6608 8.17586C10.6608 7.2592 10.4483 6.73086 9.72583 6.73086C9.00333 6.73086 8.84999 7.3542 8.83333 8.25003V8.76003H6.65416V8.13336C6.65416 6.1217 7.78749 4.98836 9.72833 4.98836C11.6833 4.98836 12.8167 6.06503 12.8167 8.06253C12.8167 9.40836 12.1933 10.3434 11.3717 10.57C12.205 10.8817 12.8167 11.6467 12.8167 13.2759C12.8167 15.3592 11.9833 16.8175 9.74249 16.8175C7.44749 16.8175 6.65416 15.4292 6.65416 13.3467ZM19.9667 5.13586H20.8225L21.7 9.52336H20.9575L20.7842 8.51003H20.0208L19.8417 9.52336H19.0917L19.9667 5.13586ZM20.6975 8.00003L20.4 6.15836L20.1017 8.00003H20.6975ZM23.5467 6.71753V6.33836C23.5467 5.97003 23.5417 5.6717 23.135 5.6717C22.7283 5.6717 22.6858 5.98586 22.6858 6.3867V8.28836C22.6858 8.76503 22.7833 8.99253 23.135 8.99253C23.5308 8.99253 23.5467 8.68336 23.5467 8.29336V7.89836H24.3158V8.25003C24.3158 8.99253 24.0775 9.5392 23.2383 9.58336V9.8542C23.6392 9.8542 23.91 10.0334 23.91 10.3692C23.91 10.7534 23.5683 10.9159 23.1733 10.9159C23.0412 10.9146 22.9099 10.8946 22.7833 10.8567V10.515C22.878 10.5445 22.9767 10.5591 23.0758 10.5584C23.265 10.5584 23.4092 10.5042 23.4092 10.3584C23.4092 10.1634 23.1875 10.0925 22.9325 10.0659V9.57253C22.1308 9.4892 21.8817 8.9117 21.8817 8.12086V6.55503C21.8817 5.65586 22.1692 5.0867 23.1317 5.0867C24.0308 5.0867 24.3175 5.5867 24.3175 6.3492V6.71753H23.5467ZM25.3667 5.13586H26.2225L27.1 9.52336H26.3583L26.185 8.51003H25.4208L25.2425 9.52336H24.4925L25.3667 5.13586ZM25.5333 4.30253C25.3925 4.30253 25.3433 4.38586 25.3433 4.52503H24.9642C24.9642 4.13503 25.0725 3.84253 25.425 3.84253C25.69 3.84253 25.8692 4.09253 26.1017 4.09253C26.2267 4.09253 26.275 4.0167 26.275 3.87586H26.6325C26.6325 4.2167 26.5733 4.55836 26.2208 4.55836C25.9408 4.5617 25.7567 4.3067 25.535 4.3067L25.5333 4.30253ZM26.0983 8.00003L25.8 6.15836L25.5 8.00003H26.0983ZM27.2625 8.14753V6.50003C27.2625 5.6117 27.5875 5.08336 28.53 5.08336C29.4725 5.08336 29.7925 5.6092 29.7925 6.50003V8.14753C29.7925 9.03003 29.4675 9.58253 28.53 9.58253C27.5925 9.58253 27.2625 9.03586 27.2625 8.14753ZM28.98 8.33336V6.3167C28.98 5.94836 28.92 5.6717 28.53 5.6717C28.14 5.6717 28.075 5.94836 28.075 6.3167V8.33336C28.075 8.6967 28.135 8.9892 28.53 8.9892C28.925 8.9892 28.98 8.70003 28.98 8.33336ZM31.3033 8.12003V6.55503C31.3033 5.65586 31.59 5.0867 32.5533 5.0867C33.4533 5.0867 33.74 5.5867 33.74 6.3492V6.71753H32.9708V6.33836C32.9708 5.97003 32.965 5.6717 32.5592 5.6717C32.1533 5.6717 32.1092 5.98586 32.1092 6.3867V8.28836C32.1092 8.76503 32.2067 8.99253 32.5592 8.99253C32.9542 8.99253 32.9708 8.68336 32.9708 8.29336V7.89836H33.74V8.25003C33.74 9.02503 33.48 9.58336 32.5533 9.58336C31.59 9.58336 31.3033 8.97586 31.3033 8.12003ZM34.0658 8.14753V6.50003C34.0658 5.6117 34.3908 5.08336 35.3333 5.08336C36.2758 5.08336 36.595 5.6092 36.595 6.50003V8.14753C36.595 9.03003 36.27 9.58253 35.3333 9.58253C34.3967 9.58253 34.0658 9.03586 34.0658 8.14753ZM35.7825 8.3367V6.3167C35.7825 5.94836 35.7233 5.6717 35.3333 5.6717C34.9433 5.6717 34.8783 5.94836 34.8783 6.3167V8.33336C34.8783 8.6967 34.9375 8.9892 35.3333 8.9892C35.7292 8.9892 35.7825 8.70003 35.7825 8.33336V8.3367ZM37.0233 5.13586H37.5833L38.6508 7.63586V5.13586H39.3117V9.52336H38.7808L37.7058 6.9017V9.52336H37.0233V5.13586ZM40.25 5.72586H39.5508V5.13586H41.7342V5.72586H41.0517V9.52336H40.25V5.72586ZM41.9742 5.13586H43.03C43.9075 5.13586 44.4058 5.41753 44.4058 6.30253C44.4058 6.82836 44.2758 7.1967 43.8642 7.3642L44.4767 9.52586H43.675L43.1492 7.51586H42.77V9.52586H41.9742V5.13586ZM43.025 7.01503C43.485 7.01503 43.6533 6.81503 43.6533 6.34336C43.6533 5.8992 43.5283 5.68253 43.07 5.68253H42.7717V7.01586L43.025 7.01503ZM45.5058 5.13586H46.3617L47.2392 9.52336H46.5L46.3267 8.51003H45.5633L45.3842 9.52336H44.6342L45.5058 5.13586ZM46.2367 8.00003L45.9392 6.15836L45.6408 8.00003H46.2367ZM49.3242 5.13586H50.18L51.0575 9.52336H50.3158L50.1425 8.51003H49.3783L49.2 9.52336H48.45L49.3242 5.13586ZM50.0558 8.00003L49.7575 6.15836L49.46 8.00003H50.0558ZM19.3758 12.3025H20.2092L20.8317 15.3409L21.4767 12.3025H22.2833L22.3667 16.69H21.7708L21.7058 13.64L21.0825 16.69H20.6008L19.9667 13.6292L19.9075 16.69H19.3L19.3758 12.3025ZM22.8158 15.2709V12.3025H23.5958V15.3625C23.5958 15.7792 23.6442 16.1534 24.0508 16.1534C24.4575 16.1534 24.5108 15.78 24.5108 15.3625V12.3025H25.2858V15.2709C25.2858 16.1917 25.0308 16.7492 24.0508 16.7492C23.0708 16.7492 22.8158 16.1917 22.8158 15.2709ZM25.75 12.3025H26.7842C27.8517 12.3025 28.1767 12.73 28.1767 13.6675V15.265C28.1767 16.2292 27.8433 16.69 26.8167 16.69H25.75V12.3025ZM26.795 16.1359C27.3425 16.1359 27.3642 15.8434 27.3642 15.2967V13.6134C27.3642 13.0875 27.31 12.8709 26.7808 12.8709H26.5425V16.1317L26.795 16.1359ZM29.2292 12.3025H30.0833L30.9608 16.69H30.2183L30.045 15.6767H29.2833L29.1042 16.69H28.3542L29.2292 12.3025ZM29.96 15.1667L29.6667 13.3259L29.3642 15.1667H29.96ZM31.2383 12.3025H31.7967L32.8633 14.8025V12.3025H33.5242V16.69H32.9933L31.9208 14.0684V16.69H31.2383V12.3025ZM35.6258 13.8842V13.505C35.6258 13.1367 35.6208 12.8384 35.2142 12.8384C34.8075 12.8384 34.765 13.1525 34.765 13.5534V15.455C34.765 15.9317 34.8625 16.1592 35.2142 16.1592C35.61 16.1592 35.6258 15.85 35.6258 15.46V15.065H36.395V15.4167C36.395 16.1592 36.1567 16.7059 35.3175 16.75V17.0209C35.7183 17.0209 35.9892 17.2 35.9892 17.5359C35.9892 17.92 35.6475 18.0825 35.2525 18.0825C35.1204 18.0812 34.9891 18.0613 34.8625 18.0234V17.6817C34.9572 17.7112 35.0558 17.7258 35.155 17.725C35.3442 17.725 35.4883 17.6709 35.4883 17.525C35.4883 17.33 35.2667 17.2592 35.0117 17.2325V16.7392C34.21 16.6559 33.9608 16.0784 33.9608 15.2875V13.7217C33.9608 12.8225 34.2483 12.2534 35.2108 12.2534C36.11 12.2534 36.3967 12.7534 36.3967 13.5159V13.8842H35.6258ZM37.4458 12.3025H38.3017L39.1792 16.69H38.4375L38.2642 15.6767H37.5L37.3208 16.69H36.5708L37.4458 12.3025ZM38.1767 15.1667L37.8792 13.325L37.5833 15.1667H38.1767ZM40.5383 15.2434V13.77C40.5383 12.8275 40.8258 12.2534 41.7883 12.2534C42.6875 12.2534 43.0017 12.7192 43.0017 13.5317V13.7592H42.2375V13.5092C42.2375 13.0867 42.1942 12.8375 41.7992 12.8375C41.3767 12.8375 41.3442 13.1792 41.3442 13.58V15.4134C41.3442 15.8684 41.4275 16.1559 41.8208 16.1559C42.2142 16.1559 42.3025 15.8525 42.3025 15.3759V14.9642H41.8333V14.46H43.025V16.6867H42.505L42.4508 16.2584C42.3317 16.54 42.1175 16.7459 41.7083 16.7459C40.8417 16.75 40.5383 16.1667 40.5383 15.2434ZM43.4742 12.3025H44.2708V16.1425H45.3375V16.69H43.4742V12.3025ZM45.4675 15.3142V13.6667C45.4675 12.7784 45.7925 12.25 46.735 12.25C47.6775 12.25 48 12.7792 48 13.6667V15.3134C48 16.1959 47.675 16.7484 46.7375 16.7484C45.8 16.7484 45.4675 16.2025 45.4675 15.3142ZM47.185 15.5V13.4834C47.185 13.115 47.125 12.8384 46.735 12.8384C46.345 12.8384 46.28 13.115 46.28 13.4834V15.5C46.28 15.8634 46.34 16.1559 46.735 16.1559C47.13 16.1559 47.185 15.8667 47.185 15.5ZM48.425 12.3025H49.5083C50.2775 12.3025 50.7925 12.5625 50.7925 13.4292C50.7925 13.965 50.57 14.2625 50.1583 14.3284C50.6733 14.4259 50.9167 14.7942 50.9167 15.4117C50.9167 16.2509 50.505 16.69 49.6925 16.69H48.425V12.3025ZM49.5 14.095C49.9767 14.095 50.1017 13.8842 50.1017 13.44C50.1017 12.9742 49.8742 12.8567 49.3867 12.8567H49.22V14.0917L49.5 14.095ZM49.5325 16.1267C50.02 16.1267 50.1558 15.8992 50.1558 15.4059C50.1558 14.8859 49.9825 14.6475 49.5058 14.6475H49.2242V16.1267H49.5325ZM51.93 12.3025H52.7858L53.6667 16.69H52.9242L52.75 15.6767H51.9867L51.8075 16.69H51.0575L51.93 12.3025ZM52.6608 15.1667L52.3633 13.325L52.065 15.1667H52.6608ZM53.9392 12.3025H54.7358V16.1425H55.8025V16.69H53.9392V12.3025ZM19.3108 19.4692H20.3458C21.4125 19.4692 21.7375 19.8967 21.7375 20.8342V22.4317C21.7375 23.3959 21.4042 23.8567 20.3783 23.8567H19.3108V19.4692ZM20.3567 23.2984C20.9033 23.2984 20.925 23.0059 20.925 22.4592V20.78C20.925 20.2542 20.8708 20.0375 20.3458 20.0375H20.1075V23.2984H20.3567ZM22.095 22.4809V20.8334C22.095 19.945 22.42 19.4167 23.3625 19.4167C24.305 19.4167 24.625 19.9425 24.625 20.8334V22.48C24.625 23.3625 24.3 23.915 23.3625 23.915C22.425 23.915 22.095 23.3692 22.095 22.4809ZM23.8125 22.6667V20.65C23.8125 20.2817 23.7525 20.005 23.3625 20.005C22.9725 20.005 22.9075 20.2817 22.9075 20.65V22.6667C22.9075 23.03 22.9675 23.3225 23.3625 23.3225C23.7575 23.3225 23.8125 23.0334 23.8125 22.6667ZM26.1358 22.4534V20.8884C26.1358 19.9892 26.4233 19.42 27.3858 19.42C28.285 19.42 28.5717 19.92 28.5717 20.6825V21.0509H27.8025V20.6717C27.8025 20.3034 27.7975 20.005 27.3908 20.005C26.9842 20.005 26.9417 20.3192 26.9417 20.72V22.6217C26.9417 23.0984 27.0392 23.3259 27.3908 23.3259C27.7867 23.3259 27.8025 23.0167 27.8025 22.6267V22.2317H28.5717V22.5834C28.5717 23.3584 28.3117 23.9167 27.3858 23.9167C26.4233 23.9167 26.1358 23.3092 26.1358 22.4534ZM28.9683 19.4692H29.765V23.3092H30.8333V23.8567H28.9683V19.4692ZM31.1083 19.4692H31.8992V23.8567H31.1083V19.4692ZM32.4783 19.4692H33.3075L33.93 22.5075L34.575 19.4692H35.3817L35.465 23.8567H34.8692L34.8042 20.8067L34.1808 23.8567H33.6992L33.065 20.7959L33.0058 23.8567H32.4042L32.4783 19.4692ZM36.6058 19.4692H37.4617L38.3392 23.8567H37.5975L37.4242 22.8434H36.66L36.4817 23.8567H35.7317L36.6058 19.4692ZM37.3375 22.3334L37.0392 20.4917L36.7417 22.3334H37.3375ZM52.6317 38.9009C51.0417 36.6667 43.8492 27.735 30.4567 27.7167C17.0642 27.6984 9.84666 36.6084 8.24999 38.8409C8.18166 38.9359 8.12333 39.0192 8.07499 39.0909C8.12333 39.1634 8.18083 39.2459 8.24916 39.3409C9.84083 41.5759 17.0317 50.5075 30.4267 50.5242C43.8217 50.5409 51.035 41.6309 52.6308 39.4C52.7008 39.3034 52.7583 39.2217 52.8042 39.15C52.7583 39.08 52.7008 38.9975 52.6317 38.9M22.9775 33.3467C23.0983 33.17 23.5 32.665 23.5492 32.5967C23.6525 32.4642 23.8575 32.4375 24.0008 32.4117C24.1442 32.3859 24.3342 32.465 24.355 32.5717C24.3758 32.6784 24.3 33.0934 24.2292 33.165C24.0325 33.3684 23.5208 33.655 23.2392 33.61C23.0217 33.5759 22.9358 33.4067 22.9775 33.3425M22.5 34.2975C22.5208 34.2725 22.54 34.2517 22.5483 34.2417C22.715 34.05 23.0525 34.0092 23.2842 33.9734C23.5158 33.9375 23.8258 34.0509 23.8633 34.2059C23.9008 34.3609 23.28 34.64 23.1667 34.745C22.8442 35.0417 22.3383 35.6459 22.0433 35.71C21.9626 35.7305 21.8773 35.7217 21.8025 35.685C21.9958 35.2038 22.2291 34.7397 22.5 34.2975ZM27.5 44.5875C27.3175 45.3009 27.1058 45.5575 26.925 45.7817C26.7442 46.0059 26.0758 46.2984 25.6517 46.2667C25.2275 46.235 25.17 45.1 25.1708 44.5167C25.1708 44.315 24.8858 44.9117 24.7383 43.6992C24.645 42.9225 24.145 43.7825 24.1108 43.2617C24.0767 42.7409 23.8275 42.845 23.5658 42.5242C23.3042 42.2034 22.9825 42.555 22.6167 42.7175C22.2508 42.88 22.4033 42.9675 21.8892 42.8009C21.8758 42.8009 21.8692 42.7934 21.8567 42.7884C21.3726 41.6387 21.1249 40.4033 21.1283 39.1559C21.1283 38.8409 21.1458 38.5317 21.1758 38.225C21.1925 38.1956 21.2118 38.1678 21.2333 38.1417C21.7283 37.5584 21.7175 37.4217 21.7175 37.4217L22.2633 37.2334C22.7825 37.3171 23.2936 37.4453 23.7908 37.6167C24.3317 37.8209 25.1833 38.2834 25.6783 38.0792C26.0367 37.9317 26.3175 37.7367 26.2842 37.4384C26.2442 37.0642 25.9508 36.975 25.5925 37.2267C25.4608 37.3192 25.1817 36.6625 24.9617 36.695C24.7417 36.7275 25.2325 37.4675 25.045 37.4984C24.8575 37.5292 24.4833 36.7275 24.4192 36.5975C24.355 36.4675 24.0667 36.1459 23.8058 36.3909C23.255 36.9134 22.3617 36.88 22.1817 37.0142C21.635 37.4225 21.4917 36.8792 21.5042 36.5484C21.5258 36.4725 21.5483 36.3959 21.5725 36.3217C21.7517 36.125 22.3917 36.0609 22.6117 36.2075C22.8525 36.3692 23.0283 36.1667 23.12 36.0692C23.2117 35.9717 23.1825 35.8192 23.12 35.69C23.0575 35.5609 23.2408 35.465 23.3658 35.4325C23.4908 35.4 23.9083 35.1084 24.0742 35.0117C24.24 34.915 25.1042 34.8117 25.4908 35.0059C25.6438 35.0871 25.8202 35.1129 25.99 35.0789C26.1598 35.0449 26.3126 34.9531 26.4225 34.8192C26.6129 34.5929 26.8421 34.4021 27.0992 34.2559C27.235 34.1934 26.7658 33.7559 26.3817 34.2317C25.9975 34.7075 25.7983 34.7484 25.6175 34.7484C25.4367 34.7484 24.36 34.4775 24.2275 34.1367C24.095 33.7959 24.5608 33.5425 24.9633 33.3509C25.3658 33.1592 26.4483 33.1659 26.7267 33.1009C27.2917 32.9775 28.015 32.6942 28.3792 32.9425C28.7433 33.1909 26.8575 33.6134 27.4758 33.9484C27.6958 34.0692 28.6925 33.3767 29.0333 33.1984C29.8367 32.7859 28.2567 32.6467 28.4625 31.8059C28.6958 30.855 26.525 31.2225 25.4425 31.2992C26.6966 30.4995 28.1237 30.0113 29.6048 29.8753C31.0859 29.7393 32.5781 29.9594 33.9568 30.5172C35.3356 31.0751 36.561 31.9546 37.5307 33.0823C38.5005 34.21 39.1865 35.5533 39.5317 37C39.5367 37.1454 39.5213 37.2907 39.4858 37.4317C39.4025 37.765 38.7625 38.0559 38.3925 37.515C38.2992 37.3784 37.8992 37 37.9117 37.6459C37.9242 38.2917 38.5392 38.36 37.9425 38.7475C37.3458 39.135 37.2367 39.0409 36.9608 39.1384C36.685 39.2359 36.4183 39.9009 36.4833 40.2575C36.5483 40.6142 37.4 41.5909 36.7683 41.5467C36.62 41.535 35.5058 40.7725 35.3225 40.2825C35.1292 39.7667 34.9183 39.2617 34.7683 38.8725C34.6183 38.4834 34.2233 38.3859 33.8892 38.6134C33.555 38.8409 33.9817 39.0675 33.7417 39.5534C33.5017 40.0392 33.3325 40.47 32.9825 40.07C32.0733 39.025 30.7492 39.5375 30.5433 38.3767C30.4317 37.7467 29.89 37.8067 29.4367 37.4492C28.9833 37.0917 28.7283 36.9009 28.6517 37.1575C28.5833 37.3825 30.0758 38.5684 30.1817 38.8725C30.3392 39.3234 29.7333 39.72 29.2892 39.8259C28.845 39.9317 28.6542 39.5759 28.22 39.1234C27.7858 38.6709 27.5958 38.3467 27.565 38.7017C27.5208 39.215 27.9767 39.97 28.4192 40.2525C28.7958 40.4917 29.2192 40.6009 29.0958 40.9884C28.9725 41.3759 29.0958 41.155 28.67 41.5717C28.2442 41.9884 28.165 42.1275 28.195 42.7075C28.225 43.2875 28.0733 43.3242 27.9817 43.8084C27.89 44.2925 27.68 43.8734 27.4967 44.5834M37.51 40.8767C37.8242 40.8517 38.2942 41.2867 38.11 41.4534C37.9258 41.62 37.4558 41.5575 37.2208 41.37C36.9858 41.1825 37.3692 40.885 37.51 40.8742M37.1142 40.5867C37.0133 40.5492 36.925 40.4534 36.8492 40.2242C36.7733 39.995 36.9658 39.865 37.1542 39.9575C37.3425 40.05 37.5933 40.3409 37.5933 40.4934C37.5933 40.6459 37.2167 40.6275 37.1142 40.5867ZM33 40.5717C32.815 40.7384 32.3433 40.675 32.1075 40.4884C31.8717 40.3017 32.2575 40.0034 32.3975 39.9925C32.7117 39.965 33.1825 40.4042 33 40.57M29.1833 42.4167C29.055 42.6267 28.7017 44.195 28.4667 44.0117C28.2317 43.8284 28.5642 42.1925 28.6333 42.0684C29.0025 41.3925 29.8 41.4267 29.1842 42.4167M30.4442 48.5C29.5567 48.4985 28.6739 48.3705 27.8225 48.12C27.756 48.0672 27.7089 47.9938 27.6885 47.9113C27.6681 47.8288 27.6757 47.7419 27.71 47.6642C28 46.9142 28.86 46.6184 29.5392 46.5542C31.0517 46.4084 33.0392 47.5409 33.3558 47.3592C33.6725 47.1775 34.3133 46.3467 35.2525 46.3825C35.8925 46.4084 35.8875 46.5159 36.1025 46.5967C34.4767 47.8362 32.4877 48.5052 30.4433 48.5M37.0267 45.7925C36.9259 45.7659 36.828 45.7296 36.7342 45.6842C36.225 45.4242 36.2858 45.8384 36.035 45.7467C35.7842 45.655 36.3192 45.0725 35.5658 45.5634C34.8125 46.0542 35.0192 45.4867 34.6933 44.6559C34.3675 43.825 35.0725 42.8792 35.6667 42.6667C36.4775 42.3742 36.9808 42.315 37.3608 42.2217C38.4825 41.9434 38.72 41.2784 38.9233 41.6834C38.9617 41.7592 38.9983 41.8317 39.0317 41.8992C39.1225 42.0893 39.1714 42.2968 39.175 42.5075C38.7017 43.7432 37.9711 44.8641 37.0317 45.7959M39.5942 41.0892C39.3442 41.02 38.2983 39.5709 39.1275 38.6184C39.2658 38.4617 38.8508 38.0009 38.9608 37.9917C39.4142 37.9567 39.655 38.2417 39.7733 38.6442C39.7817 38.8225 39.7892 39.0025 39.7883 39.185C39.7873 39.8248 39.7211 40.4628 39.5908 41.0892" fill="white"/>
</g>
<defs>
<clipPath id="clip0_274_76">
<rect width="60" height="60" fill="white"/>
</clipPath>
</defs>
</svg>
